<svg xmlns="http://www.w3.org/2000/svg" viewBox="0 0 500 500"><g id="freepik--background-simple--inject-82"><path d="M483,248.34C489.15,194.48,471,140.41,432.72,102c-18.79-18.89-44.5-36.7-78.65-45.3-95.78-24.12-157.85-2-188.88,56.67S45.11,161.92,31,263.1,85.59,475.59,202.29,481.67s101.68-52,165.52-76.95C416.63,385.67,473.89,328.7,483,248.34Z" style="fill:#92E3A9"></path><path d="M483,248.34C489.15,194.48,471,140.41,432.72,102c-18.79-18.89-44.5-36.7-78.65-45.3-95.78-24.12-157.85-2-188.88,56.67S45.11,161.92,31,263.1,85.59,475.59,202.29,481.67s101.68-52,165.52-76.95C416.63,385.67,473.89,328.7,483,248.34Z" style="fill:#fff;opacity:0.7000000000000001"></path></g><g id="freepik--film-rolls-4--inject-82"><path d="M206.69,28.43A51.67,51.67,0,1,0,258.36,80.1,51.67,51.67,0,0,0,206.69,28.43ZM228.09,54a12.16,12.16,0,1,1-4.46,16.61A12.15,12.15,0,0,1,228.09,54Zm-42.8,52.17a12.17,12.17,0,1,1,4.45-16.62A12.17,12.17,0,0,1,185.29,106.19Zm4.73-36a12.17,12.17,0,1,1-4.46-16.62A12.16,12.16,0,0,1,190,70.16Zm16.39,53.68a12.17,12.17,0,1,1,12.17-12.16A12.16,12.16,0,0,1,206.41,123.84Zm-2.15-48a3.1,3.1,0,1,1,1.12-4.23A3.1,3.1,0,0,1,204.26,75.79Zm1.06,12.8a3.1,3.1,0,1,1-1.15-4.23A3.09,3.09,0,0,1,205.32,88.59Zm-3.58-8.54A3.1,3.1,0,1,1,198.63,77,3.09,3.09,0,0,1,201.74,80.05Zm11.69-5.35a3.1,3.1,0,1,1-1.15-4.23A3.1,3.1,0,0,1,213.43,74.7ZM214.72,77a3.1,3.1,0,1,1-3.09,3.11A3.11,3.11,0,0,1,214.72,77Zm-5.61,7.37A3.1,3.1,0,1,1,208,88.65,3.1,3.1,0,0,1,209.11,84.41ZM207,60.69a12.17,12.17,0,1,1,12.17-12.16A12.15,12.15,0,0,1,207,60.69Zm37.47,41.52A12.17,12.17,0,1,1,240,85.59,12.16,12.16,0,0,1,244.43,102.21Z" style="fill:none;stroke:#000;stroke-miterlimit:10;opacity:0.30000000000000004"></path><path d="M384.63,350.8a51.67,51.67,0,1,0,51.67,51.67A51.67,51.67,0,0,0,384.63,350.8ZM406,376.38A12.16,12.16,0,1,1,401.57,393,12.16,12.16,0,0,1,406,376.38Zm-42.8,52.17a12.17,12.17,0,1,1,4.45-16.62A12.16,12.16,0,0,1,363.23,428.55Zm4.73-36a12.16,12.16,0,1,1-4.46-16.61A12.17,12.17,0,0,1,368,392.52Zm16.39,53.69A12.17,12.17,0,1,1,396.52,434,12.17,12.17,0,0,1,384.35,446.21Zm-2.15-48a3.1,3.1,0,1,1,1.12-4.24A3.1,3.1,0,0,1,382.2,398.16ZM383.26,411a3.1,3.1,0,1,1-1.15-4.23A3.1,3.1,0,0,1,383.26,411Zm-3.58-8.54a3.1,3.1,0,1,1-3.1-3.08A3.08,3.08,0,0,1,379.68,402.41Zm11.69-5.35a3.1,3.1,0,1,1-1.15-4.23A3.1,3.1,0,0,1,391.37,397.06Zm1.29,2.35a3.1,3.1,0,1,1-3.09,3.11A3.1,3.1,0,0,1,392.66,399.41Zm-5.6,7.36a3.1,3.1,0,1,1-1.12,4.24A3.09,3.09,0,0,1,387.06,406.77Zm-2.16-23.71a12.17,12.17,0,1,1,12.17-12.17A12.16,12.16,0,0,1,384.9,383.06Zm37.47,41.51A12.16,12.16,0,1,1,417.92,408,12.17,12.17,0,0,1,422.37,424.57Z" style="fill:none;stroke:#000;stroke-miterlimit:10;opacity:0.30000000000000004"></path><path d="M133,134.82a95.95,95.95,0,1,0,96,96A95.94,95.94,0,0,0,133,134.82Zm39.74,47.51a22.59,22.59,0,1,1-8.27,30.86A22.59,22.59,0,0,1,172.78,182.33ZM93.31,279.21a22.59,22.59,0,1,1,8.26-30.86A22.59,22.59,0,0,1,93.31,279.21Zm8.77-66.9a22.59,22.59,0,1,1-8.27-30.86A22.59,22.59,0,0,1,102.08,212.31ZM132.54,312a22.59,22.59,0,1,1,22.59-22.59A22.59,22.59,0,0,1,132.54,312Zm-4-89.22a5.76,5.76,0,1,1,2.07-7.87A5.75,5.75,0,0,1,128.54,222.77Zm2,23.75a5.75,5.75,0,1,1-2.13-7.85A5.76,5.76,0,0,1,130.5,246.52Zm-6.64-15.85a5.75,5.75,0,1,1-5.77-5.73A5.76,5.76,0,0,1,123.86,230.67Zm21.71-9.94a5.76,5.76,0,1,1-2.14-7.85A5.75,5.75,0,0,1,145.57,220.73Zm2.39,4.36a5.76,5.76,0,1,1-5.74,5.77A5.75,5.75,0,0,1,148,225.09Zm-10.41,13.68a5.75,5.75,0,1,1-2.08,7.86A5.76,5.76,0,0,1,137.55,238.77Zm-4-44.05a22.59,22.59,0,1,1,22.59-22.59A22.59,22.59,0,0,1,133.55,194.72Zm69.58,77.1A22.59,22.59,0,1,1,194.86,241,22.59,22.59,0,0,1,203.13,271.82Z" style="fill:none;stroke:#000;stroke-miterlimit:10;opacity:0.30000000000000004"></path></g><g id="freepik--film-roll-3--inject-82"><circle cx="362.21" cy="166.68" r="89.57" transform="translate(-11.77 304.94) rotate(-45)" style="fill:#fff;stroke:#263238;stroke-miterlimit:10"></circle><circle cx="364.08" cy="166.68" r="89.57" transform="translate(-11.22 306.26) rotate(-45)" style="fill:#d9d9d9;stroke:#263238;stroke-miterlimit:10"></circle><circle cx="374.22" cy="166.68" r="65.75" style="fill:#263238;stroke:#263238;stroke-miterlimit:10"></circle><path d="M371.74,77.11a89.57,89.57,0,1,0,89.56,89.57A89.57,89.57,0,0,0,371.74,77.11Zm37.09,44.35a21.09,21.09,0,1,1-7.72,28.8A21.08,21.08,0,0,1,408.83,121.46ZM334.64,211.9a21.09,21.09,0,1,1,7.72-28.81A21.09,21.09,0,0,1,334.64,211.9Zm8.19-62.46a21.09,21.09,0,1,1-7.71-28.8A21.07,21.07,0,0,1,342.83,149.44Zm28.43,93.06a21.09,21.09,0,1,1,21.09-21.09A21.09,21.09,0,0,1,371.26,242.5Zm-3.73-83.29a5.37,5.37,0,1,1,1.94-7.34A5.36,5.36,0,0,1,367.53,159.21Zm1.84,22.17a5.37,5.37,0,1,1-2-7.33A5.37,5.37,0,0,1,369.37,181.38Zm-6.2-14.79a5.37,5.37,0,1,1-5.39-5.35A5.38,5.38,0,0,1,363.17,166.59Zm20.26-9.28a5.37,5.37,0,1,1-2-7.33A5.38,5.38,0,0,1,383.43,157.31Zm2.23,4.07a5.37,5.37,0,1,1-5.35,5.39A5.37,5.37,0,0,1,385.66,161.38Zm-9.72,12.76a5.38,5.38,0,1,1-1.93,7.35A5.38,5.38,0,0,1,375.94,174.14ZM372.21,133a21.09,21.09,0,1,1,21.09-21.09A21.09,21.09,0,0,1,372.21,133Zm65,72a21.09,21.09,0,1,1-7.72-28.81A21.09,21.09,0,0,1,437.17,205Z" style="fill:#fff;stroke:#263238;stroke-miterlimit:10"></path><path d="M374.22,77.11a89.57,89.57,0,1,0,89.57,89.57A89.57,89.57,0,0,0,374.22,77.11Zm37.1,44.35a21.08,21.08,0,1,1-7.72,28.8A21.07,21.07,0,0,1,411.32,121.46ZM337.13,211.9a21.09,21.09,0,1,1,7.71-28.81A21.09,21.09,0,0,1,337.13,211.9Zm8.19-62.46a21.09,21.09,0,1,1-7.72-28.8A21.08,21.08,0,0,1,345.32,149.44Zm28.43,93.06a21.09,21.09,0,1,1,21.09-21.09A21.09,21.09,0,0,1,373.75,242.5ZM370,159.21a5.37,5.37,0,1,1,1.94-7.34A5.36,5.36,0,0,1,370,159.21Zm1.84,22.17a5.37,5.37,0,1,1-2-7.33A5.37,5.37,0,0,1,371.85,181.38Zm-6.2-14.79a5.37,5.37,0,1,1-5.39-5.35A5.37,5.37,0,0,1,365.65,166.59Zm20.26-9.28a5.37,5.37,0,1,1-2-7.33A5.38,5.38,0,0,1,385.91,157.31Zm2.23,4.07a5.37,5.37,0,1,1-5.35,5.39A5.36,5.36,0,0,1,388.14,161.38Zm-9.71,12.76a5.37,5.37,0,1,1-1.94,7.35A5.37,5.37,0,0,1,378.43,174.14ZM374.69,133a21.09,21.09,0,1,1,21.09-21.09A21.08,21.08,0,0,1,374.69,133Zm65,72a21.09,21.09,0,1,1-7.72-28.81A21.09,21.09,0,0,1,439.65,205Z" style="fill:#fff;stroke:#263238;stroke-miterlimit:10"></path></g><g id="freepik--film-roll-2--inject-82"><path d="M376.91,371.24a29.54,29.54,0,0,1-9.12-.31,28.21,28.21,0,0,1-8.14-2.88,22.39,22.39,0,0,1-6.25-5,16,16,0,0,1-3.48-6.52,13.21,13.21,0,0,1,0-6.87,14.69,14.69,0,0,1,3.35-5.95,19.56,19.56,0,0,1,6-4.42,26.08,26.08,0,0,1,8.18-2.31,29.76,29.76,0,0,1,8.86.31,28,28,0,0,1,7.95,2.76,22.49,22.49,0,0,1,6.23,4.78,16.5,16.5,0,0,1,3.65,6.38,13.29,13.29,0,0,1,.21,6.87,14.48,14.48,0,0,1-3.16,6.07,19.17,19.17,0,0,1-6,4.6,25.49,25.49,0,0,1-8.33,2.45m-5.28-47.72a7.68,7.68,0,0,1-1.44,0,7.54,7.54,0,0,1-1.42-.25,6.84,6.84,0,0,1-1.32-.52,5.37,5.37,0,0,1-1.15-.77,4.41,4.41,0,0,1-1.14-1.47,3.32,3.32,0,0,1-.3-1.59,3.37,3.37,0,0,1,.52-1.53,4.36,4.36,0,0,1,1.33-1.26,4.3,4.3,0,0,1,.6-.32,5.93,5.93,0,0,1,.63-.26c.22-.07.45-.13.67-.18s.46-.08.7-.11a7.49,7.49,0,0,1,1.42,0,6.71,6.71,0,0,1,1.41.24,7.51,7.51,0,0,1,1.32.51,5.57,5.57,0,0,1,1.14.77,4.28,4.28,0,0,1,1.14,1.46,3.21,3.21,0,0,1-.19,3.12,4.35,4.35,0,0,1-1.32,1.27,5.76,5.76,0,0,1-.6.33,5.9,5.9,0,0,1-.63.25,5.61,5.61,0,0,1-.67.19c-.23,0-.46.08-.7.11m48.63,19.75c-.92.11-1.85.17-2.81.19a27.88,27.88,0,0,1-2.88-.09c-1-.08-1.94-.2-2.92-.38a27.58,27.58,0,0,1-2.93-.68,27,27,0,0,1-7.81-3.62,20.41,20.41,0,0,1-5.35-5.29,14.34,14.34,0,0,1-2.45-6.21,12.12,12.12,0,0,1,.89-6.44,13.91,13.91,0,0,1,2.49-3.84,16.77,16.77,0,0,1,3.68-3,21.81,21.81,0,0,1,4.58-2.12,26.18,26.18,0,0,1,5.25-1.14q1.35-.15,2.73-.18c.93,0,1.87,0,2.81.09s1.89.2,2.84.37,1.9.39,2.85.65A27.08,27.08,0,0,1,428.9,315a20.88,20.88,0,0,1,5.4,5.12,14.89,14.89,0,0,1,2.63,6.12,12.17,12.17,0,0,1-.66,6.48,13.39,13.39,0,0,1-2.38,3.94,16.55,16.55,0,0,1-3.64,3.14,20.85,20.85,0,0,1-4.63,2.22,26.18,26.18,0,0,1-5.36,1.22m-63-18.16c-.23,0-.47,0-.71.05l-.72,0a6.09,6.09,0,0,1-.73-.1,6.41,6.41,0,0,1-.73-.17,6.29,6.29,0,0,1-1.94-.89,4.83,4.83,0,0,1-1.31-1.32,3.45,3.45,0,0,1-.57-1.56,3.06,3.06,0,0,1,.28-1.64,3.61,3.61,0,0,1,.67-1,5,5,0,0,1,1-.78,6.27,6.27,0,0,1,2.58-.84c.23,0,.47,0,.7-.05l.72,0a6.38,6.38,0,0,1,.73.1c.24,0,.48.1.72.16a6.86,6.86,0,0,1,1.93.89,5,5,0,0,1,1.32,1.31,3.58,3.58,0,0,1,.58,1.56,3.12,3.12,0,0,1-.26,1.63,3.73,3.73,0,0,1-.67,1,4.67,4.67,0,0,1-1,.78,5.56,5.56,0,0,1-1.21.56,6.91,6.91,0,0,1-1.38.3m-36.35,29.31a30.19,30.19,0,0,1-5.86.11,29.64,29.64,0,0,1-5.73-1,26.54,26.54,0,0,1-5.28-2.14,21.88,21.88,0,0,1-4.5-3.21,16.5,16.5,0,0,1-4.21-6.05,13.06,13.06,0,0,1-.78-6.48,13.76,13.76,0,0,1,2.49-6.15,18.33,18.33,0,0,1,5.6-5.07,21.55,21.55,0,0,1,2.43-1.27,24.87,24.87,0,0,1,2.57-1,27.08,27.08,0,0,1,2.68-.71,25.82,25.82,0,0,1,2.75-.45,29.35,29.35,0,0,1,5.7-.1,29.76,29.76,0,0,1,5.58,1,26.75,26.75,0,0,1,5.17,2A22.51,22.51,0,0,1,334,327a16.6,16.6,0,0,1,4.32,5.88,13.15,13.15,0,0,1,1,6.44,13.67,13.67,0,0,1-2.28,6.24,18,18,0,0,1-5.53,5.24,22.11,22.11,0,0,1-2.44,1.33,24.52,24.52,0,0,1-2.61,1.05c-.9.3-1.81.56-2.74.77s-1.87.36-2.82.48m55.24-40.92a7.75,7.75,0,0,1-2.21-.08,6.72,6.72,0,0,1-2-.68,5.64,5.64,0,0,1-1.54-1.15,3.87,3.87,0,0,1-.88-1.53,3,3,0,0,1,0-1.62,3.34,3.34,0,0,1,.79-1.42,4.79,4.79,0,0,1,1.47-1.06,6.52,6.52,0,0,1,2-.56h0a7.68,7.68,0,0,1,2.2.08,7.16,7.16,0,0,1,2,.67,5.51,5.51,0,0,1,1.53,1.14,4,4,0,0,1,.89,1.52,3.08,3.08,0,0,1,0,1.62,3.24,3.24,0,0,1-.79,1.42,4.72,4.72,0,0,1-1.47,1.08,6.26,6.26,0,0,1-2,.56h0m-28.47,3.11a7.75,7.75,0,0,1-2.21-.08,7.28,7.28,0,0,1-2-.68,5.37,5.37,0,0,1-1.51-1.16,3.65,3.65,0,0,1-.84-1.54,3,3,0,0,1,0-1.63,3.36,3.36,0,0,1,.83-1.43,5,5,0,0,1,1.51-1.07,6.73,6.73,0,0,1,2-.56h0a7.33,7.33,0,0,1,2.2.08,7,7,0,0,1,2,.67,5.49,5.49,0,0,1,1.51,1.15,3.69,3.69,0,0,1,.85,1.53,3,3,0,0,1,0,1.63,3.56,3.56,0,0,1-.82,1.43A4.86,4.86,0,0,1,349.8,316a6.25,6.25,0,0,1-2.06.57h0m18.87-11.45c-.23,0-.46,0-.69,0s-.48,0-.71,0a4.43,4.43,0,0,1-.72-.09,6.2,6.2,0,0,1-.72-.16,6.44,6.44,0,0,1-1.91-.87,4.81,4.81,0,0,1-1.3-1.28,3.33,3.33,0,0,1-.57-1.51,2.94,2.94,0,0,1,.26-1.58,3.41,3.41,0,0,1,.65-.95,4.43,4.43,0,0,1,1-.75,5.05,5.05,0,0,1,1.18-.53,7.07,7.07,0,0,1,1.34-.29c.23,0,.46,0,.69,0s.47,0,.7,0l.72.09c.23,0,.47.1.71.16a6.64,6.64,0,0,1,1.9.87,4.75,4.75,0,0,1,1.3,1.26A3.26,3.26,0,0,1,371,301a3,3,0,0,1-.24,1.58,3.62,3.62,0,0,1-.65,1,4.8,4.8,0,0,1-.95.76,6.14,6.14,0,0,1-1.19.53,6.47,6.47,0,0,1-1.35.29m-14.1,1.52a7.49,7.49,0,0,1-1.42,0,6.51,6.51,0,0,1-1.4-.24,6.36,6.36,0,0,1-1.3-.5,5.84,5.84,0,0,1-1.13-.75,4.3,4.3,0,0,1-1.1-1.44,3.21,3.21,0,0,1-.27-1.54,3.25,3.25,0,0,1,.54-1.49,4.41,4.41,0,0,1,1.33-1.23,5.65,5.65,0,0,1,.6-.31c.2-.09.42-.17.63-.24s.44-.13.67-.18.45-.08.69-.11a7.63,7.63,0,0,1,2.8.22,7.15,7.15,0,0,1,1.29.49,5.76,5.76,0,0,1,1.12.75,4,4,0,0,1,1.1,1.43,3.11,3.11,0,0,1,.29,1.54,3.19,3.19,0,0,1-.53,1.49,4.2,4.2,0,0,1-1.33,1.24c-.19.12-.39.22-.59.32s-.42.17-.64.24-.44.13-.66.18a5.5,5.5,0,0,1-.69.11m55-5.48a29.92,29.92,0,0,1-11-.87,26.9,26.9,0,0,1-5.13-2,22.83,22.83,0,0,1-4.47-2.93,16.81,16.81,0,0,1-4.39-5.51,11.91,11.91,0,0,1-1.19-5.91,11.48,11.48,0,0,1,1.93-5.59,15.44,15.44,0,0,1,4.95-4.6,24.3,24.3,0,0,1,2.21-1.15,24,24,0,0,1,2.37-.89,25.24,25.24,0,0,1,2.49-.65c.84-.17,1.7-.3,2.57-.4a28.51,28.51,0,0,1,5.39-.06,29.23,29.23,0,0,1,5.34.91,27.08,27.08,0,0,1,5,1.88,23.12,23.12,0,0,1,4.43,2.82,17.21,17.21,0,0,1,4.49,5.37,12.17,12.17,0,0,1,1.39,5.87,11.31,11.31,0,0,1-1.73,5.66,15,15,0,0,1-4.88,4.75,19.8,19.8,0,0,1-2.22,1.21,21,21,0,0,1-2.4.94,23.53,23.53,0,0,1-2.53.68,25.29,25.29,0,0,1-2.63.43m-96.16,10.12q-1.38.15-2.79.18c-.94,0-1.89,0-2.84-.09s-1.91-.2-2.86-.37a28.92,28.92,0,0,1-2.83-.66,24.29,24.29,0,0,1-7.39-3.47,17.35,17.35,0,0,1-4.83-5.06,12.54,12.54,0,0,1-1.86-5.94,11.8,11.8,0,0,1,1.45-6.15,14.76,14.76,0,0,1,2.81-3.67,19,19,0,0,1,3.9-2.88,24.64,24.64,0,0,1,4.72-2,28.35,28.35,0,0,1,5.29-1.08c.89-.09,1.8-.15,2.72-.16s1.84,0,2.76.09,1.86.19,2.78.36,1.85.37,2.76.62a24.83,24.83,0,0,1,7.27,3.33,17.64,17.64,0,0,1,4.88,4.91,12.73,12.73,0,0,1,2.06,5.85,11.76,11.76,0,0,1-1.23,6.19,14.73,14.73,0,0,1-2.71,3.76,18.78,18.78,0,0,1-3.88,3,24,24,0,0,1-4.78,2.11,27.84,27.84,0,0,1-5.4,1.15M354.49,286a29.43,29.43,0,0,1-8.51-.31,27.32,27.32,0,0,1-7.55-2.55,20.38,20.38,0,0,1-5.75-4.34,13.53,13.53,0,0,1-3.15-5.68,10.73,10.73,0,0,1,.14-6,12.8,12.8,0,0,1,3.22-5.15,18.63,18.63,0,0,1,5.72-3.81,25.69,25.69,0,0,1,7.68-2,29.33,29.33,0,0,1,8.29.32A27.09,27.09,0,0,1,362,259a20.65,20.65,0,0,1,5.74,4.19,13.91,13.91,0,0,1,3.29,5.57,10.83,10.83,0,0,1,.08,6A12.68,12.68,0,0,1,368,280a18.31,18.31,0,0,1-5.71,4,25.36,25.36,0,0,1-7.82,2.08m-11.24-39.13a110.36,110.36,0,0,0-32.62,8.26,83.77,83.77,0,0,0-25.06,16.35,60.08,60.08,0,0,0-15.06,22.7,50.66,50.66,0,0,0-2,27.19,61,61,0,0,0,12.94,26.73A88.13,88.13,0,0,0,307,369.05a116.49,116.49,0,0,0,34.52,12.4,125.53,125.53,0,0,0,39.12,1.3A107.27,107.27,0,0,0,416,372.21a77.14,77.14,0,0,0,24.72-19.37,55.78,55.78,0,0,0,12-24.81,51.69,51.69,0,0,0-2.19-27.15,66.67,66.67,0,0,0-15.7-24.46,94,94,0,0,0-25.22-17.91,118.15,118.15,0,0,0-31.44-10.28,125.35,125.35,0,0,0-34.88-1.35" style="fill:#fff;stroke:#263238;stroke-miterlimit:10"></path><path d="M376.74,367.18a29.53,29.53,0,0,1-9.12-.31,27.93,27.93,0,0,1-8.14-2.89,22,22,0,0,1-6.25-5,16.17,16.17,0,0,1-3.49-6.52,13.32,13.32,0,0,1,0-6.87,14.72,14.72,0,0,1,3.35-5.94,19.4,19.4,0,0,1,6-4.42,25.81,25.81,0,0,1,8.18-2.31,29.43,29.43,0,0,1,8.86.31,28,28,0,0,1,8,2.76,22.64,22.64,0,0,1,6.23,4.78,16.43,16.43,0,0,1,3.65,6.38,13.26,13.26,0,0,1,.21,6.86,14.36,14.36,0,0,1-3.16,6.07,19.35,19.35,0,0,1-6,4.61,25.73,25.73,0,0,1-8.33,2.45m-5.28-47.72a7.69,7.69,0,0,1-1.44,0,6.82,6.82,0,0,1-1.42-.25,6,6,0,0,1-1.32-.51,6.15,6.15,0,0,1-1.16-.77,4.43,4.43,0,0,1-1.13-1.48,3.2,3.2,0,0,1-.3-1.59,3.33,3.33,0,0,1,.52-1.52,4.28,4.28,0,0,1,1.33-1.27l.59-.32c.21-.09.42-.18.64-.25s.44-.13.67-.18a5.5,5.5,0,0,1,.69-.11,6.85,6.85,0,0,1,1.43,0,7.44,7.44,0,0,1,1.41.25,5.94,5.94,0,0,1,1.31.51,5.37,5.37,0,0,1,1.15.77,4.28,4.28,0,0,1,1.14,1.46,3.19,3.19,0,0,1-.19,3.11,4.52,4.52,0,0,1-1.92,1.6,4.91,4.91,0,0,1-.63.26c-.22.07-.45.13-.68.18s-.46.09-.69.12m48.63,19.74c-.92.11-1.86.18-2.81.2s-1.91,0-2.88-.09-1.94-.21-2.92-.38-2-.4-2.93-.68a27.27,27.27,0,0,1-7.81-3.62,20.45,20.45,0,0,1-5.36-5.29,14.48,14.48,0,0,1-2.44-6.22,12.09,12.09,0,0,1,.89-6.43,13.77,13.77,0,0,1,2.49-3.84,16.77,16.77,0,0,1,3.68-3,21.32,21.32,0,0,1,4.58-2.12,26.18,26.18,0,0,1,5.25-1.14c.89-.1,1.81-.16,2.73-.18s1.86,0,2.81.09,1.89.2,2.84.37,1.9.38,2.85.65a26.81,26.81,0,0,1,7.67,3.47,20.64,20.64,0,0,1,5.39,5.11,14.87,14.87,0,0,1,2.64,6.13,12.12,12.12,0,0,1-.66,6.47,13.43,13.43,0,0,1-2.38,3.95,16.78,16.78,0,0,1-3.64,3.13,21.33,21.33,0,0,1-4.63,2.23,25.53,25.53,0,0,1-5.36,1.21m-63-18.15c-.23,0-.47,0-.71,0a5.77,5.77,0,0,1-.72,0c-.24,0-.49-.05-.73-.09s-.49-.1-.73-.17a6.79,6.79,0,0,1-1.94-.89A4.83,4.83,0,0,1,351,318.6a3.44,3.44,0,0,1-.57-1.57,3,3,0,0,1,.28-1.63,3.61,3.61,0,0,1,.67-1,4.37,4.37,0,0,1,1-.78,5.8,5.8,0,0,1,1.21-.55,7.39,7.39,0,0,1,1.37-.3c.23,0,.46,0,.7,0s.48,0,.72,0,.48.05.72.09.49.1.73.17a6.59,6.59,0,0,1,1.93.89,4.66,4.66,0,0,1,1.31,1.31,3.4,3.4,0,0,1,.59,1.55,3.05,3.05,0,0,1-.27,1.64,3.57,3.57,0,0,1-.66,1,4.41,4.41,0,0,1-1,.79,6.08,6.08,0,0,1-1.21.56,7.69,7.69,0,0,1-1.38.3m-36.35,29.3a30.2,30.2,0,0,1-5.86.12,29.66,29.66,0,0,1-5.73-1,26.51,26.51,0,0,1-5.28-2.13,22.38,22.38,0,0,1-4.5-3.21,16.46,16.46,0,0,1-4.21-6.05,13.1,13.1,0,0,1-.78-6.49,14,14,0,0,1,2.48-6.15,18.62,18.62,0,0,1,5.61-5.07,23.32,23.32,0,0,1,2.43-1.27,27.31,27.31,0,0,1,2.57-1c.87-.28,1.77-.52,2.68-.72s1.82-.34,2.75-.45a30.16,30.16,0,0,1,5.7-.09,29.76,29.76,0,0,1,5.58,1,26.75,26.75,0,0,1,5.17,2,22.46,22.46,0,0,1,4.47,3.08,16.63,16.63,0,0,1,4.32,5.89,13.15,13.15,0,0,1,1,6.44,13.7,13.7,0,0,1-2.28,6.23,18,18,0,0,1-5.53,5.25,23.91,23.91,0,0,1-2.44,1.33,24.52,24.52,0,0,1-2.61,1.05,25.84,25.84,0,0,1-2.74.76,26.78,26.78,0,0,1-2.82.48M376,309.43a7.09,7.09,0,0,1-2.21-.08,7,7,0,0,1-2-.67,5.33,5.33,0,0,1-1.54-1.16,3.84,3.84,0,0,1-.88-1.52,3,3,0,0,1,0-1.63,3.37,3.37,0,0,1,.79-1.41,4.79,4.79,0,0,1,1.47-1.06,6.52,6.52,0,0,1,2-.56h0a7.68,7.68,0,0,1,2.2.08,7,7,0,0,1,2,.66,5.64,5.64,0,0,1,1.54,1.15,4,4,0,0,1,.89,1.52,3.08,3.08,0,0,1,0,1.62,3.3,3.3,0,0,1-.79,1.42,4.54,4.54,0,0,1-1.47,1.07,6.52,6.52,0,0,1-2,.57h0m-28.47,3.11a7.09,7.09,0,0,1-2.21-.08,6.94,6.94,0,0,1-2-.67,5.4,5.4,0,0,1-1.51-1.17,3.69,3.69,0,0,1-.85-1.53,3.14,3.14,0,0,1,0-1.64,3.46,3.46,0,0,1,.84-1.42,4.84,4.84,0,0,1,1.51-1.07,6.45,6.45,0,0,1,2-.56h0a7.67,7.67,0,0,1,2.2.08,7,7,0,0,1,2,.67,5.33,5.33,0,0,1,1.51,1.16,3.69,3.69,0,0,1,.85,1.53,3,3,0,0,1,0,1.63,3.63,3.63,0,0,1-.82,1.43,4.86,4.86,0,0,1-1.51,1.08,6.78,6.78,0,0,1-2.06.57h0m18.87-11.44c-.23,0-.46,0-.7,0a5.46,5.46,0,0,1-.7,0q-.36,0-.72-.09c-.24,0-.48-.1-.72-.16a6.44,6.44,0,0,1-1.91-.87,4.81,4.81,0,0,1-1.3-1.28,3.38,3.38,0,0,1-.57-1.51,2.93,2.93,0,0,1,.26-1.58,3.41,3.41,0,0,1,.65-.95,4.8,4.8,0,0,1,1-.76,6,6,0,0,1,1.18-.53,7.07,7.07,0,0,1,1.34-.28,5.32,5.32,0,0,1,.69,0,5.46,5.46,0,0,1,.7,0c.24,0,.48.05.71.09s.48.1.71.16a6.56,6.56,0,0,1,1.91.86,4.92,4.92,0,0,1,1.3,1.27,3.37,3.37,0,0,1,.59,1.5,3,3,0,0,1-.24,1.58,3.62,3.62,0,0,1-.65,1,4.18,4.18,0,0,1-.95.76,5.61,5.61,0,0,1-1.19.54,6.61,6.61,0,0,1-1.35.29m-14.1,1.52a7.49,7.49,0,0,1-1.42,0,8,8,0,0,1-1.4-.24,7,7,0,0,1-1.3-.5,5.46,5.46,0,0,1-1.13-.76,4.05,4.05,0,0,1-1.1-1.43,3.25,3.25,0,0,1-.27-1.55,3.21,3.21,0,0,1,.54-1.48,4.41,4.41,0,0,1,1.33-1.23,4.25,4.25,0,0,1,.6-.31,4.35,4.35,0,0,1,.63-.25,7.83,7.83,0,0,1,1.35-.28,8.42,8.42,0,0,1,1.42,0,8,8,0,0,1,1.38.24,7,7,0,0,1,1.3.5,6.08,6.08,0,0,1,1.12.75,4.11,4.11,0,0,1,1.1,1.42,3.05,3.05,0,0,1,.28,1.55,3.11,3.11,0,0,1-.52,1.49,4.31,4.31,0,0,1-1.33,1.24,4.75,4.75,0,0,1-.59.31,5,5,0,0,1-.64.25c-.21.07-.44.13-.66.18s-.46.08-.69.11m55-5.48a29.92,29.92,0,0,1-11-.87,27.58,27.58,0,0,1-5.13-2,23.77,23.77,0,0,1-4.47-2.93,16.74,16.74,0,0,1-4.39-5.52,11.87,11.87,0,0,1-1.19-5.9,11.48,11.48,0,0,1,1.93-5.59,15.44,15.44,0,0,1,4.95-4.6,22,22,0,0,1,2.21-1.15,21.75,21.75,0,0,1,2.37-.89,22.73,22.73,0,0,1,2.49-.65c.84-.17,1.7-.31,2.57-.4a29.48,29.48,0,0,1,10.73.85,27.05,27.05,0,0,1,5,1.87,23.66,23.66,0,0,1,4.43,2.83,17,17,0,0,1,4.49,5.37,12.14,12.14,0,0,1,1.39,5.86,11.45,11.45,0,0,1-1.73,5.67,15.12,15.12,0,0,1-4.88,4.75,18.24,18.24,0,0,1-2.22,1.2,21,21,0,0,1-2.4.95,23.53,23.53,0,0,1-2.53.68,25.29,25.29,0,0,1-2.63.43m-96.16,10.11a25.8,25.8,0,0,1-2.79.18,26.94,26.94,0,0,1-2.84-.09,27.93,27.93,0,0,1-2.86-.36,28.26,28.26,0,0,1-2.83-.66,24.3,24.3,0,0,1-7.39-3.48,17.2,17.2,0,0,1-4.83-5,12.43,12.43,0,0,1-1.86-6,11.77,11.77,0,0,1,1.45-6.14A14.78,14.78,0,0,1,290,282a19,19,0,0,1,3.91-2.88,24,24,0,0,1,4.72-2,27.56,27.56,0,0,1,5.29-1.08,27,27,0,0,1,2.72-.16,25.53,25.53,0,0,1,2.76.09c.93.07,1.86.19,2.78.35s1.85.38,2.76.63a24.57,24.57,0,0,1,7.27,3.33,17.75,17.75,0,0,1,4.88,4.9,12.64,12.64,0,0,1,2.05,5.86,11.71,11.71,0,0,1-1.22,6.18,14.73,14.73,0,0,1-2.71,3.76,18.45,18.45,0,0,1-3.88,3,23.76,23.76,0,0,1-4.78,2.12,27.11,27.11,0,0,1-5.4,1.14M354.32,282a29.08,29.08,0,0,1-8.51-.32,27,27,0,0,1-7.55-2.55,20.2,20.2,0,0,1-5.75-4.34,13.61,13.61,0,0,1-3.16-5.68,10.69,10.69,0,0,1,.15-6,12.63,12.63,0,0,1,3.22-5.15,18.71,18.71,0,0,1,5.72-3.82,25.68,25.68,0,0,1,7.68-2,29.34,29.34,0,0,1,8.29.31,27.1,27.1,0,0,1,7.39,2.45,20.45,20.45,0,0,1,5.74,4.19,13.85,13.85,0,0,1,3.29,5.57,10.8,10.8,0,0,1,.08,6,12.62,12.62,0,0,1-3.06,5.26,18.29,18.29,0,0,1-5.71,4,25.36,25.36,0,0,1-7.82,2.08m-11.24-39.14a110.82,110.82,0,0,0-32.63,8.27,83.66,83.66,0,0,0-25.05,16.35,59.92,59.92,0,0,0-15.06,22.7,50.66,50.66,0,0,0-2,27.19,61,61,0,0,0,12.94,26.73A88.13,88.13,0,0,0,306.78,365a116.38,116.38,0,0,0,34.52,12.39,125.23,125.23,0,0,0,39.12,1.31,107.27,107.27,0,0,0,35.38-10.54,77.16,77.16,0,0,0,24.72-19.38,55.68,55.68,0,0,0,12-24.81,51.56,51.56,0,0,0-2.2-27.14,66.51,66.51,0,0,0-15.69-24.46,94,94,0,0,0-25.22-17.92A118.87,118.87,0,0,0,378,244.16a126.12,126.12,0,0,0-34.88-1.35" style="fill:#d9d9d9;stroke:#263238;stroke-miterlimit:10"></path><path d="M361.52,339.26c-33.37,0-60.41-18.33-60.41-40.95v17.14c0,22.62,27,41,60.41,41s60.4-18.34,60.4-41V298.31C421.92,320.93,394.88,339.26,361.52,339.26Z" style="fill:#575757"></path><ellipse cx="361.52" cy="298.31" rx="60.41" ry="40.95" style="fill:#263238"></ellipse><path d="M376.91,357.6a29.24,29.24,0,0,1-9.12-.3,27.93,27.93,0,0,1-8.14-2.89,22.21,22.21,0,0,1-6.25-5,16,16,0,0,1-3.48-6.52,13.21,13.21,0,0,1,0-6.87,14.65,14.65,0,0,1,3.35-5.94,19.4,19.4,0,0,1,6-4.42,25.55,25.55,0,0,1,8.18-2.31,29.11,29.11,0,0,1,8.86.31,27.73,27.73,0,0,1,7.95,2.76,22.47,22.47,0,0,1,6.23,4.77,16.57,16.57,0,0,1,3.65,6.38,13.3,13.3,0,0,1,.21,6.87,14.36,14.36,0,0,1-3.16,6.07,19.17,19.17,0,0,1-6,4.6,25.49,25.49,0,0,1-8.33,2.45m-5.28-47.71a7.69,7.69,0,0,1-1.44,0,7.36,7.36,0,0,1-2.74-.76,5.81,5.81,0,0,1-1.15-.78,4.41,4.41,0,0,1-1.14-1.47,3.16,3.16,0,0,1,.22-3.11,4.27,4.27,0,0,1,1.33-1.27,5.7,5.7,0,0,1,.6-.32,4.35,4.35,0,0,1,.63-.25c.22-.07.45-.13.67-.18s.46-.09.7-.12a7.49,7.49,0,0,1,1.42,0,8.31,8.31,0,0,1,1.41.24,7.51,7.51,0,0,1,1.32.51,6,6,0,0,1,1.14.77,4.48,4.48,0,0,1,1.14,1.46,3.21,3.21,0,0,1-.19,3.12,4.38,4.38,0,0,1-1.32,1.28,5.7,5.7,0,0,1-.6.32,5.93,5.93,0,0,1-.63.26c-.22.07-.45.13-.67.18s-.46.09-.7.12m48.63,19.74c-.92.11-1.85.17-2.81.19s-1.91,0-2.88-.08-1.94-.21-2.92-.38-2-.41-2.93-.69a26.74,26.74,0,0,1-7.81-3.62,20.23,20.23,0,0,1-5.35-5.28,14.42,14.42,0,0,1-2.45-6.22,12.09,12.09,0,0,1,.89-6.43,13.82,13.82,0,0,1,2.49-3.85,17.06,17.06,0,0,1,3.68-3,21.81,21.81,0,0,1,4.58-2.12A26.89,26.89,0,0,1,410,297c.9-.1,1.81-.16,2.73-.17a26.46,26.46,0,0,1,2.81.09,27.91,27.91,0,0,1,2.84.36q1.42.25,2.85.66a27.07,27.07,0,0,1,7.67,3.46,20.88,20.88,0,0,1,5.4,5.12,14.87,14.87,0,0,1,2.63,6.13,12.13,12.13,0,0,1-.66,6.47,13.26,13.26,0,0,1-2.38,3.94,16.55,16.55,0,0,1-3.64,3.14,21.33,21.33,0,0,1-4.63,2.23,25.53,25.53,0,0,1-5.36,1.21m-63-18.16a5.52,5.52,0,0,1-.71,0,5.77,5.77,0,0,1-.72,0c-.24,0-.49-.05-.73-.09s-.49-.1-.73-.17a6.55,6.55,0,0,1-1.94-.9,4.83,4.83,0,0,1-1.31-1.32,3.45,3.45,0,0,1-.57-1.56,3.08,3.08,0,0,1,.28-1.64,3.42,3.42,0,0,1,.67-1,4.37,4.37,0,0,1,1-.78,6,6,0,0,1,1.21-.55,7.39,7.39,0,0,1,1.37-.3c.23,0,.47,0,.7,0a5.77,5.77,0,0,1,.72,0l.73.09a6.25,6.25,0,0,1,.72.17,6.34,6.34,0,0,1,1.93.89,5,5,0,0,1,1.32,1.3,3.58,3.58,0,0,1,.58,1.56,3.16,3.16,0,0,1-.26,1.64,3.84,3.84,0,0,1-.67,1,4.71,4.71,0,0,1-1,.79,6,6,0,0,1-1.21.55,6.28,6.28,0,0,1-1.38.3m-36.35,29.31a29.42,29.42,0,0,1-5.86.11,28.9,28.9,0,0,1-5.73-1,26,26,0,0,1-5.28-2.14,21.88,21.88,0,0,1-4.5-3.21,16.55,16.55,0,0,1-4.21-6,13.1,13.1,0,0,1-.78-6.49,13.81,13.81,0,0,1,2.49-6.15,18.33,18.33,0,0,1,5.6-5.07,23.32,23.32,0,0,1,2.43-1.27,22.74,22.74,0,0,1,2.57-1,24.62,24.62,0,0,1,2.68-.72c.91-.19,1.83-.34,2.75-.45a30.16,30.16,0,0,1,5.7-.09,29,29,0,0,1,5.58,1,25.52,25.52,0,0,1,5.17,2,22.05,22.05,0,0,1,4.47,3.08,16.63,16.63,0,0,1,4.32,5.89,13.14,13.14,0,0,1,1,6.44,13.63,13.63,0,0,1-2.28,6.23,18,18,0,0,1-5.53,5.24,22.19,22.19,0,0,1-2.44,1.34,26.82,26.82,0,0,1-2.61,1.05c-.9.3-1.81.55-2.74.76a26.78,26.78,0,0,1-2.82.48m55.24-40.92a7.75,7.75,0,0,1-2.21-.08,7,7,0,0,1-2-.67,5.47,5.47,0,0,1-1.54-1.16,3.91,3.91,0,0,1-.88-1.52,3,3,0,0,1,0-1.63,3.37,3.37,0,0,1,.79-1.41,4.65,4.65,0,0,1,1.47-1.07,6.52,6.52,0,0,1,2-.55h0a7.34,7.34,0,0,1,2.2.07,7.16,7.16,0,0,1,2,.67,5.71,5.71,0,0,1,1.53,1.14,4.06,4.06,0,0,1,.89,1.52,3.08,3.08,0,0,1,0,1.62,3.33,3.33,0,0,1-.79,1.43,4.69,4.69,0,0,1-1.47,1.07,6.52,6.52,0,0,1-2,.57h0M347.71,303a7.41,7.41,0,0,1-2.21-.08,6.66,6.66,0,0,1-2-.68,5.19,5.19,0,0,1-1.51-1.16,3.56,3.56,0,0,1-.84-1.53,3,3,0,0,1,0-1.64,3.42,3.42,0,0,1,.83-1.43,5,5,0,0,1,1.51-1.07,6.73,6.73,0,0,1,2-.56h0a7.67,7.67,0,0,1,2.2.08,7,7,0,0,1,2,.67,5.49,5.49,0,0,1,1.51,1.15,3.75,3.75,0,0,1,.85,1.53,3,3,0,0,1,0,1.64,3.7,3.7,0,0,1-.82,1.43,5,5,0,0,1-1.51,1.08,6.78,6.78,0,0,1-2.06.57h0m18.87-11.44c-.23,0-.46,0-.69,0s-.48,0-.71,0l-.72-.09c-.24,0-.48-.1-.72-.16a6.71,6.71,0,0,1-1.91-.88,4.78,4.78,0,0,1-1.3-1.27,3.42,3.42,0,0,1-.57-1.51,2.91,2.91,0,0,1,.26-1.58,3.62,3.62,0,0,1,.65-1,5.14,5.14,0,0,1,1-.75,6,6,0,0,1,1.18-.53,6.37,6.37,0,0,1,1.34-.28c.23,0,.46,0,.69-.05s.47,0,.7,0a5.9,5.9,0,0,1,.72.09,6.53,6.53,0,0,1,.71.16,6.62,6.62,0,0,1,1.9.86,4.64,4.64,0,0,1,1.3,1.27,3.26,3.26,0,0,1,.59,1.5,3,3,0,0,1-.24,1.58,3.62,3.62,0,0,1-.65,1,4.47,4.47,0,0,1-.95.76,5.61,5.61,0,0,1-1.19.54,7.18,7.18,0,0,1-1.35.29m-14.1,1.52a7.49,7.49,0,0,1-1.42,0,8,8,0,0,1-1.4-.24,7,7,0,0,1-1.3-.51,5.41,5.41,0,0,1-1.13-.75,4.37,4.37,0,0,1-1.1-1.43,3.27,3.27,0,0,1-.27-1.55,3.17,3.17,0,0,1,.54-1.48,4.41,4.41,0,0,1,1.33-1.23,5.7,5.7,0,0,1,.6-.32c.2-.09.42-.17.63-.24s.44-.13.67-.18l.69-.11a7.63,7.63,0,0,1,2.8.22,6.5,6.5,0,0,1,1.29.5,5.31,5.31,0,0,1,1.12.74,4,4,0,0,1,1.1,1.43,3.15,3.15,0,0,1,.29,1.55,3.2,3.2,0,0,1-.53,1.48,4.34,4.34,0,0,1-1.33,1.25,6.63,6.63,0,0,1-.59.31c-.21.09-.42.18-.64.25a4.91,4.91,0,0,1-.66.17l-.69.12m55-5.48a30,30,0,0,1-5.53.08,30.91,30.91,0,0,1-5.49-.95,27.58,27.58,0,0,1-5.13-2,23.77,23.77,0,0,1-4.47-2.93,16.74,16.74,0,0,1-4.39-5.52,11.9,11.9,0,0,1-1.19-5.9,11.44,11.44,0,0,1,1.93-5.59,15.22,15.22,0,0,1,4.95-4.6,20.12,20.12,0,0,1,2.21-1.15,24.09,24.09,0,0,1,2.37-.9,25.21,25.21,0,0,1,2.49-.64,24.12,24.12,0,0,1,2.57-.4,29.37,29.37,0,0,1,5.39-.07,30.11,30.11,0,0,1,5.34.91,27.81,27.81,0,0,1,5,1.88,23.62,23.62,0,0,1,4.43,2.82,17.12,17.12,0,0,1,4.49,5.38,12.11,12.11,0,0,1,1.39,5.86,11.31,11.31,0,0,1-1.73,5.66,15,15,0,0,1-4.88,4.76,21.48,21.48,0,0,1-2.22,1.2,21,21,0,0,1-2.4.94,23.56,23.56,0,0,1-2.53.69c-.86.18-1.74.33-2.63.43m-96.16,10.11q-1.38.15-2.79.18a27,27,0,0,1-2.84-.09c-1-.08-1.91-.2-2.86-.37S301,297,300,296.75a24.54,24.54,0,0,1-7.39-3.48,17.23,17.23,0,0,1-4.83-5.06,12.54,12.54,0,0,1-1.86-5.94,11.82,11.82,0,0,1,1.45-6.15,14.71,14.71,0,0,1,2.81-3.66,18.67,18.67,0,0,1,3.9-2.88,24.05,24.05,0,0,1,4.72-2,28.34,28.34,0,0,1,5.29-1.07c.89-.1,1.8-.15,2.72-.17s1.84,0,2.76.1,1.86.19,2.78.35a26.22,26.22,0,0,1,2.76.63,24.32,24.32,0,0,1,7.27,3.33,17.62,17.62,0,0,1,4.88,4.9,12.77,12.77,0,0,1,2.06,5.86,11.74,11.74,0,0,1-1.23,6.18,14.73,14.73,0,0,1-2.71,3.76,18.78,18.78,0,0,1-3.88,3,23.51,23.51,0,0,1-4.78,2.12,27.83,27.83,0,0,1-5.4,1.14m43.14-25.3a29.78,29.78,0,0,1-8.51-.32,27,27,0,0,1-7.55-2.55,20.2,20.2,0,0,1-5.75-4.34,13.48,13.48,0,0,1-3.15-5.68,10.69,10.69,0,0,1,.14-6,12.73,12.73,0,0,1,3.22-5.15,18.48,18.48,0,0,1,5.72-3.82,25.69,25.69,0,0,1,7.68-2,29.71,29.71,0,0,1,8.29.32,27.43,27.43,0,0,1,7.39,2.44,20.85,20.85,0,0,1,5.74,4.19A13.91,13.91,0,0,1,371,255.1a10.83,10.83,0,0,1,.08,6,12.62,12.62,0,0,1-3.06,5.26,18.33,18.33,0,0,1-5.71,4,25.65,25.65,0,0,1-7.82,2.08m-11.24-39.14a110.67,110.67,0,0,0-32.62,8.27,83.56,83.56,0,0,0-25.06,16.34,60,60,0,0,0-15.06,22.71,50.63,50.63,0,0,0-2,27.18,61,61,0,0,0,12.94,26.74A88.1,88.1,0,0,0,307,355.41a116.21,116.21,0,0,0,34.52,12.4,124.93,124.93,0,0,0,39.12,1.3A106.79,106.79,0,0,0,416,358.57a77,77,0,0,0,24.72-19.37,55.73,55.73,0,0,0,12-24.81,51.65,51.65,0,0,0-2.19-27.14,66.62,66.62,0,0,0-15.7-24.47,94,94,0,0,0-25.22-17.91,118.15,118.15,0,0,0-31.44-10.28,125.73,125.73,0,0,0-34.88-1.35" style="fill:#fff;stroke:#263238;stroke-miterlimit:10"></path><path d="M376.74,353.54a29.53,29.53,0,0,1-9.12-.31,28.21,28.21,0,0,1-8.14-2.88,22.39,22.39,0,0,1-6.25-5,16.17,16.17,0,0,1-3.49-6.52,13.32,13.32,0,0,1,0-6.87,14.69,14.69,0,0,1,3.35-5.95,19.72,19.72,0,0,1,6-4.42,26.08,26.08,0,0,1,8.18-2.31,29.76,29.76,0,0,1,8.86.31,28,28,0,0,1,8,2.76,22.64,22.64,0,0,1,6.23,4.78,16.5,16.5,0,0,1,3.65,6.38,13.29,13.29,0,0,1,.21,6.87,14.48,14.48,0,0,1-3.16,6.07,19.17,19.17,0,0,1-6,4.6,25.49,25.49,0,0,1-8.33,2.45m-5.28-47.72a7.68,7.68,0,0,1-1.44,0,7.54,7.54,0,0,1-1.42-.25,6.59,6.59,0,0,1-1.32-.52,5.7,5.7,0,0,1-1.16-.77,4.5,4.5,0,0,1-1.13-1.47,3.2,3.2,0,0,1-.3-1.59,3.37,3.37,0,0,1,.52-1.53,4.25,4.25,0,0,1,1.33-1.26,4.83,4.83,0,0,1,.59-.32c.21-.1.42-.18.64-.26s.44-.13.67-.18.46-.08.69-.11a7.6,7.6,0,0,1,1.43,0,6.71,6.71,0,0,1,1.41.24,7.12,7.12,0,0,1,1.31.51,5.37,5.37,0,0,1,1.15.77,4.28,4.28,0,0,1,1.14,1.46,3.21,3.21,0,0,1-.19,3.12,4.35,4.35,0,0,1-1.32,1.27,5.76,5.76,0,0,1-.6.33c-.2.09-.42.18-.63.25a5.27,5.27,0,0,1-.68.19c-.22.05-.46.08-.69.11m48.63,19.75c-.92.11-1.86.17-2.81.19a27.88,27.88,0,0,1-2.88-.09c-1-.08-1.94-.2-2.92-.38a27.58,27.58,0,0,1-2.93-.68,27,27,0,0,1-7.81-3.62,20.3,20.3,0,0,1-5.36-5.29,14.44,14.44,0,0,1-2.44-6.21,12.12,12.12,0,0,1,.89-6.44,13.91,13.91,0,0,1,2.49-3.84,16.77,16.77,0,0,1,3.68-3,21.81,21.81,0,0,1,4.58-2.12,26.18,26.18,0,0,1,5.25-1.14c.89-.1,1.81-.16,2.73-.18s1.86,0,2.81.09,1.89.2,2.84.37,1.9.39,2.85.65a27.08,27.08,0,0,1,7.67,3.47,20.67,20.67,0,0,1,5.39,5.12,14.78,14.78,0,0,1,2.64,6.12,12.17,12.17,0,0,1-.66,6.48,13.39,13.39,0,0,1-2.38,3.94,16.55,16.55,0,0,1-3.64,3.14,20.85,20.85,0,0,1-4.63,2.22,26.18,26.18,0,0,1-5.36,1.22m-63-18.16c-.23,0-.47,0-.71,0l-.72,0a6.09,6.09,0,0,1-.73-.1,6.41,6.41,0,0,1-.73-.17,6.29,6.29,0,0,1-1.94-.89A4.83,4.83,0,0,1,351,305a3.45,3.45,0,0,1-.57-1.56,3.06,3.06,0,0,1,.28-1.64,3.61,3.61,0,0,1,.67-1,5,5,0,0,1,1-.78,6.37,6.37,0,0,1,1.21-.55,6.66,6.66,0,0,1,1.37-.29c.23,0,.46,0,.7,0l.72,0a5.93,5.93,0,0,1,.72.1c.25,0,.49.1.73.16a6.86,6.86,0,0,1,1.93.89,4.8,4.8,0,0,1,1.31,1.31,3.48,3.48,0,0,1,.59,1.56,3,3,0,0,1-.27,1.63,3.48,3.48,0,0,1-.66,1,4.37,4.37,0,0,1-1,.78,5.56,5.56,0,0,1-1.21.56,6.91,6.91,0,0,1-1.38.3m-36.35,29.31a30.19,30.19,0,0,1-5.86.11,29.64,29.64,0,0,1-5.73-1,26.54,26.54,0,0,1-5.28-2.14,21.62,21.62,0,0,1-4.5-3.21,16.38,16.38,0,0,1-4.21-6,13.06,13.06,0,0,1-.78-6.48,13.86,13.86,0,0,1,2.48-6.15,18.49,18.49,0,0,1,5.61-5.07,21.55,21.55,0,0,1,2.43-1.27,24.87,24.87,0,0,1,2.57-1,26.37,26.37,0,0,1,2.68-.71,25,25,0,0,1,2.75-.45,29.35,29.35,0,0,1,5.7-.1,29,29,0,0,1,5.58,1,26.09,26.09,0,0,1,5.17,2,22.51,22.51,0,0,1,4.47,3.09,16.6,16.6,0,0,1,4.32,5.88,13.15,13.15,0,0,1,1,6.44,13.78,13.78,0,0,1-2.28,6.24,18,18,0,0,1-5.53,5.24,22.11,22.11,0,0,1-2.44,1.33,24.52,24.52,0,0,1-2.61,1.05c-.9.3-1.81.56-2.74.77s-1.87.36-2.82.48M376,295.8a7.75,7.75,0,0,1-2.21-.08,6.72,6.72,0,0,1-2-.68,5.49,5.49,0,0,1-1.54-1.15,3.87,3.87,0,0,1-.88-1.53,3,3,0,0,1,0-1.62,3.34,3.34,0,0,1,.79-1.42,4.79,4.79,0,0,1,1.47-1.06,6.52,6.52,0,0,1,2-.56h0a7.68,7.68,0,0,1,2.2.08,7,7,0,0,1,2,.67,5.42,5.42,0,0,1,1.54,1.14,4,4,0,0,1,.89,1.52,3.08,3.08,0,0,1,0,1.62,3.24,3.24,0,0,1-.79,1.42,4.72,4.72,0,0,1-1.47,1.08,6.26,6.26,0,0,1-2,.56h0m-28.47,3.11a7.75,7.75,0,0,1-2.21-.08,7.28,7.28,0,0,1-2-.68,5.37,5.37,0,0,1-1.51-1.16,3.79,3.79,0,0,1-.85-1.54,3.11,3.11,0,0,1,0-1.63,3.49,3.49,0,0,1,.84-1.43,5,5,0,0,1,1.51-1.07,6.73,6.73,0,0,1,2-.56h0a7.33,7.33,0,0,1,2.2.08,7,7,0,0,1,2,.67,5.49,5.49,0,0,1,1.51,1.15,3.69,3.69,0,0,1,.85,1.53,3,3,0,0,1,0,1.63,3.56,3.56,0,0,1-.82,1.43,4.86,4.86,0,0,1-1.51,1.08,6.25,6.25,0,0,1-2.06.57h0m18.87-11.45c-.23,0-.46,0-.7.05s-.47,0-.7,0a4.43,4.43,0,0,1-.72-.09,6.2,6.2,0,0,1-.72-.16,6.44,6.44,0,0,1-1.91-.87,4.81,4.81,0,0,1-1.3-1.28,3.33,3.33,0,0,1-.57-1.51,2.94,2.94,0,0,1,.26-1.58,3.41,3.41,0,0,1,.65-.95,4.43,4.43,0,0,1,1-.75,5.05,5.05,0,0,1,1.18-.53,7.07,7.07,0,0,1,1.34-.29c.23,0,.46,0,.69,0s.47,0,.7,0,.48.05.71.09l.71.16a6.58,6.58,0,0,1,1.91.87,4.75,4.75,0,0,1,1.3,1.26,3.37,3.37,0,0,1,.59,1.51,3,3,0,0,1-.24,1.58,3.62,3.62,0,0,1-.65,1,4.8,4.8,0,0,1-.95.76,6.14,6.14,0,0,1-1.19.53,6.61,6.61,0,0,1-1.35.29M352.31,289a7.49,7.49,0,0,1-1.42,0,6.51,6.51,0,0,1-1.4-.24,6.36,6.36,0,0,1-1.3-.5,5.84,5.84,0,0,1-1.13-.75,4.17,4.17,0,0,1-1.1-1.44,3.21,3.21,0,0,1-.27-1.54,3.25,3.25,0,0,1,.54-1.49,4.41,4.41,0,0,1,1.33-1.23,5.65,5.65,0,0,1,.6-.31,5.87,5.87,0,0,1,.63-.24c.22-.07.44-.13.67-.18s.45-.08.68-.11a7.49,7.49,0,0,1,1.42,0,8,8,0,0,1,1.38.24,7,7,0,0,1,1.3.49,6.08,6.08,0,0,1,1.12.75,4.14,4.14,0,0,1,1.1,1.43,3,3,0,0,1,.28,1.54,3.07,3.07,0,0,1-.52,1.49,4.2,4.2,0,0,1-1.33,1.24c-.19.12-.39.22-.59.32s-.42.17-.64.24-.44.13-.66.18a5.5,5.5,0,0,1-.69.11m55-5.48a29.92,29.92,0,0,1-11-.87,26.9,26.9,0,0,1-5.13-2,22.83,22.83,0,0,1-4.47-2.93,16.81,16.81,0,0,1-4.39-5.51,11.91,11.91,0,0,1-1.19-5.91,11.48,11.48,0,0,1,1.93-5.59,15.3,15.3,0,0,1,4.95-4.59,20.12,20.12,0,0,1,2.21-1.15,21.8,21.8,0,0,1,2.37-.9,25.24,25.24,0,0,1,2.49-.65c.84-.17,1.7-.3,2.57-.4a28.51,28.51,0,0,1,5.39-.06,29.23,29.23,0,0,1,5.34.91,27.08,27.08,0,0,1,5,1.88,23.12,23.12,0,0,1,4.43,2.82,17.21,17.21,0,0,1,4.49,5.37,12.17,12.17,0,0,1,1.39,5.87,11.41,11.41,0,0,1-1.73,5.66,15.12,15.12,0,0,1-4.88,4.75,19.8,19.8,0,0,1-2.22,1.21,21,21,0,0,1-2.4.94,23.53,23.53,0,0,1-2.53.68,25.29,25.29,0,0,1-2.63.43m-96.16,10.12q-1.38.15-2.79.18c-.95,0-1.89,0-2.84-.09s-1.91-.2-2.86-.37a28.26,28.26,0,0,1-2.83-.66,24.29,24.29,0,0,1-7.39-3.47,17.35,17.35,0,0,1-4.83-5.06,12.43,12.43,0,0,1-1.86-5.94,11.8,11.8,0,0,1,1.45-6.15,15,15,0,0,1,2.8-3.67,19.38,19.38,0,0,1,3.91-2.88,24.64,24.64,0,0,1,4.72-2,28.35,28.35,0,0,1,5.29-1.08c.89-.09,1.8-.15,2.72-.16s1.84,0,2.76.09,1.86.19,2.78.36,1.85.37,2.76.62a24.83,24.83,0,0,1,7.27,3.33,17.64,17.64,0,0,1,4.88,4.91,12.6,12.6,0,0,1,2.05,5.85,11.75,11.75,0,0,1-1.22,6.19,14.73,14.73,0,0,1-2.71,3.76,18.78,18.78,0,0,1-3.88,3,24.31,24.31,0,0,1-4.78,2.11,27.84,27.84,0,0,1-5.4,1.15m43.14-25.31a29.43,29.43,0,0,1-8.51-.31,27.32,27.32,0,0,1-7.55-2.55,20.38,20.38,0,0,1-5.75-4.34,13.67,13.67,0,0,1-3.16-5.68,10.73,10.73,0,0,1,.15-6,12.69,12.69,0,0,1,3.22-5.15,18.51,18.51,0,0,1,5.72-3.81,25.69,25.69,0,0,1,7.68-2,29.33,29.33,0,0,1,8.29.32,27.09,27.09,0,0,1,7.39,2.44,20.65,20.65,0,0,1,5.74,4.19,13.91,13.91,0,0,1,3.29,5.57,10.83,10.83,0,0,1,.08,6,12.68,12.68,0,0,1-3.06,5.26,18.43,18.43,0,0,1-5.71,4,25.36,25.36,0,0,1-7.82,2.08m-11.24-39.13a110.51,110.51,0,0,0-32.63,8.26,83.85,83.85,0,0,0-25.05,16.35,60.08,60.08,0,0,0-15.06,22.7,50.66,50.66,0,0,0-2,27.19,61,61,0,0,0,12.94,26.73,88.13,88.13,0,0,0,25.54,20.94,116.39,116.39,0,0,0,34.52,12.4,125.53,125.53,0,0,0,39.12,1.3,107.27,107.27,0,0,0,35.38-10.54,77.14,77.14,0,0,0,24.72-19.37,55.78,55.78,0,0,0,12-24.81,51.59,51.59,0,0,0-2.2-27.15,66.51,66.51,0,0,0-15.69-24.46,94,94,0,0,0-25.22-17.91A118.15,118.15,0,0,0,378,230.53a125.35,125.35,0,0,0-34.88-1.35" style="fill:#fff;stroke:#263238;stroke-miterlimit:10"></path></g><g id="freepik--film-roll-1--inject-82"><path d="M320.25,362.13a29.6,29.6,0,0,1-9.11.55,28.21,28.21,0,0,1-8.37-2.12,22.35,22.35,0,0,1-6.69-4.35A16.28,16.28,0,0,1,292,350a13.33,13.33,0,0,1-.6-6.84,14.56,14.56,0,0,1,2.78-6.23,19.63,19.63,0,0,1,5.6-5,25.74,25.74,0,0,1,7.92-3.06,29.22,29.22,0,0,1,8.86-.52,28.36,28.36,0,0,1,8.17,2,22.55,22.55,0,0,1,6.65,4.18,16.67,16.67,0,0,1,4.23,6,13.4,13.4,0,0,1,.85,6.82,14.49,14.49,0,0,1-2.58,6.34,19.33,19.33,0,0,1-5.57,5.14,25.53,25.53,0,0,1-8.06,3.22m-9.71-47a7.69,7.69,0,0,1-2.87.05,8,8,0,0,1-1.37-.39,6.29,6.29,0,0,1-1.22-.67,4.32,4.32,0,0,1-1.26-1.35,3.22,3.22,0,0,1-.45-1.56,3.3,3.3,0,0,1,.38-1.57,4.17,4.17,0,0,1,1.2-1.38c.18-.14.37-.26.56-.38l.61-.31c.21-.09.43-.17.65-.24s.45-.13.68-.18a6.78,6.78,0,0,1,1.42-.15,7.59,7.59,0,0,1,1.43.11,6.94,6.94,0,0,1,1.35.38,6.5,6.5,0,0,1,1.22.66,4.47,4.47,0,0,1,1.27,1.35,3.14,3.14,0,0,1,.09,3.12A4,4,0,0,1,313,314a4.24,4.24,0,0,1-.56.38c-.2.12-.4.22-.61.32s-.43.17-.65.24-.45.13-.68.18m50.26,15.12c-.9.19-1.83.34-2.78.45a27.15,27.15,0,0,1-2.88.18,29.08,29.08,0,0,1-2.94-.1c-1-.09-2-.22-3-.41a26.75,26.75,0,0,1-8.11-2.87,20.54,20.54,0,0,1-5.83-4.76,14.52,14.52,0,0,1-3-6,12.15,12.15,0,0,1,.29-6.48,13.82,13.82,0,0,1,2.12-4.06,16.78,16.78,0,0,1,3.38-3.35,21.28,21.28,0,0,1,4.37-2.54,26.07,26.07,0,0,1,5.11-1.63c.89-.18,1.79-.33,2.71-.43s1.86-.16,2.8-.17,1.9,0,2.86.1,1.94.21,2.9.38a27.19,27.19,0,0,1,8,2.74,20.56,20.56,0,0,1,5.85,4.59,14.88,14.88,0,0,1,3.2,5.85,12.2,12.2,0,0,1-.05,6.51,13.72,13.72,0,0,1-2,4.15,17.26,17.26,0,0,1-3.33,3.46,21.24,21.24,0,0,1-4.41,2.65,26.18,26.18,0,0,1-5.22,1.71M296.41,318c-.23.05-.46.09-.7.12s-.48,0-.72,0a6.1,6.1,0,0,1-.74,0c-.25,0-.49-.06-.74-.1a6.69,6.69,0,0,1-2-.71,5,5,0,0,1-1.43-1.19,3.5,3.5,0,0,1-.71-1.51,3.13,3.13,0,0,1,.12-1.65,3.85,3.85,0,0,1,.58-1.05,4.34,4.34,0,0,1,.9-.86,5.39,5.39,0,0,1,1.15-.66,6.67,6.67,0,0,1,1.33-.43l.7-.11c.24,0,.48,0,.72,0a6,6,0,0,1,.73,0,6.09,6.09,0,0,1,.73.1,6.72,6.72,0,0,1,2,.7,5.1,5.1,0,0,1,1.43,1.18,3.56,3.56,0,0,1,.73,1.5,3.12,3.12,0,0,1-.11,1.65,3.57,3.57,0,0,1-.57,1.05,4.64,4.64,0,0,1-.89.88,6.27,6.27,0,0,1-1.16.67,7.22,7.22,0,0,1-1.34.42M263,350.61a30,30,0,0,1-5.82.66,28.7,28.7,0,0,1-5.8-.49,26.3,26.3,0,0,1-5.46-1.63,21.74,21.74,0,0,1-4.77-2.78,16.32,16.32,0,0,1-4.76-5.63,13,13,0,0,1-1.39-6.38,13.93,13.93,0,0,1,1.9-6.36,18.63,18.63,0,0,1,5.11-5.57,23.82,23.82,0,0,1,2.3-1.49,24.62,24.62,0,0,1,2.47-1.22,25.23,25.23,0,0,1,2.6-1,26.71,26.71,0,0,1,2.7-.7,29.91,29.91,0,0,1,5.66-.63,28.8,28.8,0,0,1,5.65.46,26,26,0,0,1,5.34,1.54,22.54,22.54,0,0,1,4.73,2.65,16.78,16.78,0,0,1,4.86,5.46,13.17,13.17,0,0,1,1.61,6.32,13.67,13.67,0,0,1-1.68,6.42,18.1,18.1,0,0,1-5,5.73,20.31,20.31,0,0,1-2.31,1.56,24.56,24.56,0,0,1-2.5,1.29,27.28,27.28,0,0,1-2.65,1,26.32,26.32,0,0,1-2.77.75m51.18-45.9a7.51,7.51,0,0,1-2.21.12,7,7,0,0,1-2-.48,5.6,5.6,0,0,1-1.64-1,3.77,3.77,0,0,1-1-1.44,3,3,0,0,1-.17-1.61,3.36,3.36,0,0,1,.65-1.49,4.85,4.85,0,0,1,1.37-1.19,6.38,6.38,0,0,1,1.95-.74h0a7.32,7.32,0,0,1,4.21.35,5.43,5.43,0,0,1,1.63,1,3.76,3.76,0,0,1,1,1.43,2.92,2.92,0,0,1,.19,1.61,3.34,3.34,0,0,1-.64,1.49A4.9,4.9,0,0,1,316.1,304a6.61,6.61,0,0,1-2,.75h0m-28.05,5.75a7.52,7.52,0,0,1-2.21.13,7.36,7.36,0,0,1-2-.49,5.39,5.39,0,0,1-1.61-1,3.53,3.53,0,0,1-1-1.45,3,3,0,0,1-.15-1.63,3.49,3.49,0,0,1,.7-1.5,4.85,4.85,0,0,1,1.4-1.2,6.54,6.54,0,0,1,2-.75h0a7.38,7.38,0,0,1,2.19-.12,6.88,6.88,0,0,1,2,.48,5.63,5.63,0,0,1,1.62,1,3.8,3.8,0,0,1,1,1.44,3.07,3.07,0,0,1,.16,1.63,3.47,3.47,0,0,1-.69,1.5,4.93,4.93,0,0,1-1.4,1.22,6.54,6.54,0,0,1-2,.75h0m17.71-13.16a5.07,5.07,0,0,1-.68.11c-.24,0-.47,0-.71,0l-.72,0c-.25,0-.49-.05-.73-.09a6.41,6.41,0,0,1-2-.69,4.77,4.77,0,0,1-1.41-1.15,3.28,3.28,0,0,1-.71-1.45,2.93,2.93,0,0,1,.11-1.6,3.71,3.71,0,0,1,.56-1,4.69,4.69,0,0,1,.88-.84,5.88,5.88,0,0,1,1.13-.63,6.25,6.25,0,0,1,1.31-.41c.22-.05.45-.08.68-.11s.47,0,.7,0a5.77,5.77,0,0,1,.72,0,5.93,5.93,0,0,1,.72.1,6.51,6.51,0,0,1,2,.67,5.09,5.09,0,0,1,1.42,1.14,3.41,3.41,0,0,1,.72,1.45,2.9,2.9,0,0,1-.1,1.59,3.36,3.36,0,0,1-.55,1,4.45,4.45,0,0,1-.88.85,5.62,5.62,0,0,1-1.13.64,6.16,6.16,0,0,1-1.32.41m-13.89,2.83a7.53,7.53,0,0,1-1.42.16,7.38,7.38,0,0,1-1.41-.11,6.47,6.47,0,0,1-1.34-.38,5.75,5.75,0,0,1-1.2-.64,4.12,4.12,0,0,1-1.22-1.33,3.11,3.11,0,0,1-.42-1.52,3.26,3.26,0,0,1,.4-1.52,4.24,4.24,0,0,1,1.21-1.35c.18-.13.37-.25.56-.37s.4-.21.61-.3.43-.17.65-.24.45-.12.67-.17a7.66,7.66,0,0,1,2.81,0,6.82,6.82,0,0,1,1.34.37,5.6,5.6,0,0,1,1.18.64,4.14,4.14,0,0,1,1.24,1.31,3.25,3.25,0,0,1,.42,1.52,3,3,0,0,1-.39,1.53,4.21,4.21,0,0,1-1.2,1.36c-.18.13-.37.25-.56.37s-.4.21-.61.3-.43.17-.65.24a5.06,5.06,0,0,1-.67.17m54.27-10.59a29.58,29.58,0,0,1-5.49.6,30.27,30.27,0,0,1-5.55-.44,27.69,27.69,0,0,1-5.3-1.47,23.38,23.38,0,0,1-4.72-2.5,16.61,16.61,0,0,1-4.89-5.08,11.85,11.85,0,0,1-1.73-5.77,11.29,11.29,0,0,1,1.4-5.74,15.36,15.36,0,0,1,4.5-5.05,19.64,19.64,0,0,1,2.09-1.35,22.7,22.7,0,0,1,2.27-1.11c.78-.33,1.59-.62,2.42-.88s1.67-.46,2.52-.63a28.18,28.18,0,0,1,5.36-.57,29.68,29.68,0,0,1,5.41.41,26.76,26.76,0,0,1,5.18,1.4,23.36,23.36,0,0,1,4.67,2.39,17.16,17.16,0,0,1,5,4.93,12.09,12.09,0,0,1,1.93,5.71,11.26,11.26,0,0,1-1.19,5.8,15,15,0,0,1-4.41,5.19,20.25,20.25,0,0,1-2.1,1.41,24.72,24.72,0,0,1-2.3,1.16,24,24,0,0,1-2.46.92c-.84.26-1.7.49-2.58.67m-94.79,19c-.91.19-1.83.34-2.76.44s-1.89.16-2.84.18-1.91,0-2.87-.1a27.68,27.68,0,0,1-2.88-.39,24.55,24.55,0,0,1-7.69-2.77,17.36,17.36,0,0,1-5.28-4.59,12.47,12.47,0,0,1-2.41-5.74,11.81,11.81,0,0,1,.87-6.26,14.9,14.9,0,0,1,2.45-3.91,19.42,19.42,0,0,1,3.62-3.23,24.06,24.06,0,0,1,4.51-2.44,27.43,27.43,0,0,1,5.17-1.57c.88-.18,1.78-.32,2.69-.42s1.83-.15,2.76-.17,1.86,0,2.8.1,1.87.2,2.81.37a24.56,24.56,0,0,1,7.55,2.63,17.56,17.56,0,0,1,5.31,4.43,12.56,12.56,0,0,1,2.59,5.64,11.69,11.69,0,0,1-.64,6.27,14.52,14.52,0,0,1-2.34,4,18.79,18.79,0,0,1-3.59,3.34,23.67,23.67,0,0,1-4.56,2.56,28.11,28.11,0,0,1-5.27,1.64M290,279.37a29.86,29.86,0,0,1-8.5.48,27.62,27.62,0,0,1-7.76-1.83,20.29,20.29,0,0,1-6.13-3.79,13.49,13.49,0,0,1-3.67-5.36,10.82,10.82,0,0,1-.42-6,12.75,12.75,0,0,1,2.73-5.43,18.57,18.57,0,0,1,5.34-4.33,25.52,25.52,0,0,1,7.46-2.68,29.41,29.41,0,0,1,8.28-.46,27.32,27.32,0,0,1,7.59,1.74,20.71,20.71,0,0,1,6.1,3.64,13.79,13.79,0,0,1,3.8,5.24,10.8,10.8,0,0,1,.64,5.93,12.59,12.59,0,0,1-2.56,5.52,18.18,18.18,0,0,1-5.31,4.49,25.48,25.48,0,0,1-7.59,2.8m-14.85-37.92a110.63,110.63,0,0,0-31.71,11.28A83.68,83.68,0,0,0,220,271.35a60.05,60.05,0,0,0-12.87,24,50.65,50.65,0,0,0,.51,27.25A60.85,60.85,0,0,0,223,348a88.07,88.07,0,0,0,27.38,18.46,116.08,116.08,0,0,0,35.53,9.12A125.3,125.3,0,0,0,325,373.24a106.79,106.79,0,0,0,34.24-13.8A77.15,77.15,0,0,0,382,337.85,55.71,55.71,0,0,0,391.65,312a51.61,51.61,0,0,0-4.72-26.83A66.59,66.59,0,0,0,369,262.32a93.62,93.62,0,0,0-26.78-15.48,118.58,118.58,0,0,0-32.26-7.3,125.88,125.88,0,0,0-34.86,1.91" style="fill:#fff;stroke:#263238;stroke-miterlimit:10"></path><path d="M319.7,358.1a29.6,29.6,0,0,1-9.11.55,28.21,28.21,0,0,1-8.37-2.12,22.35,22.35,0,0,1-6.69-4.35,16.28,16.28,0,0,1-4.08-6.17,13.33,13.33,0,0,1-.6-6.84,14.56,14.56,0,0,1,2.78-6.23,19.63,19.63,0,0,1,5.6-5,25.74,25.74,0,0,1,7.92-3.06,29.22,29.22,0,0,1,8.86-.52,28.36,28.36,0,0,1,8.17,2,22.55,22.55,0,0,1,6.65,4.18,16.67,16.67,0,0,1,4.23,6,13.4,13.4,0,0,1,.85,6.82,14.49,14.49,0,0,1-2.58,6.34,19.33,19.33,0,0,1-5.57,5.14,25.53,25.53,0,0,1-8.06,3.22m-9.71-47a7.69,7.69,0,0,1-2.87.05,8,8,0,0,1-1.37-.39,6.29,6.29,0,0,1-1.22-.67,4.32,4.32,0,0,1-1.26-1.35,3.22,3.22,0,0,1-.45-1.56,3.3,3.3,0,0,1,.38-1.57,4.17,4.17,0,0,1,1.2-1.38c.18-.14.37-.26.56-.38l.61-.31c.21-.09.43-.17.65-.24s.45-.13.68-.18a6.78,6.78,0,0,1,1.42-.15,7.59,7.59,0,0,1,1.43.11,6.74,6.74,0,0,1,1.35.38,6.5,6.5,0,0,1,1.22.66,4.47,4.47,0,0,1,1.27,1.35,3.14,3.14,0,0,1,.09,3.12,4,4,0,0,1-1.19,1.39,4.24,4.24,0,0,1-.56.38c-.2.12-.4.22-.61.32s-.43.17-.65.24-.45.13-.68.18m50.26,15.12a29.08,29.08,0,0,1-5.66.63,29.08,29.08,0,0,1-2.94-.1c-1-.09-2-.22-3-.41a26.75,26.75,0,0,1-8.11-2.87,20.54,20.54,0,0,1-5.83-4.76,14.54,14.54,0,0,1-3-6,12.18,12.18,0,0,1,.29-6.49,13.82,13.82,0,0,1,2.12-4.06,16.78,16.78,0,0,1,3.38-3.35,21.28,21.28,0,0,1,4.37-2.54,26.07,26.07,0,0,1,5.11-1.63c.89-.18,1.79-.33,2.71-.43s1.86-.16,2.8-.17,1.9,0,2.86.1,1.94.21,2.91.38a27.23,27.23,0,0,1,7.95,2.74,20.42,20.42,0,0,1,5.85,4.59,14.88,14.88,0,0,1,3.2,5.85,12.2,12.2,0,0,1-.05,6.51,13.72,13.72,0,0,1-2,4.15,17.26,17.26,0,0,1-3.33,3.46,21.24,21.24,0,0,1-4.41,2.65,26.18,26.18,0,0,1-5.22,1.71M295.86,314c-.23.05-.46.09-.7.12s-.48,0-.72,0a6.1,6.1,0,0,1-.74,0c-.25,0-.49-.06-.74-.1a6.69,6.69,0,0,1-2-.71,5,5,0,0,1-1.43-1.19,3.5,3.5,0,0,1-.71-1.51,3.13,3.13,0,0,1,.12-1.65,3.85,3.85,0,0,1,.58-1.05,4.34,4.34,0,0,1,.9-.86,5.39,5.39,0,0,1,1.15-.66,6.67,6.67,0,0,1,1.33-.43l.7-.11c.24,0,.48,0,.72,0a6,6,0,0,1,.73,0,6.09,6.09,0,0,1,.73.1,6.72,6.72,0,0,1,2,.7,5.1,5.1,0,0,1,1.43,1.18,3.56,3.56,0,0,1,.73,1.5,3.12,3.12,0,0,1-.11,1.65,3.57,3.57,0,0,1-.57,1,4.64,4.64,0,0,1-.89.88,6.27,6.27,0,0,1-1.16.67,7.22,7.22,0,0,1-1.34.42M262.4,346.58a30,30,0,0,1-5.82.66,28.7,28.7,0,0,1-5.8-.49,26.3,26.3,0,0,1-5.46-1.63,21.74,21.74,0,0,1-4.77-2.78,16.32,16.32,0,0,1-4.76-5.63,13,13,0,0,1-1.39-6.38,13.86,13.86,0,0,1,1.9-6.35,18.54,18.54,0,0,1,5.11-5.58,23.82,23.82,0,0,1,2.3-1.49,24.62,24.62,0,0,1,2.47-1.22,25.23,25.23,0,0,1,2.6-1,26.71,26.71,0,0,1,2.7-.7,29.91,29.91,0,0,1,5.66-.63,28.8,28.8,0,0,1,5.65.46,26,26,0,0,1,5.34,1.54,22.54,22.54,0,0,1,4.73,2.65,16.78,16.78,0,0,1,4.86,5.46,13.17,13.17,0,0,1,1.61,6.32,13.67,13.67,0,0,1-1.68,6.42,18.1,18.1,0,0,1-5,5.73,20.31,20.31,0,0,1-2.31,1.56,24.56,24.56,0,0,1-2.5,1.29,27.28,27.28,0,0,1-2.65,1,26.32,26.32,0,0,1-2.77.75m51.18-45.9a7.51,7.51,0,0,1-2.21.12,7,7,0,0,1-2-.48,5.6,5.6,0,0,1-1.64-1,3.77,3.77,0,0,1-1-1.44,3,3,0,0,1-.17-1.61,3.36,3.36,0,0,1,.65-1.49,4.85,4.85,0,0,1,1.37-1.19,6.38,6.38,0,0,1,2-.74h0a7.38,7.38,0,0,1,2.19-.13,7,7,0,0,1,2,.48,5.43,5.43,0,0,1,1.63,1,3.76,3.76,0,0,1,1,1.43,2.92,2.92,0,0,1,.19,1.61,3.34,3.34,0,0,1-.64,1.49,4.9,4.9,0,0,1-1.37,1.21,6.61,6.61,0,0,1-2,.75h0m-28.05,5.75a7.52,7.52,0,0,1-2.21.13,7.36,7.36,0,0,1-2-.49,5.52,5.52,0,0,1-1.61-1,3.73,3.73,0,0,1-1-1.45,3.05,3.05,0,0,1-.15-1.63,3.49,3.49,0,0,1,.7-1.5,5,5,0,0,1,1.4-1.2,6.54,6.54,0,0,1,2-.75h0a7.38,7.38,0,0,1,2.19-.12,6.88,6.88,0,0,1,2,.48,5.63,5.63,0,0,1,1.62,1,3.8,3.8,0,0,1,1,1.44,3.07,3.07,0,0,1,.16,1.63,3.47,3.47,0,0,1-.69,1.5,4.93,4.93,0,0,1-1.4,1.22,6.54,6.54,0,0,1-2,.75h0m17.71-13.16a5.07,5.07,0,0,1-.68.11c-.24,0-.47,0-.71.05s-.48,0-.72,0a5.82,5.82,0,0,1-.73-.09,6.41,6.41,0,0,1-2-.69,4.77,4.77,0,0,1-1.41-1.15,3.28,3.28,0,0,1-.71-1.45,2.93,2.93,0,0,1,.11-1.6,3.71,3.71,0,0,1,.56-1,4.69,4.69,0,0,1,.88-.84,5.88,5.88,0,0,1,1.13-.63,6.25,6.25,0,0,1,1.31-.41c.22,0,.45-.08.68-.11s.47,0,.7,0a5.77,5.77,0,0,1,.72,0,5.93,5.93,0,0,1,.72.1,6.26,6.26,0,0,1,2,.68,5.06,5.06,0,0,1,1.42,1.13,3.41,3.41,0,0,1,.72,1.45,2.9,2.9,0,0,1-.1,1.59,3.36,3.36,0,0,1-.55,1,4.45,4.45,0,0,1-.88.85,5.62,5.62,0,0,1-1.13.64,6.16,6.16,0,0,1-1.32.41m-13.89,2.83a7.49,7.49,0,0,1-2.83,0,6.47,6.47,0,0,1-1.34-.38,5.75,5.75,0,0,1-1.2-.64,4.12,4.12,0,0,1-1.22-1.33,3.11,3.11,0,0,1-.42-1.52,3.26,3.26,0,0,1,.4-1.52,4.24,4.24,0,0,1,1.21-1.35c.18-.13.37-.25.56-.37s.4-.21.61-.3.43-.17.65-.24.45-.12.67-.17a7.42,7.42,0,0,1,1.41-.15,7.28,7.28,0,0,1,1.4.11,6.82,6.82,0,0,1,1.34.37,5.6,5.6,0,0,1,1.18.64,4.14,4.14,0,0,1,1.24,1.31,3.25,3.25,0,0,1,.42,1.52,3,3,0,0,1-.39,1.53,4.21,4.21,0,0,1-1.2,1.36c-.18.13-.37.25-.56.37s-.4.21-.61.3-.43.17-.65.24a5.06,5.06,0,0,1-.67.17m54.27-10.59a29.58,29.58,0,0,1-5.49.6,30.27,30.27,0,0,1-5.55-.44,27.69,27.69,0,0,1-5.3-1.47,23.38,23.38,0,0,1-4.72-2.5,16.61,16.61,0,0,1-4.89-5.08,11.85,11.85,0,0,1-1.73-5.77,11.29,11.29,0,0,1,1.4-5.74,15.24,15.24,0,0,1,4.5-5,19.71,19.71,0,0,1,2.09-1.36,22.7,22.7,0,0,1,2.27-1.11,26.83,26.83,0,0,1,4.94-1.51,28.18,28.18,0,0,1,5.36-.57,29.68,29.68,0,0,1,5.41.41,27.5,27.5,0,0,1,5.18,1.4,23.36,23.36,0,0,1,4.67,2.39,17.16,17.16,0,0,1,5,4.93,12,12,0,0,1,1.93,5.71,11.26,11.26,0,0,1-1.19,5.8,15,15,0,0,1-4.41,5.19,20.25,20.25,0,0,1-2.1,1.41,24.72,24.72,0,0,1-2.3,1.16,24,24,0,0,1-2.46.92c-.84.26-1.7.49-2.58.67m-94.79,19.05c-.91.19-1.83.34-2.76.44s-1.89.16-2.84.18-1.91,0-2.87-.1a27.68,27.68,0,0,1-2.88-.39,24.55,24.55,0,0,1-7.69-2.77,17.36,17.36,0,0,1-5.28-4.59,12.47,12.47,0,0,1-2.41-5.74,11.81,11.81,0,0,1,.87-6.26,14.9,14.9,0,0,1,2.45-3.91,19.42,19.42,0,0,1,3.62-3.23,24.06,24.06,0,0,1,4.51-2.44,27.43,27.43,0,0,1,5.17-1.57c.88-.18,1.78-.32,2.69-.42s1.83-.15,2.76-.16a26.28,26.28,0,0,1,2.8.09c.94.08,1.87.2,2.81.37a24.56,24.56,0,0,1,7.55,2.63,17.56,17.56,0,0,1,5.31,4.43,12.56,12.56,0,0,1,2.59,5.64,11.69,11.69,0,0,1-.64,6.27,14.52,14.52,0,0,1-2.34,4,18.5,18.5,0,0,1-3.59,3.34,23.67,23.67,0,0,1-4.56,2.56,27.89,27.89,0,0,1-5.27,1.64m40.59-29.22a29.86,29.86,0,0,1-8.5.48,27.62,27.62,0,0,1-7.76-1.83A20.29,20.29,0,0,1,267,270.2a13.49,13.49,0,0,1-3.67-5.36,10.82,10.82,0,0,1-.42-6,12.75,12.75,0,0,1,2.73-5.43,18.57,18.57,0,0,1,5.34-4.33,25.81,25.81,0,0,1,7.46-2.68,29.79,29.79,0,0,1,8.28-.46,27.32,27.32,0,0,1,7.59,1.74,20.71,20.71,0,0,1,6.1,3.64,13.93,13.93,0,0,1,3.81,5.24,10.79,10.79,0,0,1,.63,5.93,12.59,12.59,0,0,1-2.56,5.52,18.18,18.18,0,0,1-5.31,4.49,25.38,25.38,0,0,1-7.59,2.8m-14.85-37.92a110.93,110.93,0,0,0-31.71,11.28,83.49,83.49,0,0,0-23.41,18.62,60,60,0,0,0-12.88,24,50.65,50.65,0,0,0,.51,27.25A60.85,60.85,0,0,0,222.46,344a88.07,88.07,0,0,0,27.38,18.46,116.08,116.08,0,0,0,35.53,9.12,125,125,0,0,0,39.07-2.36,107,107,0,0,0,34.24-13.79,77.3,77.3,0,0,0,22.81-21.6A55.6,55.6,0,0,0,391.1,308a51.56,51.56,0,0,0-4.72-26.82,66.53,66.53,0,0,0-17.91-22.89,93.62,93.62,0,0,0-26.78-15.48,118.58,118.58,0,0,0-32.26-7.3,125.88,125.88,0,0,0-34.86,1.91" style="fill:#d9d9d9;stroke:#263238;stroke-miterlimit:10"></path><path d="M231.94,274.52a84.2,84.2,0,0,1,16.77-4.94,124.21,124.21,0,0,1,31.77-1.69L277.66,288a124.21,124.21,0,0,0-31.77,1.69,84.39,84.39,0,0,0-16.77,4.94l2.82-20.09" style="fill:#525252"></path><path d="M200,327.43a38.49,38.49,0,0,1,2.33-7.7A42.15,42.15,0,0,1,211,306.6a52.7,52.7,0,0,1,15.69-10.9l2.82-20.09a52.52,52.52,0,0,0-15.69,10.9,42.22,42.22,0,0,0-8.68,13.12,38.49,38.49,0,0,0-2.33,7.7L200,327.43" style="fill:#525252"></path><path d="M273.49,292.73c1,0,1.8.09,2.38.14l.5-3.55c-.59,0-1.39-.1-2.38-.14l-.5,3.55" style="fill:#fff"></path><path d="M262.8,292.7c1.77-.07,3.42-.1,4.93-.1l.5-3.55c-1.51,0-3.17,0-4.94.1l-.49,3.55" style="fill:#fff"></path><path d="M247.68,294.2c2.17-.36,4.29-.64,6.35-.86l.49-3.55c-2.05.22-4.18.5-6.34.86l-.5,3.55" style="fill:#fff"></path><path d="M238.16,296.26c1.13-.31,2.24-.59,3.34-.84l.5-3.55c-1.1.26-2.21.53-3.34.84l-.5,3.55" style="fill:#fff"></path><path d="M229.53,299.13c1.14-.46,2.3-.88,3.45-1.28l.49-3.55c-1.15.4-2.3.82-3.45,1.28l-.49,3.55" style="fill:#fff"></path><path d="M221,303.26c1.1-.64,2.22-1.24,3.34-1.81l.5-3.55c-1.13.57-2.24,1.17-3.34,1.81l-.5,3.55" style="fill:#fff"></path><path d="M213.12,308.88q1.47-1.29,3-2.43l.5-3.55q-1.56,1.16-3,2.43l-.5,3.55" style="fill:#fff"></path><path d="M207.28,315c.62-.79,1.27-1.56,1.94-2.3l.5-3.55c-.67.74-1.32,1.51-1.94,2.3l-.5,3.55" style="fill:#fff"></path><path d="M277.21,266.16l2.39.14.49-3.55-2.38-.14-.5,3.55" style="fill:#fff"></path><path d="M266.52,266.13c1.77-.06,3.43-.09,4.93-.09l.5-3.55c-1.51,0-3.16,0-4.93.1l-.5,3.54" style="fill:#fff"></path><path d="M251.41,267.64c2.16-.36,4.29-.65,6.34-.87l.5-3.55c-2.05.23-4.18.51-6.35.87l-.49,3.55" style="fill:#fff"></path><path d="M241.89,269.69c1.13-.3,2.24-.58,3.34-.83l.5-3.55c-1.1.25-2.22.53-3.34.84l-.5,3.54" style="fill:#fff"></path><path d="M233.25,272.57c1.15-.46,2.3-.89,3.45-1.28l.5-3.55c-1.15.39-2.3.82-3.45,1.28l-.5,3.55" style="fill:#fff"></path><path d="M224.74,276.7c1.1-.65,2.21-1.25,3.34-1.81l.5-3.55c-1.13.56-2.25,1.17-3.35,1.81l-.49,3.55" style="fill:#fff"></path><path d="M216.85,282.31q1.47-1.28,3-2.43l.5-3.54c-1,.76-2,1.57-3,2.43l-.49,3.54" style="fill:#fff"></path><path d="M211,288.44c.62-.8,1.27-1.57,1.93-2.3l.5-3.55c-.67.74-1.31,1.5-1.93,2.3l-.5,3.55" style="fill:#fff"></path><path d="M206.79,295c.49-.94,1-1.86,1.55-2.74l.5-3.55c-.55.88-1.07,1.8-1.55,2.74l-.5,3.55" style="fill:#fff"></path><path d="M203.77,302.54c.29-1,.62-2,1-3l.49-3.55c-.38,1-.71,2-1,3l-.5,3.54" style="fill:#fff"></path><path d="M203.16,304.26c0-.22.06-.44.1-.65l-.5,3.54c0,.22-.07.44-.1.65l.5-3.54" style="fill:#fff"></path><path d="M201.39,310.61c-.07.84-.11,1.68-.12,2.53l.48-3.41c0-.84.05-1.68.12-2.53l-.48,3.41" style="fill:#fff"></path><path d="M215.88,362.06c3,7.51,5,14.49,4.07,20.83l-2.71,19.29c.89-6.34-1.08-13.32-4.07-20.83l2.71-19.29" style="fill:gray"></path><path d="M200.29,348.63c2,7.86,5.41,15.48,8.58,22.67,1.23,2.77,2.43,5.49,3.53,8.14l2.7-19.29c-1.09-2.65-2.29-5.37-3.52-8.14-3.18-7.19-6.54-14.81-8.59-22.67l-2.7,19.29" style="fill:gray"></path><path d="M118.94,318.22c7.8,1.9,14.36,5.93,18.62,11.75,3.4,4.65,4,9.55,3.29,14.65L138,364.72c.71-5.11.11-10-3.29-14.66-4.26-5.82-10.81-9.85-18.62-11.74l2.82-20.1" style="fill:#525252"></path><path d="M67.71,351.28a60.21,60.21,0,0,1,28.75-13.42,49.94,49.94,0,0,1,16.75-.14L116,317.63a49.93,49.93,0,0,0-16.75.13,60.3,60.3,0,0,0-28.75,13.42l-2.82,20.1" style="fill:#525252"></path><path d="M48.71,381a61.09,61.09,0,0,1,7.81-17.15,59.52,59.52,0,0,1,6.87-8.53c.76-.79,1.55-1.56,2.36-2.3l2.81-20.1c-.8.75-1.59,1.52-2.36,2.31a59.59,59.59,0,0,0-6.86,8.53,61,61,0,0,0-7.81,17.15L48.71,381" style="fill:#525252"></path><polygon points="199.23 332.25 199.43 330.82 199.43 330.82 199.23 332.25" style="fill:#263238"></polygon><polygon points="198.75 328.87 198.75 328.87 200.11 319.22 198.75 328.87" style="fill:#263238"></polygon><polygon points="139.02 364.44 141.73 345.15 141.73 345.15 139.02 364.44 139.02 364.44" style="fill:#263238"></polygon><path d="M131.1,393.29l-.48,3.4v.05l.47-3.41Z" style="fill:#263238"></path><polygon points="131.56 383.17 130.29 392.23 130.29 392.23 131.56 383.17" style="fill:#263238"></polygon><polygon points="220.94 382.64 220.94 382.64 219.72 391.38 220.94 382.64" style="fill:#263238"></polygon><polygon points="219.16 388.49 219.16 388.49 218.72 391.62 219.16 388.49" style="fill:#263238"></polygon><polygon points="140.51 346.99 140.51 346.99 140.53 346.87 140.51 346.99" style="fill:#263238"></polygon><polygon points="218.72 391.62 217.24 402.18 217.24 402.18 218.72 391.62" style="fill:#263238"></polygon><path d="M249.38,262c-11.46,2.18-25.48,6.91-35.41,17.15a42.93,42.93,0,0,0-8.79,13.3,41.28,41.28,0,0,0-3,18.68l-.06.39a43.74,43.74,0,0,1,.29-8.85l-2.32,16.58,1.35-9.64a49.18,49.18,0,0,0-.29,8.87l-1.74,12.37c0-.22.06-.43.1-.65l-.5,3.55c0,.21-.06.43-.1.64l.3-2.12-.3,2.13-.28,2a39.27,39.27,0,0,1,2.66-9.66c.24-.56.48-1.1.74-1.64.15.8.31,1.63.51,2.52l-2.71,19.29a50.42,50.42,0,0,1-1.1-18l-1,6.94c-2.08,14.82,4.33,29.34,10.12,42.43,1.68,3.8,3.31,7.49,4.69,11.07-.3.24-.6.48-.92.71-14.08,10.5-27.6,14.94-40.19,13.2-11.94-1.65-22.83-8.75-32.38-21.1a21.41,21.41,0,0,1-2.54-4.19,46.22,46.22,0,0,0,1.49-6.55l1-6.94a63.54,63.54,0,0,1-3.17,11.71,19.31,19.31,0,0,1-.6-2.1l1.51-10.72a21.72,21.72,0,0,1,.29,8.36l2.25-16L138,364.72a23.07,23.07,0,0,0,.06-6.53c.5-1.43,1-2.85,1.45-4.26a51.93,51.93,0,0,0,2.19-8.78l1-6.94c0,.17-.06.34-.08.5.93-5.54.46-10.87-3.25-15.95-7.76-10.6-22.86-15.43-39.42-12.6a61.15,61.15,0,0,0-33.57,17.71,59.36,59.36,0,0,0-6.92,8.6C54,344.66,48.72,357.34,49,374.78l0,.12a75.59,75.59,0,0,1,.7-11.76L45,396.31c-1.4,9.95-.93,22,3,36.24L48,433l.92-.06,4.77-34a103.05,103.05,0,0,1-3.36-18.2,59.93,59.93,0,0,1,45.21-35.86c16.09-2.76,30.76,1.92,38.27,12.2a19,19,0,0,1,1.54,2.48,43.92,43.92,0,0,0-1.25,6c0-.1,0-.2,0-.3l-2.53,18,1.55-11a25.74,25.74,0,0,0-.06,7.28L131.29,392h0l1.76-12.54a19.48,19.48,0,0,0,.65,3,55.21,55.21,0,0,0-2.41,9.57l-1,6.94a75.1,75.1,0,0,1,3.9-13.9l.21-.59a20.38,20.38,0,0,0,1.83,3.43l-2.82,20.1c-3.34-5.09-3.89-10.38-3.14-15.71l-1,7c-.82,5.85-.08,11.65,4.21,17.2,9.7,12.56,20.83,19.79,33.09,21.49,12.92,1.78,26.72-2.71,41-13.36a30,30,0,0,0,3.7-3.24,20.28,20.28,0,0,0,5.84-11.59l2.57-18.32-1.6,11.35a21.06,21.06,0,0,1-.69,3.15l2.81-20.09a19.91,19.91,0,0,0,.7-3.15l1-7c0,.07,0,.14,0,.22,1.4-9.26-3.26-19.82-8.37-31.38-3.37-7.62-6.94-15.72-8.92-24.07a42.3,42.3,0,0,1,5.4-6.87c9.79-10.1,23.62-14.78,34.92-16.93A124.22,124.22,0,0,1,276.68,295l1-7a124.21,124.21,0,0,0-31.77,1.69,84.39,84.39,0,0,0-16.77,4.94l2.82-20.09a84.2,84.2,0,0,1,16.77-4.94,124.21,124.21,0,0,1,31.77-1.69l-1.3,9.28,2.28-16.25,0-.64A124.8,124.8,0,0,0,249.38,262Zm-48,48.64.48-3.41c-.07.85-.11,1.69-.12,2.53l-.48,3.41C201.28,312.29,201.32,311.45,201.39,310.61Zm.45,3-.47,3.41a.38.38,0,0,1,0-.1l.47-3.41A.34.34,0,0,1,201.84,313.63Zm-.66,5.07c.07,1,.18,2,.33,3.07a36.93,36.93,0,0,0-1.55,5.66Zm-.13,7.37c-.38,1-.72,2-1,3l.49-3.55c.29-1,.63-2,1-3Zm.53-6.63c-.08-.73-.14-1.45-.19-2.18l.47-3.41c0,.73.12,1.46.2,2.18Zm-3.77,16.67.48-3.4q-.09,1.26-.12,2.52l-.48,3.41C197.71,337.8,197.75,337,197.81,336.11Zm.19,8.83c-.09-.83-.17-1.67-.22-2.5l.48-3.41c.05.84.13,1.67.22,2.5Zm1.07,6.23c-.18-.82-.35-1.65-.5-2.47l.47-3.41c.16.83.33,1.65.51,2.47Zm-62,10.18,0-.2c.24-.71.49-1.41.74-2.12.07.44.14.88.18,1.32l-.49,3.54A18.55,18.55,0,0,0,137,361.35Zm.08-1.18.37-2.61c.06.23.1.46.15.69l-.09.67C137.39,359.34,137.25,359.75,137.11,360.17Zm.72,6-.5,3.55c.07-.49.13-1,.17-1.47l.5-3.55C138,365.16,137.9,365.65,137.83,366.14Zm0-9.33c0-.16-.06-.31-.1-.46l.28-.84Zm1.88-4.21c-.27.84-.56,1.69-.85,2.53l.47-3.4c.3-.85.58-1.69.86-2.53Zm1.75-6.24c-.18.81-.39,1.64-.61,2.46l.48-3.4c.22-.83.43-1.65.6-2.47Zm-1,.63h0c-.52,1.6-1.08,3.21-1.65,4.84q-.68,1.92-1.32,3.84l0-.13c.46-1.39.94-2.77,1.42-4.14.57-1.62,1.13-3.23,1.65-4.83l0,.3,0-.3a56,56,0,0,0,2-7.61A54.19,54.19,0,0,1,140.51,347Zm1.15-8.33-.06.29.12-.84C141.71,338.29,141.68,338.48,141.66,338.66ZM141.2,331a18,18,0,0,1,.51,2.79l-.5,3.55a17.77,17.77,0,0,0-.51-2.79Zm-3.54-6.87.61.8a19.72,19.72,0,0,1,1.24,1.94L139,330.4a19.73,19.73,0,0,0-1.25-1.93c-.2-.27-.4-.54-.61-.8Zm-6.85-6.21a31.57,31.57,0,0,1,3,2.22l-.5,3.55a29.93,29.93,0,0,0-3-2.22ZM122,313.83a36,36,0,0,1,3.7,1.35l-.5,3.55c-1.19-.51-2.42-1-3.69-1.36ZM111.7,312c1.44.08,2.86.22,4.24.43l-.49,3.55c-1.39-.21-2.8-.35-4.24-.44Zm-11.28.62c1.54-.25,3.07-.43,4.58-.55l-.5,3.55c-1.51.12-3,.3-4.58.55Zm-9,2.22c1.16-.38,2.33-.73,3.51-1l-.5,3.55c-1.18.31-2.35.65-3.51,1Zm-8.45,3.51c1.08-.55,2.18-1.07,3.29-1.55l-.49,3.55c-1.12.48-2.21,1-3.3,1.55Zm-7.8,4.73c1-.7,2-1.37,3-2l-.5,3.55c-1,.64-2,1.32-3,2Zm-7,5.86c.87-.85,1.76-1.67,2.68-2.46l-.5,3.55c-.91.79-1.81,1.61-2.67,2.45Zm-5.45,6.09c.65-.83,1.32-1.64,2-2.44l-.5,3.55c-.69.79-1.36,1.61-2,2.44Zm-2.74,3.83-.5,3.54c-.35.54-.71,1.1-1.06,1.68l.5-3.55C59.23,340,59.59,339.41,59.94,338.88Zm-3.65,6.39c.33-.68.67-1.33,1-2l-.5,3.55c-.34.64-.68,1.29-1,2Zm-2.36,5.43q.43-1.15.9-2.25L54.34,352q-.47,1.1-.9,2.25Zm-2,6.18c.23-.87.48-1.72.73-2.55l-.5,3.55c-.25.83-.5,1.68-.73,2.55Zm-1.41,6.78c.14-.92.3-1.82.47-2.7l-.5,3.55c-.07.38-.13.78-.2,1.17C50.39,365,50.46,364.32,50.55,363.66Zm-.3,2.68c.24-1.22.5-2.41.79-3.56l-1,7.29C50.06,368.8,50.14,367.55,50.25,366.34ZM49,377.12Q49,376,49,374.9l0-.12c0,.74,0,1.49.06,2.24Zm.14,2.42c0-.4,0-.8-.07-1.2v0c0,.39.06.79.09,1.19Zm.29,3.23v0c.19,1.81.44,3.65.75,5.55Q49.75,385.47,49.45,382.77Zm1.16-4.21-.42,1c0-.5-.07-1-.1-1.48l.12-.85q.43-1.15.9-2.25Zm2.46-5.14c-.34.63-.67,1.28-1,2l.5-3.55c.33-.67.67-1.33,1-2ZM55.72,369c-.36.54-.71,1.09-1.06,1.67l.49-3.55c.36-.57.71-1.13,1.06-1.67Zm4.74-6.27c-.69.8-1.36,1.61-2,2.45l.5-3.55c.65-.84,1.32-1.65,2-2.45Zm-3.94,1.13a60.54,60.54,0,0,0-6.49,13c-.07-1.62-.09-3.21-.07-4.76l1.57-11.23a61,61,0,0,1,7.81-17.15,59.59,59.59,0,0,1,6.86-8.53c.77-.79,1.56-1.56,2.36-2.31L65.75,353c-.81.74-1.6,1.51-2.36,2.3A59.52,59.52,0,0,0,56.52,363.85Zm10.06-7.23c-.91.79-1.8,1.6-2.67,2.45l.5-3.55c.86-.84,1.76-1.66,2.67-2.45Zm7.34-5.42c-1,.64-2,1.31-3,2l.5-3.54c1-.71,2-1.38,3-2ZM82,346.93c-1.11.49-2.21,1-3.29,1.55l.5-3.55c1.08-.55,2.17-1.06,3.29-1.55Zm8.66-3c-1.18.31-2.35.66-3.51,1l.5-3.55c1.16-.38,2.33-.73,3.51-1Zm10.11-1.72c-1.51.11-3,.29-4.58.55l.5-3.55c1.54-.25,3.07-.44,4.58-.55Zm11,.35c-1.38-.2-2.8-.35-4.24-.43l.5-3.55c1.44.08,2.85.23,4.24.44Zm1.49-4.84a49.94,49.94,0,0,0-16.75.14,60.21,60.21,0,0,0-28.75,13.42l2.82-20.1a60.3,60.3,0,0,1,28.75-13.42,49.93,49.93,0,0,1,16.75-.13Zm8.27,7.58a34.65,34.65,0,0,0-3.7-1.36l.5-3.55a37.89,37.89,0,0,1,3.7,1.36Zm8.09,4.94a32.92,32.92,0,0,0-3-2.22l.49-3.54a28.45,28.45,0,0,1,3,2.22Zm-13.45-11.92,2.82-20.1h0c7.8,1.9,14.36,5.93,18.62,11.75a18.14,18.14,0,0,1,3.55,11.33c-.78,3.23-1.93,6.52-3.11,9.89-.34,1-.68,1.94-1,2.91a18.74,18.74,0,0,0-2.25-4C130.48,344.24,123.93,340.21,116.12,338.32ZM135.29,357A18.61,18.61,0,0,0,134,355c-.2-.28-.4-.54-.61-.8l.5-3.55c.21.26.41.53.61.8a19.73,19.73,0,0,1,1.25,1.93Zm.63,3.87a.2.2,0,0,0,0,.08,40.53,40.53,0,0,0-1,4.63A39.14,39.14,0,0,1,135.92,360.84Zm-.53,3.24c.19-.81.41-1.62.64-2.43l-.48,3.4c-.23.81-.44,1.63-.64,2.44ZM133,374.28a25.85,25.85,0,0,1,.2-2.9l.49-3.55a28.42,28.42,0,0,0-.19,2.9ZM132,390.55c-.24.82-.45,1.63-.65,2.44l.48-3.4c.2-.82.41-1.63.64-2.44Zm2-6.13c-.28.81-.56,1.62-.83,2.43l.48-3.41.21-.63c.08.25.17.49.26.74Zm0-3.46a18.83,18.83,0,0,1-.57-2.3l.5-3.54a21.21,21.21,0,0,0,.56,2.29Zm1-4.7h0l0,.05Zm-.2-7.38c.48-2,1.07-4,1.73-6L135.05,373A22.19,22.19,0,0,1,134.74,368.88Zm.91,9.14h0c0,.12.1.23.16.35ZM274,289.18c1,0,1.79.1,2.38.14l-.5,3.55c-.58-.05-1.39-.1-2.38-.14Zm-10.7,0c1.77-.07,3.43-.1,4.94-.1l-.5,3.55c-1.51,0-3.16,0-4.93.1Zm-15.11,1.5c2.16-.36,4.29-.64,6.34-.86l-.49,3.55c-2.06.22-4.18.5-6.35.86Zm-9.52,2.06c1.13-.31,2.24-.58,3.34-.84l-.5,3.55c-1.1.25-2.21.53-3.34.84ZM230,295.58c1.15-.46,2.3-.88,3.45-1.28l-.49,3.55c-1.15.4-2.31.82-3.45,1.28Zm-4.79-22.43c1.1-.64,2.22-1.25,3.35-1.81l-.5,3.55c-1.13.56-2.24,1.16-3.34,1.81Zm-7.89,5.62c1-.86,2-1.67,3-2.43l-.5,3.54q-1.56,1.15-3,2.43Zm-5.83,6.12c.62-.8,1.26-1.56,1.93-2.3l-.5,3.55c-.66.73-1.31,1.5-1.93,2.3Zm-4.22,6.56c.48-.94,1-1.86,1.55-2.74l-.5,3.55c-.54.88-1.06,1.8-1.55,2.74Zm-2,4.51-.49,3.55c-.39,1-.72,2-1,3l.5-3.54C204.56,298,204.89,297,205.27,296Zm-3.06,15.41a60,60,0,0,0,.84,6.66.36.36,0,0,1,0,.09,53.41,53.41,0,0,1-.85-6.4Zm.17,13c.21-.42.41-.83.63-1.23l-.36,2.53C202.55,325.24,202.47,324.8,202.38,324.37Zm-1.64,32.94q-.37-1.21-.72-2.43l.48-3.4c.22.81.47,1.62.72,2.42Zm2.11,6c-.31-.78-.6-1.58-.88-2.37l.48-3.41c.28.8.57,1.59.87,2.38Zm2.37,5.9-1-2.32.48-3.41c.31.78.64,1.55,1,2.32Zm2.5,5.74-1-2.26.47-3.4,1,2.25Zm2.93,6.69c-.39-.91-.79-1.82-1.19-2.74l.48-3.41c.4.92.8,1.83,1.19,2.74Zm1.69,4,.48-3.4c.35.88.69,1.76,1,2.63l-.48,3.4C213,387.47,212.69,386.6,212.34,385.71Zm-.41,6.84.18-.13c.45-.33.87-.66,1.27-1q.42,1.14.78,2.25l0,.22a31.83,31.83,0,0,1-2.51,2.07l-.19.14Zm-9.3,6.07c1.22-.68,2.45-1.42,3.68-2.19l-.5,3.54c-1.23.78-2.45,1.52-3.67,2.2Zm-9.13,4.3c1.2-.45,2.4-.95,3.6-1.49l-.49,3.54c-1.21.55-2.41,1-3.61,1.5Zm-8.94,2.51c1.17-.21,2.34-.48,3.52-.78l-.5,3.54c-1.18.31-2.35.57-3.52.79Zm-8.74.72c1.14,0,2.29,0,3.44-.07l-.49,3.55c-1.16.07-2.3.09-3.44.07ZM167.17,405c1.15.28,2.31.51,3.48.68l-.49,3.55c-1.17-.18-2.33-.4-3.48-.68Zm-8.46-3c1.1.53,2.21,1,3.32,1.44l-.5,3.55c-1.11-.43-2.22-.91-3.31-1.44Zm-8-4.93q1.56,1.17,3.15,2.19l-.5,3.55c-1.06-.68-2.11-1.41-3.14-2.19Zm-7.58-6.81c1,1,2,2,3,2.93l-.5,3.54c-1-.92-2-1.9-2.95-2.92Zm-5.35-19.33c.22-.83.43-1.65.61-2.47l-.48,3.41c-.18.81-.38,1.64-.61,2.46Zm-1.14,3.78-.36,2.53-.27-.68C136.2,375.93,136.41,375.31,136.61,374.7Zm-.29,4.67c0-.08-.09-.16-.13-.25h0C136.24,379.2,136.28,379.29,136.32,379.37Zm-.21,6.43.5-3.55a21.91,21.91,0,0,0,1.41,2c.25.32.49.64.74.95l-.5,3.55c-.24-.32-.49-.63-.74-1Q136.74,386.82,136.11,385.8Zm-6.61,12.14.5-3.55a25.86,25.86,0,0,0-.2,2.91l-.5,3.55C129.32,399.88,129.39,398.91,129.5,397.94Zm.87,10.14a22.49,22.49,0,0,1-.73-2.85l.5-3.55a19.67,19.67,0,0,0,.73,2.86Zm4.17,7.27-.74-.94a22.82,22.82,0,0,1-1.42-2l.5-3.55q.63,1,1.41,2l.74.94Zm7.29,7.94c-1-.93-2-1.9-3-2.93l.5-3.55c1,1,2,2,3,2.93Zm7.77,6.07c-1.06-.68-2.1-1.41-3.14-2.19l.5-3.54c1,.78,2.08,1.51,3.14,2.19Zm8.21,4.18c-1.12-.42-2.22-.9-3.32-1.43l.5-3.55c1.09.53,2.2,1,3.32,1.44Zm8.62,2.28c-1.17-.17-2.33-.4-3.48-.67l.5-3.55c1.15.27,2.31.5,3.48.68Zm8.61.37c-1.15.07-2.3.09-3.44.07l.5-3.55c1.14,0,2.28,0,3.44-.07Zm-7.46-5.27c-12-1.67-23-8.67-32.58-20.84L137.82,390c9.58,12.16,20.54,19.17,32.58,20.83a41,41,0,0,0,8,.32l-2.82,20.09A41,41,0,0,1,167.58,430.92Zm16.28,3.84c-1.18.31-2.36.57-3.53.78l.5-3.55c1.17-.21,2.35-.47,3.53-.78Zm9-3.22c-1.21.54-2.41,1-3.6,1.49l.49-3.55c1.2-.45,2.4-.94,3.61-1.49Zm9.2-5c-1.23.78-2.45,1.51-3.67,2.2l.5-3.55c1.22-.69,2.44-1.42,3.67-2.2Zm8.33-6.09a31.71,31.71,0,0,1-2.52,2.08l-.18.13.49-3.54.19-.14a31.83,31.83,0,0,0,2.51-2.07Zm4.78-6a21.18,21.18,0,0,1-1.58,2.45l.5-3.55a21.08,21.08,0,0,0,1.57-2.45Zm-2.9-.16a30.79,30.79,0,0,1-3.7,3.23c-10.48,7.81-20.7,12.32-30.51,13.45l2.82-20.09c9.8-1.14,20-5.64,30.5-13.46a30.22,30.22,0,0,0,3.13-2.65c1.51,4.88,2.29,9.5,1.78,13.83A21.67,21.67,0,0,1,212.29,414.33Zm3-20.25.34-.39-.14,1.06C215.39,394.53,215.31,394.3,215.25,394.08Zm1.37,6.77c-.08-.79-.19-1.58-.34-2.39l.48-3.41c.14.81.26,1.61.34,2.4Zm.64.13c0,.76-.08,1.52-.17,2.26l-.48,3.41c.09-.75.15-1.5.17-2.26Zm.62,3.48-.5,3.55a20.1,20.1,0,0,1-.59,2.64l.5-3.55A20.1,20.1,0,0,0,217.88,404.46Zm-1.13,3.28c-.12.28-.27.56-.41.84l.9-6.4a28.13,28.13,0,0,0-.54-9.77,20.42,20.42,0,0,0,2.46-3.92h0c.14-.28.29-.56.41-.85Zm2.66-23.36-.5,3.55a20.71,20.71,0,0,1-1.58,2.45l.5-3.55A19.93,19.93,0,0,0,219.41,384.38Zm.67-2.69-.06.11.06-.11Zm.12-6.34c-.08-.79-.2-1.59-.34-2.39l.48-3.41c.14.81.26,1.61.34,2.4Zm.63.13c0,.59-.06,1.18-.12,1.77-.08.36-.17.73-.28,1.09Zm.28,6a21.86,21.86,0,0,1-.59,2.64l.5-3.55a21,21,0,0,0,.59-2.64Zm-.34-4.42.15-1.07a31.38,31.38,0,0,0-1.23-12.59C221.11,368.22,221.69,372.75,220.77,377Zm-2-13.69c.27.84.52,1.68.74,2.51l-.48,3.41c-.22-.83-.47-1.67-.73-2.52Zm-2.37-6.52c.36.88.7,1.76,1,2.62l-.47,3.41c-.33-.87-.67-1.75-1-2.63Zm3.76,22.41a20.69,20.69,0,0,1-4.88,7.66l-.06.06c-.59-1.83-1.28-3.69-2-5.59l2.71-19.29C218.3,368.15,220.05,373.89,220.15,379.22Zm-7.75.22c-1.1-2.65-2.3-5.37-3.53-8.14-3.17-7.19-6.54-14.81-8.58-22.67l2.7-19.29c2,7.86,5.41,15.48,8.59,22.67,1.23,2.77,2.43,5.49,3.52,8.14Zm-9.08-59.76,0-.16c.07.37.16.74.24,1.11l0,.06ZM213.52,350c.4.92.8,1.83,1.18,2.74l-.47,3.4L213,353.42Zm-2.74-6.21,1,2.26-.47,3.41c-.33-.75-.67-1.5-1-2.26Zm-2.47-5.8c.32.78.64,1.55,1,2.32l-.48,3.41c-.32-.77-.65-1.55-1-2.33ZM206,332.05c.29.8.58,1.59.88,2.38l-.48,3.4q-.45-1.18-.87-2.37Zm-1.7-.24c-.25-.81-.5-1.62-.72-2.43l.47-3.4c.23.81.47,1.62.73,2.42Zm.38-6.81c-.32-1.09-.63-2.17-.9-3.27l0-.05C204.09,322.79,204.38,323.9,204.7,325Zm-.08-6.18c-.11.17-.19.34-.29.51-.15-.66-.28-1.31-.4-2,.38-.71.77-1.41,1.18-2.08Zm4.6-6.12c-.67.74-1.32,1.51-1.94,2.3l.5-3.55c.62-.79,1.27-1.56,1.94-2.3Zm6.93-6.25q-1.56,1.14-3,2.43l.5-3.55q1.47-1.27,3-2.43Zm8.2-5c-1.12.57-2.24,1.17-3.34,1.81l.5-3.55c1.1-.64,2.21-1.24,3.34-1.81Zm2.31-5.75A52.7,52.7,0,0,0,211,306.6a42.13,42.13,0,0,0-7.18,10,48.82,48.82,0,0,1-.7-10.66,39,39,0,0,1,2-6.27,42.22,42.22,0,0,1,8.68-13.12,52.52,52.52,0,0,1,15.69-10.9Zm10-24.41c-1.15.39-2.3.82-3.45,1.28l.5-3.55c1.15-.46,2.3-.89,3.45-1.28Zm8.53-2.43c-1.1.25-2.21.53-3.34.83l.5-3.54c1.12-.31,2.24-.59,3.34-.84Zm12.52-2.09c-2.05.22-4.18.51-6.34.87l.49-3.55c2.17-.36,4.3-.64,6.35-.87Zm13.7-.73c-1.5,0-3.16,0-4.93.09l.5-3.54c1.77-.07,3.42-.1,4.93-.1Zm8.15.26-2.39-.14.5-3.55,2.38.14Z" style="fill:#263238"></path><path d="M178.08,431c9.81-1.13,20-5.64,30.51-13.45a30.79,30.79,0,0,0,3.7-3.23,21.41,21.41,0,0,0,4.46-6.59l2.82-20.1a21.59,21.59,0,0,1-4.46,6.59,29.34,29.34,0,0,1-3.71,3.23c-10.47,7.82-20.7,12.32-30.5,13.46L178.08,431" style="fill:#525252"></path><path d="M135,410.08c9.58,12.17,20.54,19.17,32.58,20.84a41,41,0,0,0,8,.31l2.82-20.09a41,41,0,0,1-8-.32c-12-1.66-23-8.67-32.58-20.83L135,410.08" style="fill:#525252"></path><path d="M133.11,372.14c-.75,5.32-.2,10.61,3.14,15.7l-2.82,20.1c-3.34-5.1-3.89-10.38-3.14-15.71l2.82-20.09" style="fill:#525252"></path><path d="M48.06,376.73a94.18,94.18,0,0,0,3.63,29.59L49,425.61c-2.1-8.3-4.12-17.41-3.62-29.59l2.7-19.29" style="fill:gray"></path><path d="M201.46,309.58c-.63,5.89-.62,10.09,1.1,18l-2.71,19.29a50.42,50.42,0,0,1-1.1-18l2.71-19.29" style="fill:gray"></path><path d="M204.11,320c.49-.94,0-.29.51-1.18l.49-3.54c-.54.88-1.06,1.79-1.55,2.74l.55,2" style="fill:#fff"></path><path d="M212.34,385.71c.35.89.7,1.76,1,2.63l.48-3.4c-.33-.87-.67-1.75-1-2.63l-.48,3.4" style="fill:#fff"></path><path d="M209.46,378.92c.4.92.8,1.83,1.19,2.74l.48-3.41c-.39-.91-.79-1.82-1.19-2.74l-.48,3.41" style="fill:#fff"></path><path d="M206.73,372.71l1,2.26.48-3.41-1-2.25-.47,3.4" style="fill:#fff"></path><path d="M204.26,366.91l1,2.32.48-3.41c-.32-.77-.65-1.54-1-2.32l-.48,3.41" style="fill:#fff"></path><path d="M202,361c.28.79.57,1.59.88,2.37l.47-3.4c-.3-.79-.59-1.58-.87-2.38L202,361" style="fill:#fff"></path><path d="M200,354.88q.34,1.22.72,2.43l.48-3.41c-.25-.8-.5-1.61-.72-2.42l-.48,3.4" style="fill:#fff"></path><path d="M198.57,348.7c.15.82.32,1.65.5,2.47l.48-3.41c-.18-.82-.35-1.64-.51-2.47l-.47,3.41" style="fill:#fff"></path><path d="M197.78,342.44c.05.83.13,1.67.22,2.5l.48-3.41c-.09-.83-.17-1.66-.22-2.5l-.48,3.41" style="fill:#fff"></path><path d="M197.81,336.11c-.06.84-.1,1.69-.12,2.53l.48-3.41q0-1.26.12-2.52l-.48,3.4" style="fill:#fff"></path><path d="M219.86,373c.14.8.26,1.6.34,2.39l.48-3.4c-.08-.79-.2-1.59-.34-2.4l-.48,3.41" style="fill:#fff"></path><path d="M218.29,366.73c.26.85.51,1.69.73,2.52l.48-3.41c-.22-.83-.47-1.67-.74-2.51l-.47,3.4" style="fill:#fff"></path><path d="M215.92,360.21c.35.88.69,1.76,1,2.63l.47-3.41c-.32-.86-.66-1.74-1-2.62l-.47,3.4" style="fill:#fff"></path><path d="M213,353.42l1.19,2.73.47-3.4c-.38-.91-.78-1.82-1.18-2.74l-.48,3.41" style="fill:#fff"></path><path d="M210.3,347.21c.33.76.67,1.51,1,2.26l.47-3.41-1-2.26-.48,3.41" style="fill:#fff"></path><path d="M207.83,341.4c.32.78.65,1.56,1,2.33l.48-3.41c-.33-.77-.65-1.54-1-2.32l-.48,3.4" style="fill:#fff"></path><path d="M205.55,335.46q.42,1.19.87,2.37l.48-3.4c-.3-.79-.59-1.58-.88-2.38l-.47,3.41" style="fill:#fff"></path><path d="M203.6,329.38c.22.81.47,1.62.72,2.43l.48-3.41c-.26-.8-.5-1.61-.73-2.42l-.47,3.4" style="fill:#fff"></path><path d="M202.14,323.2c.16.82.33,1.65.51,2.47l.48-3.41c-.19-.82-.36-1.64-.51-2.47l-.48,3.41" style="fill:#fff"></path><path d="M201.36,316.94c0,.83.13,1.67.22,2.5l.48-3.41c-.1-.83-.17-1.66-.23-2.5l-.47,3.41" style="fill:#fff"></path><path d="M138,364.67c-.05.49-.1,1-.17,1.47l-.5,3.55c.07-.49.13-1,.17-1.47l.5-3.55" style="fill:#fff"></path><path d="M137,361.11a19.11,19.11,0,0,1,.51,2.78l.49-3.54a17.74,17.74,0,0,0-.5-2.79l-.5,3.55" style="fill:#fff"></path><path d="M133.43,354.24c.21.26.41.52.61.8a18.61,18.61,0,0,1,1.25,1.93l.5-3.55a19.73,19.73,0,0,0-1.25-1.93c-.2-.27-.4-.54-.61-.8l-.5,3.55" style="fill:#fff"></path><path d="M126.59,348a32.92,32.92,0,0,1,3,2.22l.49-3.54a28.45,28.45,0,0,0-3-2.22l-.49,3.54" style="fill:#fff"></path><path d="M117.78,343.94a34.65,34.65,0,0,1,3.7,1.36l.5-3.55a37.89,37.89,0,0,0-3.7-1.36l-.5,3.55" style="fill:#fff"></path><path d="M107.48,342.13c1.44.08,2.86.23,4.24.43l.5-3.54c-1.39-.21-2.8-.36-4.24-.44l-.5,3.55" style="fill:#fff"></path><path d="M96.19,342.76c1.55-.26,3.07-.44,4.58-.55l.5-3.55c-1.51.11-3,.3-4.58.55l-.5,3.55" style="fill:#fff"></path><path d="M87.15,345c1.16-.38,2.33-.73,3.51-1l.5-3.55c-1.18.31-2.35.66-3.51,1l-.5,3.55" style="fill:#fff"></path><path d="M78.71,348.48c1.08-.55,2.18-1.06,3.29-1.55l.5-3.55c-1.12.49-2.21,1-3.29,1.55l-.5,3.55" style="fill:#fff"></path><path d="M70.91,353.21c1-.7,2-1.37,3-2l.5-3.55c-1,.64-2,1.31-3,2l-.5,3.54" style="fill:#fff"></path><path d="M63.91,359.07c.87-.85,1.76-1.66,2.67-2.45l.5-3.55c-.91.79-1.81,1.61-2.67,2.45l-.5,3.55" style="fill:#fff"></path><path d="M58.45,365.17c.65-.84,1.32-1.65,2-2.45l.5-3.55c-.69.8-1.36,1.61-2,2.45l-.5,3.55" style="fill:#fff"></path><path d="M54.66,370.66c.35-.58.7-1.13,1.06-1.67l.49-3.55c-.35.54-.7,1.1-1.06,1.67l-.49,3.55" style="fill:#fff"></path><path d="M52.06,375.38c.34-.68.67-1.33,1-2l.5-3.55c-.34.63-.68,1.29-1,2l-.5,3.55" style="fill:#fff"></path><path d="M49.71,380.82c.29-.77.59-1.53.9-2.26l.5-3.54q-.47,1.1-.9,2.25l-.5,3.55" style="fill:#fff"></path><path d="M47.74,387c.23-.87.47-1.72.73-2.55l.5-3.54c-.26.83-.5,1.68-.73,2.55l-.5,3.54" style="fill:#fff"></path><path d="M46.3,393.93c.15-1,.31-1.92.5-2.85l.5-3.55q-.28,1.39-.51,2.85l-.49,3.55" style="fill:#fff"></path><path d="M141.72,338.11c0,.49-.1,1-.17,1.47l-.49,3.54c.07-.49.12-1,.17-1.46l.49-3.55" style="fill:#fff"></path><path d="M140.7,334.54a17.77,17.77,0,0,1,.51,2.79l.5-3.55a18,18,0,0,0-.51-2.79l-.5,3.55" style="fill:#fff"></path><path d="M137.16,327.67c.21.26.41.53.61.8A19.73,19.73,0,0,1,139,330.4l.49-3.54a19.72,19.72,0,0,0-1.24-1.94l-.61-.8-.5,3.55" style="fill:#fff"></path><path d="M130.31,321.46a29.93,29.93,0,0,1,3,2.22l.5-3.55a31.57,31.57,0,0,0-3-2.22l-.5,3.55" style="fill:#fff"></path><path d="M121.51,317.37c1.27.4,2.5.85,3.69,1.36l.5-3.55a36,36,0,0,0-3.7-1.35l-.49,3.54" style="fill:#fff"></path><path d="M111.21,315.56c1.44.09,2.85.23,4.24.44l.49-3.55c-1.38-.21-2.8-.35-4.24-.43l-.49,3.54" style="fill:#fff"></path><path d="M99.92,316.19c1.54-.25,3.07-.43,4.58-.55l.5-3.55c-1.51.12-3,.3-4.58.55l-.5,3.55" style="fill:#fff"></path><path d="M90.88,318.4c1.16-.38,2.33-.72,3.51-1l.5-3.55c-1.18.31-2.35.66-3.51,1l-.5,3.54" style="fill:#fff"></path><path d="M82.43,321.92c1.09-.55,2.18-1.07,3.3-1.55l.49-3.55c-1.11.48-2.21,1-3.29,1.55l-.5,3.55" style="fill:#fff"></path><path d="M74.64,326.65c1-.7,2-1.38,3-2l.5-3.55c-1,.65-2,1.32-3,2l-.49,3.55" style="fill:#fff"></path><path d="M67.64,332.5c.86-.84,1.76-1.66,2.67-2.45l.5-3.55c-.92.79-1.81,1.61-2.68,2.46l-.49,3.54" style="fill:#fff"></path><path d="M62.18,338.6c.65-.83,1.32-1.65,2-2.44l.5-3.55c-.69.8-1.36,1.61-2,2.44l-.5,3.55" style="fill:#fff"></path><path d="M58.38,344.1c.35-.58.71-1.14,1.06-1.68l.5-3.54c-.35.53-.71,1.09-1.06,1.67l-.5,3.55" style="fill:#fff"></path><path d="M55.79,348.81c.33-.67.67-1.32,1-2l.5-3.55c-.34.64-.68,1.29-1,2l-.5,3.54" style="fill:#fff"></path><path d="M53.44,354.25q.44-1.15.9-2.25l.49-3.55q-.46,1.1-.9,2.25l-.49,3.55" style="fill:#fff"></path><path d="M51.46,360.43c.23-.87.48-1.72.73-2.55l.5-3.55c-.25.83-.5,1.68-.73,2.55l-.5,3.55" style="fill:#fff"></path><path d="M50,367.36c.15-1,.32-1.92.5-2.85L51,361c-.18.93-.35,1.88-.5,2.86l-.5,3.54" style="fill:#fff"></path><path d="M137.27,374.32c.23-.82.43-1.65.61-2.46l.48-3.41c-.18.82-.39,1.64-.61,2.47l-.48,3.4" style="fill:#fff"></path><path d="M140.85,348.82c.22-.82.43-1.65.61-2.46l.47-3.41c-.17.82-.38,1.64-.6,2.47l-.48,3.4" style="fill:#fff"></path><path d="M138.86,355.13c.29-.84.58-1.69.85-2.53l.48-3.4c-.28.84-.56,1.68-.86,2.53l-.47,3.4" style="fill:#fff"></path><path d="M136.71,361.35c.27-.81.55-1.62.83-2.43l.47-3.41c-.28.81-.56,1.62-.82,2.43l-.48,3.41" style="fill:#fff"></path><path d="M134.91,367.49c.2-.81.41-1.63.64-2.44l.48-3.4c-.23.81-.45,1.62-.64,2.43l-.48,3.41" style="fill:#fff"></path><path d="M134.67,367.83v-.05l-.48,3.41v0l.48-3.4" style="fill:#fff"></path><path d="M213.61,416.94a21.18,21.18,0,0,0,1.58-2.45l.49-3.55a21.08,21.08,0,0,1-1.57,2.45l-.5,3.55" style="fill:#fff"></path><path d="M207.71,422.66l.18-.13a31.71,31.71,0,0,0,2.52-2.08l.49-3.54a31.83,31.83,0,0,1-2.51,2.07l-.19.14-.49,3.54" style="fill:#fff"></path><path d="M198.41,428.74c1.22-.69,2.44-1.42,3.67-2.2l.5-3.55c-1.23.78-2.45,1.51-3.67,2.2l-.5,3.55" style="fill:#fff"></path><path d="M189.28,433c1.19-.45,2.39-.95,3.6-1.49l.5-3.55c-1.21.55-2.41,1-3.61,1.49l-.49,3.55" style="fill:#fff"></path><path d="M180.33,435.54c1.17-.21,2.35-.47,3.53-.78l.5-3.55c-1.18.31-2.36.57-3.53.78l-.5,3.55" style="fill:#fff"></path><path d="M171.6,436.26c1.14,0,2.29,0,3.44-.07l.5-3.55c-1.16.07-2.3.1-3.44.07l-.5,3.55" style="fill:#fff"></path><path d="M163,435.15c1.15.27,2.31.5,3.48.67l.5-3.54c-1.17-.18-2.33-.41-3.48-.68l-.5,3.55" style="fill:#fff"></path><path d="M154.49,432.11c1.1.53,2.2,1,3.32,1.43l.5-3.54c-1.12-.43-2.23-.91-3.32-1.44l-.5,3.55" style="fill:#fff"></path><path d="M146.46,427.17c1,.78,2.08,1.51,3.14,2.19l.5-3.54c-1.06-.68-2.11-1.41-3.14-2.19l-.5,3.54" style="fill:#fff"></path><path d="M138.88,420.36c1,1,2,2,3,2.93l.5-3.55c-1-.93-2-1.9-3-2.93l-.5,3.55" style="fill:#fff"></path><path d="M132.38,412.37a22.82,22.82,0,0,0,1.42,2l.74.94.49-3.55-.74-.94q-.78-1-1.41-2l-.5,3.55" style="fill:#fff"></path><path d="M129.64,405.23a22.49,22.49,0,0,0,.73,2.85l.5-3.54a19.67,19.67,0,0,1-.73-2.86l-.5,3.55" style="fill:#fff"></path><path d="M129.5,397.94c-.11,1-.18,1.94-.2,2.91l.5-3.55a25.86,25.86,0,0,1,.2-2.91l-.5,3.55" style="fill:#fff"></path><path d="M217.33,390.38a20.71,20.71,0,0,0,1.58-2.45l.5-3.55a19.93,19.93,0,0,1-1.58,2.45l-.5,3.55" style="fill:#fff"></path><path d="M211.43,396.1l.19-.14a31.83,31.83,0,0,0,2.51-2.07l.5-3.55a32.09,32.09,0,0,1-2.52,2.08l-.18.13-.5,3.55" style="fill:#fff"></path><path d="M202.14,402.17c1.22-.68,2.44-1.42,3.67-2.2l.5-3.54c-1.23.77-2.46,1.51-3.68,2.19l-.49,3.55" style="fill:#fff"></path><path d="M193,406.47c1.2-.45,2.4-1,3.61-1.5l.49-3.54c-1.2.54-2.4,1-3.6,1.49l-.5,3.55" style="fill:#fff"></path><path d="M184.06,409c1.17-.22,2.34-.48,3.52-.79l.5-3.54c-1.18.3-2.35.57-3.52.78l-.5,3.55" style="fill:#fff"></path><path d="M175.33,409.7c1.14,0,2.28,0,3.44-.07l.49-3.55c-1.15.07-2.3.09-3.44.07l-.49,3.55" style="fill:#fff"></path><path d="M166.68,408.58c1.15.28,2.31.5,3.48.68l.49-3.55c-1.17-.17-2.33-.4-3.48-.68l-.49,3.55" style="fill:#fff"></path><path d="M158.22,405.54c1.09.53,2.2,1,3.31,1.44l.5-3.55c-1.11-.43-2.22-.91-3.32-1.44l-.49,3.55" style="fill:#fff"></path><path d="M150.19,400.61c1,.78,2.08,1.51,3.14,2.19l.5-3.55q-1.59-1-3.15-2.19l-.49,3.55" style="fill:#fff"></path><path d="M142.61,393.8c1,1,1.95,2,2.95,2.92l.5-3.54c-1-.93-2-1.91-3-2.93l-.49,3.55" style="fill:#fff"></path><path d="M136.11,385.8q.63,1,1.41,2c.25.32.5.63.74,1l.5-3.55c-.25-.31-.49-.63-.74-.95a21.91,21.91,0,0,1-1.41-2l-.5,3.55" style="fill:#fff"></path><path d="M133.37,378.66a19.67,19.67,0,0,0,.73,2.86l.5-3.55a19.88,19.88,0,0,1-.73-2.85l-.5,3.54" style="fill:#fff"></path><path d="M133.23,371.38a25.85,25.85,0,0,0-.2,2.9l.5-3.55a28.42,28.42,0,0,1,.19-2.9l-.49,3.55" style="fill:#fff"></path><path d="M47.44,427c.22.9.46,1.81.71,2.74l.47-3.41c-.25-.92-.48-1.83-.7-2.74L47.44,427" style="fill:#fff"></path><path d="M46,420.4c.16.85.32,1.72.5,2.59l.48-3.4c-.18-.88-.35-1.74-.5-2.6L46,420.4" style="fill:#fff"></path><path d="M45.13,414.12c.09.8.2,1.62.31,2.45l.48-3.41c-.12-.83-.22-1.64-.31-2.45l-.48,3.41" style="fill:#fff"></path><path d="M44.67,408.18c0,.76.08,1.53.14,2.32l.47-3.41c-.05-.78-.1-1.55-.13-2.31l-.48,3.4" style="fill:#fff"></path><path d="M44.62,402.59c0,.72,0,1.44,0,2.18l.47-3.41c0-.73,0-1.46,0-2.18l-.48,3.41" style="fill:#fff"></path><path d="M44.94,397.34c-.07.67-.12,1.35-.17,2l.48-3.4c0-.69.1-1.38.16-2.05l-.47,3.41" style="fill:#fff"></path><path d="M45.79,390.73l0,.19-.48,3.41,0-.19.48-3.41" style="fill:#fff"></path><path d="M51,401.53c.22.9.45,1.81.7,2.73l.48-3.4c-.25-.92-.48-1.84-.7-2.74L51,401.53" style="fill:#fff"></path><path d="M49.62,394.89c.15.86.32,1.73.5,2.6l.47-3.4c-.17-.88-.34-1.75-.49-2.6l-.48,3.4" style="fill:#fff"></path><path d="M48.71,388.61c.09.81.19,1.63.31,2.45l.47-3.4c-.11-.83-.21-1.64-.3-2.45l-.48,3.4" style="fill:#fff"></path><path d="M48.25,382.68c0,.76.08,1.53.13,2.31l.48-3.4c0-.78-.1-1.55-.13-2.32l-.48,3.41" style="fill:#fff"></path><path d="M48.2,377.09c0,.72,0,1.44,0,2.18l.48-3.41c0-.73,0-1.46,0-2.18l-.48,3.41" style="fill:#fff"></path><path d="M48.51,371.84c-.06.67-.12,1.35-.16,2l.47-3.41c0-.69.11-1.37.17-2l-.48,3.41" style="fill:#fff"></path><path d="M49.37,365.23l0,.19-.48,3.41,0-.19.48-3.41" style="fill:#fff"></path><path d="M135.39,364.08c.64-2.43,1.52-5.35,1.8-6.14,1.63-4.66,4.81-14.82,5.43-19.23L139,364.44c-.62,4.41-.77,8.34-2.77,12.79-.27.79-1.29-4.43-1.56-3.64l.05-4.71" style="fill:gray"></path><path d="M301.94,331.73c-33.22,3.11-61.86-12.61-64-35.13l1.6,17.07c2.11,22.51,30.75,38.24,64,35.13s58.43-23.9,56.31-46.42l-1.6-17.07C360.36,307.83,335.15,328.61,301.94,331.73Z" style="fill:#575757"></path><ellipse cx="298.11" cy="290.95" rx="60.41" ry="40.95" transform="translate(-25.87 29.12) rotate(-5.36)" style="fill:#263238"></ellipse><path d="M319,348.55a29.56,29.56,0,0,1-9.1.55,28,28,0,0,1-8.38-2.12,22.17,22.17,0,0,1-6.68-4.35,16.21,16.21,0,0,1-4.08-6.17,13.12,13.12,0,0,1-.6-6.84,14.6,14.6,0,0,1,2.77-6.23,19.68,19.68,0,0,1,5.61-5,25.64,25.64,0,0,1,7.92-3.06,29.82,29.82,0,0,1,8.85-.52,28.12,28.12,0,0,1,8.18,2A22.68,22.68,0,0,1,330.1,321a16.43,16.43,0,0,1,4.23,6,13.19,13.19,0,0,1,.85,6.82,14.33,14.33,0,0,1-2.58,6.34,19.19,19.19,0,0,1-5.56,5.15,25.72,25.72,0,0,1-8.07,3.21m-9.71-47a6.74,6.74,0,0,1-1.43.16,7.59,7.59,0,0,1-1.43-.11,6.5,6.5,0,0,1-1.37-.39,5.72,5.72,0,0,1-1.22-.66,4.39,4.39,0,0,1-1.27-1.36,3.32,3.32,0,0,1-.44-1.56,3.13,3.13,0,0,1,.38-1.56,4.27,4.27,0,0,1,1.19-1.39,5.57,5.57,0,0,1,.57-.37,5,5,0,0,1,.61-.31,5.12,5.12,0,0,1,.65-.25,5.2,5.2,0,0,1,.68-.17,7.54,7.54,0,0,1,2.84-.05,6.25,6.25,0,0,1,1.36.39,5.86,5.86,0,0,1,1.21.65,4.35,4.35,0,0,1,1.27,1.35,3.2,3.2,0,0,1,.46,1.55A3.12,3.12,0,0,1,313,299a4.3,4.3,0,0,1-1.19,1.4l-.56.38c-.2.11-.4.22-.61.31l-.66.25a5.2,5.2,0,0,1-.68.17m50.27,15.12a25.56,25.56,0,0,1-2.78.45c-.95.11-1.91.17-2.88.19a29,29,0,0,1-2.94-.11c-1-.08-2-.22-3-.4a26.93,26.93,0,0,1-8.11-2.88,20.1,20.1,0,0,1-5.83-4.76,14.48,14.48,0,0,1-3-6,12.08,12.08,0,0,1,.29-6.49,13.58,13.58,0,0,1,2.12-4.06,17.26,17.26,0,0,1,3.37-3.35,21.63,21.63,0,0,1,4.38-2.54,25.4,25.4,0,0,1,5.11-1.62,26.39,26.39,0,0,1,2.71-.43c.92-.11,1.85-.16,2.8-.18s1.9,0,2.86.1a29.21,29.21,0,0,1,2.9.39,26.9,26.9,0,0,1,8,2.73,20.88,20.88,0,0,1,5.85,4.59,14.7,14.7,0,0,1,3.19,5.86,12.16,12.16,0,0,1,0,6.5,13.41,13.41,0,0,1-2,4.15,16.24,16.24,0,0,1-3.33,3.46,20.91,20.91,0,0,1-4.4,2.65,25.75,25.75,0,0,1-5.22,1.71m-64.39-12.19-.71.11a5.58,5.58,0,0,1-.72,0,6.91,6.91,0,0,1-1.47-.12,6.43,6.43,0,0,1-2-.71,4.83,4.83,0,0,1-1.43-1.19,3.53,3.53,0,0,1-.72-1.5,3.16,3.16,0,0,1,.13-1.66,3.68,3.68,0,0,1,.58-1,4.9,4.9,0,0,1,.89-.87,5.92,5.92,0,0,1,1.15-.66,6.54,6.54,0,0,1,1.34-.42,5.37,5.37,0,0,1,.7-.11,5.52,5.52,0,0,1,.71-.05c.25,0,.49,0,.73,0s.49.06.74.1a6.4,6.4,0,0,1,2,.71,4.83,4.83,0,0,1,1.44,1.18,3.46,3.46,0,0,1,.73,1.49,3.06,3.06,0,0,1-.12,1.66,3.81,3.81,0,0,1-.56,1.05,4.66,4.66,0,0,1-.9.87,5.88,5.88,0,0,1-1.15.67,7.23,7.23,0,0,1-1.34.43M261.68,337a30,30,0,0,1-5.83.66,28.82,28.82,0,0,1-5.8-.49,25.79,25.79,0,0,1-5.45-1.63,22,22,0,0,1-4.78-2.77,16.4,16.4,0,0,1-4.75-5.63,13,13,0,0,1-1.39-6.39,13.86,13.86,0,0,1,1.9-6.35,18.27,18.27,0,0,1,5.11-5.57,22.06,22.06,0,0,1,2.3-1.49,22.57,22.57,0,0,1,2.46-1.23,27.09,27.09,0,0,1,2.6-1c.89-.28,1.79-.51,2.7-.7a30,30,0,0,1,5.67-.63,29.59,29.59,0,0,1,5.65.46,25.93,25.93,0,0,1,5.33,1.55,22.18,22.18,0,0,1,4.74,2.65A16.68,16.68,0,0,1,277,314a13.22,13.22,0,0,1,1.61,6.31,13.67,13.67,0,0,1-1.68,6.42,18.24,18.24,0,0,1-5,5.74A23.87,23.87,0,0,1,269.6,334a23.62,23.62,0,0,1-2.5,1.29,27.52,27.52,0,0,1-2.66,1c-.9.29-1.83.54-2.76.74m51.17-45.9a7.8,7.8,0,0,1-2.2.13,7.52,7.52,0,0,1-2-.49,5.28,5.28,0,0,1-1.63-1,3.74,3.74,0,0,1-1-1.43,3.14,3.14,0,0,1-.18-1.62,3.34,3.34,0,0,1,.66-1.48,4.69,4.69,0,0,1,1.36-1.2,6.6,6.6,0,0,1,2-.74h0a7.8,7.8,0,0,1,2.2-.13,7,7,0,0,1,2,.48,5.58,5.58,0,0,1,1.63,1,3.84,3.84,0,0,1,1,1.42,3,3,0,0,1,.19,1.62,3.41,3.41,0,0,1-.65,1.49,4.69,4.69,0,0,1-1.36,1.2,6.36,6.36,0,0,1-2,.76h0m-28.05,5.75a7.19,7.19,0,0,1-2.21.13,6.72,6.72,0,0,1-2-.49,5.27,5.27,0,0,1-1.61-1,3.69,3.69,0,0,1-1-1.44,3.06,3.06,0,0,1-.14-1.63,3.49,3.49,0,0,1,.7-1.5,4.9,4.9,0,0,1,1.4-1.21,6.85,6.85,0,0,1,2-.75h0a7.45,7.45,0,0,1,2.2-.13,7,7,0,0,1,2,.49,5.23,5.23,0,0,1,1.61,1,3.91,3.91,0,0,1,1,1.44,3.06,3.06,0,0,1,.15,1.63,3.45,3.45,0,0,1-.68,1.5,4.91,4.91,0,0,1-1.4,1.22,6.75,6.75,0,0,1-2,.76h0m17.72-13.15-.69.11c-.23,0-.47,0-.71,0s-.48,0-.72,0a6.38,6.38,0,0,1-.73-.1,6.26,6.26,0,0,1-2-.69,4.62,4.62,0,0,1-1.41-1.15,3.41,3.41,0,0,1-.72-1.45,3,3,0,0,1,.12-1.6,3.29,3.29,0,0,1,.56-1,4.14,4.14,0,0,1,.88-.84,5.82,5.82,0,0,1,1.12-.64,6.9,6.9,0,0,1,1.31-.41l.69-.11c.23,0,.46,0,.7,0l.72,0c.24,0,.48.06.72.1a6.61,6.61,0,0,1,2,.68,4.74,4.74,0,0,1,1.41,1.14,3.46,3.46,0,0,1,.73,1.44,3,3,0,0,1-.1,1.6,3.43,3.43,0,0,1-.55,1,4.74,4.74,0,0,1-.88.85,5.91,5.91,0,0,1-1.13.64,7,7,0,0,1-1.32.42m-13.9,2.83a7.33,7.33,0,0,1-1.41.15,7.49,7.49,0,0,1-1.42-.11,6.21,6.21,0,0,1-1.34-.38,5.67,5.67,0,0,1-1.19-.64,4.27,4.27,0,0,1-1.23-1.33,3.06,3.06,0,0,1-.41-1.51,3.15,3.15,0,0,1,.4-1.53,4.24,4.24,0,0,1,1.21-1.35,5.35,5.35,0,0,1,.56-.36c.2-.11.4-.22.61-.31a5,5,0,0,1,.65-.23c.22-.07.44-.13.67-.18a8.21,8.21,0,0,1,1.4-.15,7.32,7.32,0,0,1,1.41.11,6.54,6.54,0,0,1,1.33.37,5.43,5.43,0,0,1,1.19.64,4.13,4.13,0,0,1,1.23,1.32,3.09,3.09,0,0,1,.43,1.51,3.25,3.25,0,0,1-.39,1.53,4.26,4.26,0,0,1-1.21,1.36,4.52,4.52,0,0,1-.56.37c-.19.11-.4.21-.6.3s-.43.17-.65.24-.45.13-.68.18M342.9,276a29.6,29.6,0,0,1-11,.16,26.4,26.4,0,0,1-5.29-1.47,22.71,22.71,0,0,1-4.73-2.5,16.58,16.58,0,0,1-4.88-5.08,11.9,11.9,0,0,1-1.74-5.76,11.53,11.53,0,0,1,1.4-5.75,15.34,15.34,0,0,1,4.5-5,20.85,20.85,0,0,1,2.1-1.35,23.93,23.93,0,0,1,2.27-1.12,24.65,24.65,0,0,1,2.41-.87c.83-.25,1.67-.47,2.53-.64a29.9,29.9,0,0,1,5.36-.57,29.57,29.57,0,0,1,5.4.41,27.29,27.29,0,0,1,5.18,1.4,23,23,0,0,1,4.68,2.4,17,17,0,0,1,5,4.93,12.12,12.12,0,0,1,1.93,5.7,11.39,11.39,0,0,1-1.19,5.81,15,15,0,0,1-4.41,5.18,20.57,20.57,0,0,1-4.4,2.57,23.41,23.41,0,0,1-2.46.92c-.84.26-1.7.49-2.58.67M248.11,295c-.91.18-1.83.33-2.77.43a26.54,26.54,0,0,1-2.83.18c-1,0-1.92,0-2.88-.1a28.43,28.43,0,0,1-2.88-.39,24.24,24.24,0,0,1-7.68-2.77,17.22,17.22,0,0,1-5.28-4.58,12.46,12.46,0,0,1-2.42-5.75,11.77,11.77,0,0,1,.88-6.25,14.79,14.79,0,0,1,2.45-3.92,19,19,0,0,1,3.61-3.22,23.32,23.32,0,0,1,4.52-2.45,28.08,28.08,0,0,1,5.16-1.57,27,27,0,0,1,2.7-.41c.91-.1,1.83-.16,2.76-.17s1.86,0,2.8.09,1.87.2,2.8.37a24.57,24.57,0,0,1,7.55,2.64,17.7,17.7,0,0,1,5.32,4.42,12.72,12.72,0,0,1,2.59,5.64,11.68,11.68,0,0,1-.64,6.27,14.75,14.75,0,0,1-2.35,4,18.75,18.75,0,0,1-3.58,3.34,23.94,23.94,0,0,1-4.56,2.55,28.37,28.37,0,0,1-5.27,1.65m40.59-29.23a29.15,29.15,0,0,1-8.5.48,26.87,26.87,0,0,1-7.76-1.83,20.47,20.47,0,0,1-6.14-3.79,13.7,13.7,0,0,1-3.67-5.36,10.71,10.71,0,0,1-.41-6,12.79,12.79,0,0,1,2.72-5.43,18.87,18.87,0,0,1,5.34-4.33,25.88,25.88,0,0,1,7.47-2.68,29.4,29.4,0,0,1,8.28-.45,26.82,26.82,0,0,1,7.58,1.74,20.66,20.66,0,0,1,6.11,3.63,13.9,13.9,0,0,1,3.8,5.24,10.74,10.74,0,0,1,.63,5.94,12.51,12.51,0,0,1-2.55,5.52,18.44,18.44,0,0,1-5.31,4.48,25.48,25.48,0,0,1-7.59,2.8m-14.85-37.91a110.62,110.62,0,0,0-31.71,11.27,83.54,83.54,0,0,0-23.42,18.62,60.08,60.08,0,0,0-12.88,24,50.69,50.69,0,0,0,.52,27.26,61,61,0,0,0,15.37,25.4,87.89,87.89,0,0,0,27.39,18.46A115.93,115.93,0,0,0,284.65,362a125,125,0,0,0,39.07-2.35A107.44,107.44,0,0,0,358,345.87a77.26,77.26,0,0,0,22.8-21.6,55.72,55.72,0,0,0,9.62-25.82,51.58,51.58,0,0,0-4.72-26.82,66.53,66.53,0,0,0-17.91-22.89A93.91,93.91,0,0,0,341,233.26,118.41,118.41,0,0,0,308.7,226a125.46,125.46,0,0,0-34.85,1.92" style="fill:#fff;stroke:#263238;stroke-miterlimit:10"></path><path d="M318.42,344.52a29.56,29.56,0,0,1-9.1.55,28.34,28.34,0,0,1-8.38-2.11,22.39,22.39,0,0,1-6.68-4.36,16.21,16.21,0,0,1-4.08-6.17,13.12,13.12,0,0,1-.6-6.84,14.6,14.6,0,0,1,2.77-6.23,19.68,19.68,0,0,1,5.61-5,25.89,25.89,0,0,1,7.92-3.06,29.82,29.82,0,0,1,8.85-.52,28.12,28.12,0,0,1,8.18,2,22.68,22.68,0,0,1,6.64,4.17,16.43,16.43,0,0,1,4.23,6,13.19,13.19,0,0,1,.85,6.82,14.33,14.33,0,0,1-2.58,6.34,19.19,19.19,0,0,1-5.56,5.15,25.72,25.72,0,0,1-8.07,3.21m-9.71-47a6.74,6.74,0,0,1-1.43.16,7.59,7.59,0,0,1-1.43-.11,6.5,6.5,0,0,1-1.37-.39,5.72,5.72,0,0,1-1.22-.66,4.39,4.39,0,0,1-1.27-1.36,3.32,3.32,0,0,1-.44-1.56,3.13,3.13,0,0,1,.38-1.56,4.19,4.19,0,0,1,1.2-1.39,4.52,4.52,0,0,1,.56-.37,5,5,0,0,1,.61-.31,5.12,5.12,0,0,1,.65-.25,5.2,5.2,0,0,1,.68-.17,7.54,7.54,0,0,1,2.84,0,6.25,6.25,0,0,1,1.36.39,5.86,5.86,0,0,1,1.21.65,4.35,4.35,0,0,1,1.27,1.35,3.2,3.2,0,0,1,.46,1.55,3.12,3.12,0,0,1-.36,1.57,4.3,4.3,0,0,1-1.19,1.4l-.56.38c-.2.11-.4.22-.61.31l-.66.25a5.2,5.2,0,0,1-.68.17M359,312.62c-.91.2-1.84.35-2.78.46s-1.91.16-2.88.18a29,29,0,0,1-2.94-.11c-1-.08-2-.22-3-.4a26.93,26.93,0,0,1-8.11-2.88,20.1,20.1,0,0,1-5.83-4.76,14.48,14.48,0,0,1-3-6,12.08,12.08,0,0,1,.29-6.49,13.58,13.58,0,0,1,2.12-4.06,17.26,17.26,0,0,1,3.37-3.35,21.63,21.63,0,0,1,4.38-2.54,25.4,25.4,0,0,1,5.11-1.62,26.39,26.39,0,0,1,2.71-.43c.92-.11,1.85-.16,2.8-.18s1.9,0,2.86.1a29.21,29.21,0,0,1,2.9.39,26.9,26.9,0,0,1,8,2.73,20.88,20.88,0,0,1,5.85,4.59,14.76,14.76,0,0,1,3.19,5.86,12.16,12.16,0,0,1,0,6.5,13.41,13.41,0,0,1-2,4.15,16.24,16.24,0,0,1-3.33,3.46,20.91,20.91,0,0,1-4.4,2.65,25.75,25.75,0,0,1-5.22,1.71m-64.39-12.19c-.23.05-.47.08-.7.11s-.48,0-.73,0-.49,0-.73,0a6,6,0,0,1-.74-.1,6.43,6.43,0,0,1-2-.71,4.69,4.69,0,0,1-1.43-1.19,3.53,3.53,0,0,1-.72-1.5,3.16,3.16,0,0,1,.13-1.66,3.68,3.68,0,0,1,.58-1,4.9,4.9,0,0,1,.89-.87,5.92,5.92,0,0,1,1.15-.66,7.22,7.22,0,0,1,1.34-.42,5.37,5.37,0,0,1,.7-.11,5.52,5.52,0,0,1,.71-.05c.25,0,.49,0,.73,0l.74.1a6.4,6.4,0,0,1,2,.71,4.71,4.71,0,0,1,1.44,1.18,3.46,3.46,0,0,1,.73,1.49,3.06,3.06,0,0,1-.12,1.66,3.81,3.81,0,0,1-.56,1,4.66,4.66,0,0,1-.9.87,5.88,5.88,0,0,1-1.15.67,7.23,7.23,0,0,1-1.34.43M261.13,333a30,30,0,0,1-5.83.66,28.82,28.82,0,0,1-5.8-.49,25.79,25.79,0,0,1-5.45-1.63,22,22,0,0,1-4.78-2.77,16.4,16.4,0,0,1-4.75-5.63,13,13,0,0,1-1.39-6.39,13.86,13.86,0,0,1,1.9-6.35,18.27,18.27,0,0,1,5.11-5.57,22.06,22.06,0,0,1,2.3-1.49,22.57,22.57,0,0,1,2.46-1.23,27.09,27.09,0,0,1,2.6-1c.89-.27,1.79-.51,2.7-.7a30,30,0,0,1,5.67-.63,29.59,29.59,0,0,1,5.65.46,25.93,25.93,0,0,1,5.33,1.55,21.94,21.94,0,0,1,4.74,2.65,16.68,16.68,0,0,1,4.86,5.46,13.1,13.1,0,0,1,1.61,6.31,13.67,13.67,0,0,1-1.68,6.42,18.24,18.24,0,0,1-5,5.74,23.87,23.87,0,0,1-2.31,1.55,23.62,23.62,0,0,1-2.5,1.29,25.14,25.14,0,0,1-2.66,1c-.9.29-1.83.54-2.76.74m51.17-45.9a7.8,7.8,0,0,1-2.2.13,7.17,7.17,0,0,1-2-.49,5.28,5.28,0,0,1-1.63-1,3.74,3.74,0,0,1-1-1.43,3.14,3.14,0,0,1-.18-1.62,3.34,3.34,0,0,1,.66-1.48,4.69,4.69,0,0,1,1.36-1.2,6.6,6.6,0,0,1,2-.74h0a7.71,7.71,0,0,1,2.19-.13,7,7,0,0,1,2,.48,5.58,5.58,0,0,1,1.63,1,3.84,3.84,0,0,1,1,1.42,3,3,0,0,1,.19,1.62,3.41,3.41,0,0,1-.65,1.49,4.69,4.69,0,0,1-1.36,1.2,6.36,6.36,0,0,1-2,.76h0m-28,5.75A7.28,7.28,0,0,1,282,293a6.72,6.72,0,0,1-2-.49,5.44,5.44,0,0,1-1.61-1,3.8,3.8,0,0,1-1-1.45,3.06,3.06,0,0,1-.14-1.63,3.49,3.49,0,0,1,.7-1.5,4.9,4.9,0,0,1,1.4-1.21,6.85,6.85,0,0,1,2-.75h0a7.45,7.45,0,0,1,2.2-.13,7,7,0,0,1,2,.49,5.23,5.23,0,0,1,1.61,1,3.91,3.91,0,0,1,1,1.44,3.06,3.06,0,0,1,.15,1.63,3.45,3.45,0,0,1-.68,1.5,4.91,4.91,0,0,1-1.4,1.22,6.75,6.75,0,0,1-2,.76h0M302,279.7l-.69.11c-.23,0-.47,0-.71,0s-.48,0-.72,0a6.38,6.38,0,0,1-.73-.1,6.51,6.51,0,0,1-2-.68,4.93,4.93,0,0,1-1.41-1.15,3.51,3.51,0,0,1-.72-1.46,3,3,0,0,1,.12-1.6,3.29,3.29,0,0,1,.56-1,4.41,4.41,0,0,1,.88-.84,5.82,5.82,0,0,1,1.12-.64A6.9,6.9,0,0,1,299,272l.69-.11c.23,0,.46,0,.7,0l.72,0c.24,0,.48.06.72.1a6.61,6.61,0,0,1,2,.68,4.74,4.74,0,0,1,1.41,1.14,3.46,3.46,0,0,1,.73,1.44,3,3,0,0,1-.1,1.6,3.43,3.43,0,0,1-.55,1,4.44,4.44,0,0,1-.88.85,5.91,5.91,0,0,1-1.13.64,7,7,0,0,1-1.32.42m-13.9,2.83a7.33,7.33,0,0,1-1.41.15,7.49,7.49,0,0,1-1.42-.11,6.82,6.82,0,0,1-1.34-.37,6.21,6.21,0,0,1-1.19-.65,4.35,4.35,0,0,1-1.23-1.32,3.07,3.07,0,0,1,0-3.05,4.24,4.24,0,0,1,1.21-1.35,5.35,5.35,0,0,1,.56-.36c.2-.11.4-.22.61-.31s.43-.16.65-.23.44-.13.67-.18a8.21,8.21,0,0,1,1.4-.15,7.32,7.32,0,0,1,1.41.11,6.54,6.54,0,0,1,1.33.37,5.43,5.43,0,0,1,1.19.64,4,4,0,0,1,1.23,1.32,3.09,3.09,0,0,1,.43,1.51,3.25,3.25,0,0,1-.39,1.53,4.35,4.35,0,0,1-1.2,1.36,5.57,5.57,0,0,1-.57.37c-.19.11-.4.21-.6.3s-.43.17-.65.24-.45.13-.68.18m54.28-10.6a29.59,29.59,0,0,1-5.5.6,30.33,30.33,0,0,1-5.55-.43,27.1,27.1,0,0,1-5.29-1.48,22.71,22.71,0,0,1-4.73-2.5A16.58,16.58,0,0,1,316.4,263a11.9,11.9,0,0,1-1.74-5.76,11.53,11.53,0,0,1,1.4-5.75,15.34,15.34,0,0,1,4.5-5,20.85,20.85,0,0,1,2.1-1.35,23.93,23.93,0,0,1,2.27-1.12,24.65,24.65,0,0,1,2.41-.87c.83-.25,1.67-.47,2.53-.64a29.9,29.9,0,0,1,5.36-.57,29.57,29.57,0,0,1,5.4.41,27.29,27.29,0,0,1,5.18,1.4,23,23,0,0,1,4.68,2.4,17,17,0,0,1,5,4.93,12.12,12.12,0,0,1,1.93,5.7,11.39,11.39,0,0,1-1.19,5.81,15,15,0,0,1-4.41,5.18,20.57,20.57,0,0,1-4.4,2.57,23.41,23.41,0,0,1-2.46.92,24.39,24.39,0,0,1-2.58.67M247.56,291c-.91.18-1.83.33-2.77.43a26.54,26.54,0,0,1-2.83.18c-1,0-1.92,0-2.88-.1a28.43,28.43,0,0,1-2.88-.39,24.33,24.33,0,0,1-7.68-2.77,17.22,17.22,0,0,1-5.28-4.58,12.56,12.56,0,0,1-2.42-5.75,11.77,11.77,0,0,1,.88-6.25,14.79,14.79,0,0,1,2.45-3.92,19,19,0,0,1,3.61-3.22,23.32,23.32,0,0,1,4.52-2.45,28.08,28.08,0,0,1,5.16-1.57,27,27,0,0,1,2.7-.41c.91-.1,1.83-.16,2.76-.17s1.86,0,2.8.09,1.87.2,2.8.37a24.57,24.57,0,0,1,7.55,2.64,17.7,17.7,0,0,1,5.32,4.42,12.72,12.72,0,0,1,2.59,5.64,11.68,11.68,0,0,1-.64,6.27,14.75,14.75,0,0,1-2.35,4,18.75,18.75,0,0,1-3.58,3.34,23.94,23.94,0,0,1-4.56,2.55,28.37,28.37,0,0,1-5.27,1.65m40.59-29.23a29.15,29.15,0,0,1-8.5.48,26.87,26.87,0,0,1-7.76-1.83,20.47,20.47,0,0,1-6.14-3.79,13.7,13.7,0,0,1-3.67-5.36,10.71,10.71,0,0,1-.41-6,12.79,12.79,0,0,1,2.72-5.43,18.78,18.78,0,0,1,5.35-4.33,25.7,25.7,0,0,1,7.46-2.68,29.4,29.4,0,0,1,8.28-.45,26.82,26.82,0,0,1,7.58,1.74,20.66,20.66,0,0,1,6.11,3.63A13.9,13.9,0,0,1,303,243a10.74,10.74,0,0,1,.63,5.94,12.51,12.51,0,0,1-2.55,5.52,18.44,18.44,0,0,1-5.31,4.48,25.48,25.48,0,0,1-7.59,2.8M273.3,223.85a110.62,110.62,0,0,0-31.71,11.27,83.54,83.54,0,0,0-23.42,18.62,60.08,60.08,0,0,0-12.88,24,50.69,50.69,0,0,0,.52,27.26,61,61,0,0,0,15.37,25.4,87.89,87.89,0,0,0,27.39,18.46A115.93,115.93,0,0,0,284.1,358a125,125,0,0,0,39.07-2.35,107.44,107.44,0,0,0,34.24-13.8,77.26,77.26,0,0,0,22.8-21.6,55.61,55.61,0,0,0,9.62-25.82,51.58,51.58,0,0,0-4.72-26.82,66.53,66.53,0,0,0-17.91-22.89,93.91,93.91,0,0,0-26.79-15.48,118.41,118.41,0,0,0-32.26-7.3,125.46,125.46,0,0,0-34.85,1.92" style="fill:#fff;stroke:#263238;stroke-miterlimit:10"></path></g></svg>