<svg xmlns="http://www.w3.org/2000/svg" viewBox="0 0 500 500"><g id="freepik--background-complete--inject-51"><path d="M85.21,322.89l-13.13.28-6.66.11c-2.22.05-4.46,0-6.69.06h-.45v-.45l-.05-11.19v-.5h.5l13.24.06c4.41,0,8.82.12,13.24.17h.27v.27c0,1.9-.09,3.79-.13,5.65Zm0,0-.14-5.65c0-1.87-.12-3.71-.14-5.54l.28.27c-4.42,0-8.83.16-13.24.17l-13.24.06.5-.5-.06,11.19-.44-.45c2.18,0,4.35,0,6.54.06l6.58.11Z" style="fill:#ebebeb"></path><path d="M70.44,337l-13.13.28-6.66.11c-2.23.05-4.46,0-6.69.06h-.45V337l0-11.19v-.5H44l13.24.06c4.41,0,8.82.12,13.24.17h.27v.27c0,1.9-.09,3.79-.13,5.65Zm0,0-.15-5.65c0-1.87-.11-3.71-.13-5.54l.28.27c-4.42.05-8.83.16-13.24.17L44,326.31l.49-.5L44.4,337l-.44-.45c2.18,0,4.35,0,6.54.06l6.58.11Z" style="fill:#ebebeb"></path><rect x="73.5" y="325.81" width="26.48" height="11.19" style="fill:#ebebeb"></rect><path d="M401.09,165l-13.12.28-6.66.12c-2.23,0-4.47,0-6.7,0h-.44V165l-.06-11.18v-.51h.5l13.24.06c4.42,0,8.83.11,13.24.16h.28v.27c0,1.89-.09,3.78-.14,5.65Zm0,0-.14-5.65c0-1.86-.11-3.7-.13-5.53l.27.27c-4.41,0-8.82.16-13.24.16l-13.24.06.5-.49L375.06,165l-.45-.44c2.18,0,4.36,0,6.55,0l6.58.12Z" style="fill:#ebebeb"></path><path d="M386.32,179.14l-13.12.28-6.67.12c-2.22,0-4.46,0-6.69.05h-.44v-.45L359.34,168v-.5h.5l13.24.06c4.41,0,8.83.11,13.24.16h.28V168c0,1.9-.08,3.79-.13,5.66Zm0,0-.14-5.65c-.05-1.86-.11-3.7-.13-5.54l.27.28c-4.41.05-8.83.16-13.24.16l-13.24.06.5-.5,0,11.19-.45-.44c2.18,0,4.36,0,6.55.05l6.57.12Z" style="fill:#ebebeb"></path><rect x="389.38" y="167.95" width="26.48" height="11.19" style="fill:#ebebeb"></rect><rect x="414.79" y="325.81" width="26.48" height="11.19" style="fill:#ebebeb"></rect><rect x="414.79" y="44.58" width="26.48" height="11.19" style="fill:#ebebeb"></rect><path d="M456,69.88l-13.12.27-6.66.12c-2.23,0-4.46,0-6.7,0h-.44v-.44l-.06-11.19v-.51h.5l13.24.06c4.42,0,8.83.11,13.24.16h.28v.27c0,1.89-.09,3.78-.13,5.65Zm0,0-.14-5.66c0-1.86-.11-3.7-.13-5.53L456,59c-4.41,0-8.82.16-13.24.16l-13.24.06.5-.49L430,69.88l-.45-.45c2.19,0,4.36,0,6.55,0l6.58.12Z" style="fill:#ebebeb"></path><path d="M70.44,55.78l-13.13.28-6.66.11c-2.23,0-4.46,0-6.69,0h-.45v-.45l0-11.19v-.5H44l13.24.06c4.41,0,8.82.11,13.24.16h.27v.27c0,1.9-.09,3.78-.13,5.65Zm0,0-.15-5.66c0-1.86-.11-3.7-.13-5.53l.28.27c-4.42,0-8.83.16-13.24.16L44,45.09l.49-.5L44.4,55.78,44,55.33c2.18,0,4.35,0,6.54.06l6.58.11Z" style="fill:#ebebeb"></path><rect x="81.5" y="243.94" width="26.48" height="11.19" transform="translate(189.47 499.08) rotate(180)" style="fill:#ebebeb"></rect><path d="M96.27,229.83l13.12-.28,6.66-.11c2.23,0,4.47,0,6.7-.05h.44v.45l.06,11.19v.51h-.5l-13.24-.06c-4.42,0-8.83-.11-13.24-.16H96V241c0-1.9.09-3.78.14-5.65Zm0,0,.14,5.66c0,1.86.11,3.7.13,5.53l-.27-.27c4.41-.05,8.82-.16,13.24-.16l13.24-.07-.5.5,0-11.19.45.45c-2.18,0-4.36,0-6.55-.06l-6.58-.11Z" style="fill:#ebebeb"></path><polygon points="463.04 412 292.53 412 288.99 342.03 466.59 342.03 463.04 412" style="fill:#ebebeb"></polygon><path d="M299.06,349.77h74.18l-1.34,24.29H300.62Zm73.27.86H300l1.45,22.57h69.66Z" style="fill:#dbdbdb"></path><path d="M300.56,380.08H370.2L369.11,402H301.93Zm68.73.86H301.48l1.26,20.2h65.55Z" style="fill:#dbdbdb"></path><path d="M328.64,358.69h13.49l-.76,5.86h-12Zm12.51.86H329.62l.53,4.14h10.47Z" style="fill:#dbdbdb"></path><path d="M328.64,388.11h13.49l-.76,5.86h-12Zm12.51.86H329.62l.53,4.14h10.47Z" style="fill:#dbdbdb"></path><path d="M382.9,349.77h74.19l-1.34,24.29H384.46Zm73.28.86H383.82l1.45,22.57h69.66Z" style="fill:#dbdbdb"></path><path d="M384.41,380.08h69.64L453,402H385.78Zm68.73.86H385.33l1.26,20.2h65.55Z" style="fill:#dbdbdb"></path><path d="M412.49,358.69H426l-.76,5.86h-12Zm12.51.86H413.47l.53,4.14h10.46Z" style="fill:#dbdbdb"></path><path d="M412.49,388.11H426l-.76,5.86h-12ZM425,389H413.47l.53,4.14h10.46Z" style="fill:#dbdbdb"></path><polygon points="447.75 412 448.82 419.62 450.98 434.93 455.19 434.93 455.19 412 447.75 412" style="fill:#ebebeb"></polygon><polygon points="447.75 412 448.82 419.62 455.19 419.62 455.19 412 447.75 412" style="fill:#dbdbdb"></polygon><polygon points="307.82 412 306.75 419.62 304.6 434.93 300.39 434.93 300.39 412 307.82 412" style="fill:#ebebeb"></polygon><polygon points="307.82 412 306.75 419.62 300.39 419.62 300.39 412 307.82 412" style="fill:#dbdbdb"></polygon><rect x="384.07" y="309.71" width="51.58" height="12.99" transform="translate(726.07 -93.65) rotate(90)" style="fill:#c7c7c7"></rect><rect x="407.02" y="284" width="5.67" height="12.99" transform="translate(700.35 -119.37) rotate(90)" style="fill:#dbdbdb"></rect><rect x="408.81" y="295.15" width="2.1" height="12.99" transform="translate(711.5 -108.22) rotate(90)" style="fill:#dbdbdb"></rect><rect x="407.02" y="325.9" width="5.67" height="12.99" transform="translate(742.26 -77.46) rotate(90)" style="fill:#dbdbdb"></rect><rect x="368.74" y="307.37" width="60.17" height="9.08" transform="translate(710.74 -86.91) rotate(90)" style="fill:#dbdbdb"></rect><rect x="387.29" y="296.33" width="23.14" height="5.45" transform="translate(697.92 -99.81) rotate(90)" style="fill:#ebebeb"></rect><rect x="324.12" y="313.01" width="60.17" height="9.08" transform="translate(829.35 294.4) rotate(135.33)" style="fill:#c7c7c7"></rect><rect x="339.49" y="317.9" width="23.14" height="5.45" transform="translate(826.13 301.87) rotate(135.33)" style="fill:#dbdbdb"></rect><rect x="363.73" y="311.45" width="45.71" height="15.42" transform="translate(705.74 -67.43) rotate(90)" style="fill:#a6a6a6"></rect><rect x="384.45" y="327.33" width="4.26" height="15.42" transform="translate(721.62 -51.55) rotate(90)" style="fill:#c7c7c7"></rect><rect x="385.76" y="321.57" width="1.65" height="15.42" transform="translate(715.86 -57.3) rotate(90)" style="fill:#c7c7c7"></rect><rect x="408.16" y="314.87" width="42.95" height="10.65" transform="translate(554.38 -200.91) rotate(66.77)" style="fill:#a6a6a6"></rect><rect x="433.52" y="328.58" width="4" height="10.65" transform="matrix(0.39, 0.92, -0.92, 0.39, 570.55, -198.02)" style="fill:#c7c7c7"></rect><rect x="423.45" y="305.11" width="4" height="10.65" transform="matrix(0.39, 0.92, -0.92, 0.39, 542.88, -202.97)" style="fill:#c7c7c7"></rect><rect x="426.85" y="310.18" width="1.55" height="10.65" transform="translate(548.87 -201.9) rotate(66.77)" style="fill:#c7c7c7"></rect><rect x="429.42" width="1" height="76.24" style="fill:#c7c7c7"></rect><polygon points="393.25 111.59 396.19 118.07 463.64 118.07 466.58 111.59 437.87 91.71 421.96 91.71 393.25 111.59" style="fill:#ebebeb"></polygon><polygon points="419.97 72.56 421.96 91.71 437.87 91.71 439.86 72.56 419.97 72.56" style="fill:#dbdbdb"></polygon><polygon points="393.25 111.59 396.2 118.08 463.65 118.08 466.59 111.59 393.25 111.59" style="fill:#dbdbdb"></polygon><rect x="350.68" width="1" height="55.33" style="fill:#c7c7c7"></rect><polygon points="314.51 90.67 317.46 97.16 384.91 97.16 387.85 90.67 359.13 70.8 343.23 70.8 314.51 90.67" style="fill:#ebebeb"></polygon><polygon points="341.23 51.65 343.23 70.8 359.13 70.8 361.13 51.65 341.23 51.65" style="fill:#dbdbdb"></polygon><polygon points="314.51 90.68 317.46 97.16 384.91 97.16 387.85 90.68 314.51 90.68" style="fill:#dbdbdb"></polygon><polygon points="61.18 97.26 122.46 86.58 113.57 44.49 52.29 55.16 61.18 97.26" style="fill:#c7c7c7"></polygon><polygon points="91 43.9 112.65 40.13 113.57 44.49 90.67 48.48 91 43.9" style="fill:#c7c7c7"></polygon><polygon points="61.24 97.25 122.52 86.57 118.44 47.26 57.17 57.94 61.24 97.25" style="fill:#dbdbdb"></polygon><polygon points="96.37 46.96 118.02 43.19 118.44 47.26 95.55 51.25 96.37 46.96" style="fill:#dbdbdb"></polygon><polygon points="87.47 139.34 163.4 144.03 164.78 91.43 88.84 86.73 87.47 139.34" style="fill:#dbdbdb"></polygon><polygon points="138.09 84.32 164.92 85.98 164.78 91.43 136.41 89.67 138.09 84.32" style="fill:#dbdbdb"></polygon><polygon points="87.55 139.34 163.48 144.04 169.79 96.11 93.86 91.41 87.55 139.34" style="fill:#ebebeb"></polygon><polygon points="143.62 89.48 170.44 91.14 169.79 96.11 141.42 94.35 143.62 89.48" style="fill:#ebebeb"></polygon><polygon points="392.71 232.95 392.71 212.23 414 222.59 392.71 232.95" style="fill:#ebebeb"></polygon><polygon points="454.09 227.65 454.09 217.53 464.49 222.59 454.09 227.65" style="fill:#ebebeb"></polygon><polygon points="445.78 227.65 445.78 217.53 456.17 222.59 445.78 227.65" style="fill:#ebebeb"></polygon><polygon points="352.63 217.53 352.63 227.65 342.23 222.59 352.63 217.53" style="fill:#ebebeb"></polygon><polygon points="360.94 217.53 360.94 227.65 350.54 222.59 360.94 217.53" style="fill:#ebebeb"></polygon><rect x="340.15" y="213.95" width="2.08" height="17.27" style="fill:#ebebeb"></rect><rect x="464.51" y="213.95" width="2.08" height="17.27" style="fill:#ebebeb"></rect></g><g id="freepik--Shadow--inject-51"><path d="M255.08,461.41c0,6-47.3,10.93-105.63,10.93S43.82,467.45,43.82,461.41s47.29-10.93,105.63-10.93S255.08,455.38,255.08,461.41Z" style="fill:#ebebeb"></path></g><g id="freepik--Floor--inject-51"><polygon points="32.78 434.93 87.08 434.69 141.39 434.6 250 434.43 358.61 434.6 412.92 434.69 467.22 434.93 412.92 435.18 358.61 435.26 250 435.43 141.39 435.26 87.08 435.17 32.78 434.93" style="fill:#263238"></polygon></g><g id="freepik--Plant--inject-51"><path d="M423.15,366.63a284.59,284.59,0,0,0-.41-30.21,384.53,384.53,0,0,0-9.47-61.55c-2.64-11.39-5.89-22.59-9.27-33.77-.11-.34-.65-.25-.55.1,10.47,39.44,19.06,80.13,18.47,121.12-.16,11.47-1.49,22.74-2.58,34.14,0,.3.47.43.54.11C422,386.82,422.75,376.6,423.15,366.63Z" style="fill:#F3B616"></path><path d="M403.45,241.2s-15.87,40.27-12.31,49.74S402,302.42,402,302.42s-9.71,13.86-2.92,26.86,21.85,12.38,22.85,27.12C421.94,356.4,422.78,294.78,403.45,241.2Z" style="fill:#F3B616"></path><path d="M420.22,331a.31.31,0,0,0,0-.21,368.46,368.46,0,0,0-15.39-81c0-.08-.15-.06-.13,0q4.72,17.67,8.33,35.53a17.5,17.5,0,0,0-7.57-4.22c-.05,0-.08.06,0,.08,2.93,1.27,5.75,2.74,7.82,5.23.46,2.33.92,4.66,1.35,7-3.55-4-8.46-5.93-13.38-7.79-.07,0-.11.08,0,.1,5.12,2.09,10.23,4.78,13.7,9.19q1.81,10,3.18,20.12a19.12,19.12,0,0,0-9.46-5.42.09.09,0,0,0-.06.17,19.94,19.94,0,0,1,9.6,6.14l.06.05q.46,3.54.89,7.1a24.58,24.58,0,0,0-6.63-4c-.06,0-.1.08,0,.1a23,23,0,0,1,6.64,4.4s.05,0,.08,0c.27,2.26.53,4.51.76,6.77a32.26,32.26,0,0,0-13.46-9.6c-.1,0-.15.12-.05.16a35.11,35.11,0,0,1,13.26,10.2.3.3,0,0,0,.33.11c.34,3.46.65,6.93.9,10.41,0,.05.09.05.08,0C420.75,338.07,420.5,334.51,420.22,331Z" style="fill:#263238"></path><path d="M407.47,277.07a19.81,19.81,0,0,0-9.53-3,.06.06,0,1,0,0,.12,37.41,37.41,0,0,1,9.42,3.08A.13.13,0,0,0,407.47,277.07Z" style="fill:#263238"></path><path d="M409.4,319.7a20.17,20.17,0,0,0-7.16-2.45c-.09,0-.09.12,0,.14a27,27,0,0,1,7.08,2.48C409.41,319.92,409.49,319.76,409.4,319.7Z" style="fill:#263238"></path><path d="M464.86,291.59a108,108,0,0,0-18.37,16.05,66.07,66.07,0,0,0-12.87,21.84,163.12,163.12,0,0,0-9.6,52.24,126.58,126.58,0,0,0,2.83,29.37.28.28,0,0,0,.55-.11,164.62,164.62,0,0,1,.29-51.34c2.72-16.66,7-34.78,17.59-48.32,5.77-7.37,13-13.17,20.06-19.16C465.72,291.84,465.24,291.32,464.86,291.59Z" style="fill:#F3B616"></path><path d="M426.36,369.72a99.18,99.18,0,0,1,13.38-17.11c7.94-7.93,14.62-13.57,15.65-18.82s-7.95-9.11-7.95-9.11,11,2,14-2.64,4.46-31.3,4.46-31.3S445.91,305,436.6,325,426.36,369.72,426.36,369.72Z" style="fill:#F3B616"></path><path d="M459,297.58c-8.4,8.26-16.86,17.06-21.81,27.9A106.39,106.39,0,0,0,432.74,337v0c-.26.79-.52,1.57-.76,2.37a.5.5,0,0,0,0,.13,224,224,0,0,0-5.67,24.66c0,.05.07.08.08,0,.86-4.17,1.81-8.37,2.87-12.57a.25.25,0,0,0,.12,0,17.35,17.35,0,0,1,5.24-1.33c.12,0,.11-.22,0-.21a19.54,19.54,0,0,0-5.19.94c1-3.78,2-7.55,3.21-11.27a56.27,56.27,0,0,1,11.85-1.55,0,0,0,1,0,0-.06,44.66,44.66,0,0,0-11.65,1l.63-1.91a60.44,60.44,0,0,1,7.89-1.33c.05,0,0-.09,0-.09a38.62,38.62,0,0,0-7.73.94c1.09-3.22,2.27-6.39,3.57-9.48a58.09,58.09,0,0,1,3.77-7.32,46.38,46.38,0,0,1,6.4-1.14c.06,0,.05-.1,0-.11a17.29,17.29,0,0,0-6,.59q1.57-2.55,3.34-5h0c4.48-1,9-1.91,13.61-1.05.07,0,.1-.12,0-.14-4.37-1.15-8.7-.48-13,.37.47-.63,1-1.25,1.45-1.87a29.61,29.61,0,0,1,8.37-1.31c.06,0,.07-.09,0-.09a21.65,21.65,0,0,0-7.81.69c3.71-4.6,7.8-8.93,11.84-13.2C459.32,297.5,459.17,297.38,459,297.58Z" style="fill:#263238"></path><path d="M458.75,315.78a18.18,18.18,0,0,0-4-.14c-.16,0-.15.28,0,.28,1.32,0,2.63-.06,3.95,0A.08.08,0,1,0,458.75,315.78Z" style="fill:#263238"></path><path d="M444.37,341.67a18.08,18.08,0,0,0-6.16,1.24s0,.1,0,.09c2-.49,4.09-.68,6.15-1A.16.16,0,0,0,444.37,341.67Z" style="fill:#263238"></path><path d="M440.06,332.73a12.73,12.73,0,0,0-2.61.23c-.09,0-.09.16,0,.16a13.46,13.46,0,0,0,2.62-.12A.14.14,0,0,0,440.06,332.73Z" style="fill:#263238"></path><path d="M367.79,319.92a91,91,0,0,1,18.57,8.75,55.68,55.68,0,0,1,15.47,14.7,137.49,137.49,0,0,1,19.83,40.05,106.31,106.31,0,0,1,4.5,24.42.23.23,0,0,1-.46.05,138.55,138.55,0,0,0-12.11-41.49c-6-12.85-13.7-26.53-25.4-35-6.37-4.63-13.53-7.66-20.67-10.87C367.15,320.32,367.41,319.79,367.79,319.92Z" style="fill:#F3B616"></path><path d="M417,374.25a83.31,83.31,0,0,0-14.79-10.75c-8.25-4.59-15-7.61-17-11.61s4.32-9.22,4.32-9.22-8.43,4.14-11.92,1.1-10.85-24.3-10.85-24.3,19.47,6.92,31.63,21S417,374.25,417,374.25Z" style="fill:#F3B616"></path><path d="M416,369.87c-9.74-18.28-22.73-34.81-40.53-45.72,0,0,0,0,0,0a89.52,89.52,0,0,1,13,10.19A20.73,20.73,0,0,0,378,336.56a.06.06,0,0,0,.06.11,28.87,28.87,0,0,1,10.76-1.82.25.25,0,0,0,.13,0c.63.6,1.25,1.2,1.87,1.82a32.79,32.79,0,0,0-5.59.74c-.05,0,0,.09,0,.08a28.59,28.59,0,0,1,5.91-.49,123.12,123.12,0,0,1,9.18,10.43,9.38,9.38,0,0,0-3.91.28.08.08,0,0,0,0,.15,20.77,20.77,0,0,1,4.17-.06c.54.68,1.07,1.35,1.6,2A37.67,37.67,0,0,0,390.41,351c-.06,0,0,.1,0,.09a47.48,47.48,0,0,1,12.13-.79c.5.66,1,1.34,1.46,2a25.77,25.77,0,0,0-7,.81c-.08,0-.06.16,0,.14a27,27,0,0,1,7.28-.57c2.1,2.89,4.1,5.84,6,8.82a6.61,6.61,0,0,0-3.09.19c-.05,0,0,.09,0,.08a13.8,13.8,0,0,1,3.34.16q2.6,4,5,8.17C415.74,370.28,416.12,370.11,416,369.87Z" style="fill:#263238"></path><path d="M400.84,354.71a14.82,14.82,0,0,0-5.65.69,0,0,0,1,0,0,.08,44.19,44.19,0,0,1,5.63-.57C401,354.9,401,354.72,400.84,354.71Z" style="fill:#263238"></path><path d="M383.86,332.44a9.53,9.53,0,0,0-2.61.15c-.1,0-.07.16,0,.15.86-.09,1.71-.06,2.56-.08C384,332.65,384,332.45,383.86,332.44Z" style="fill:#263238"></path><polygon points="442.11 434.68 398.17 434.68 404.43 388.79 406.03 377.02 434.24 377.02 435.84 388.79 442.11 434.68" style="fill:#455a64"></polygon><polygon points="435.84 388.79 404.43 388.79 406.03 377.02 434.24 377.02 435.84 388.79" style="fill:#263238"></polygon><rect x="402" y="372.94" width="36.28" height="9.97" style="fill:#455a64"></rect></g><g id="freepik--Device--inject-51"><path d="M332.21,62.5H167.77a16.79,16.79,0,0,0-16.64,17V418a16.8,16.8,0,0,0,16.64,16.94H332.21A16.81,16.81,0,0,0,348.87,418V79.45A16.8,16.8,0,0,0,332.21,62.5Zm6.26,345c0,8.91-6.67,16.12-14.9,16.12H176.44c-8.25,0-14.92-7.21-14.92-16.12V92.28c0-18.15,6.67-19,14.92-19h29.47c1.71,0,3.11,2,3.11,4.36v1c0,5.65,3.1,5.67,6.9,5.67h68.15c3.83,0,6.9,0,6.9-5.67v-1c0-2.41,1.38-4.36,3.12-4.36h29.48c8.23,0,14.9,2.41,14.9,19Z" style="fill:#37474f"></path><path d="M259.29,77.25H240.7a1.15,1.15,0,0,1-1.15-1.15h0A1.15,1.15,0,0,1,240.7,75h18.59a1.14,1.14,0,0,1,1.15,1.14h0A1.14,1.14,0,0,1,259.29,77.25Z" style="fill:#263238"></path><path d="M338.47,92.28V407.52c0,8.91-6.67,16.12-14.9,16.12H176.45c-8.25,0-14.93-7.21-14.93-16.12V92.28c0-18.15,6.68-19,14.93-19h29.46c1.71,0,3.11,2,3.11,4.36v1c0,5.65,3.1,5.67,6.9,5.67h68.15c3.84,0,6.9,0,6.9-5.67v-1c0-2.41,1.38-4.36,3.12-4.36h29.48C331.8,73.24,338.47,75.65,338.47,92.28Z" style="fill:#fff"></path><path d="M338.47,92.28v39.41h-177V92.28c0-18.15,6.67-19,14.92-19h29.48c1.71,0,3.11,2,3.11,4.36v1c0,5.65,3.09,5.67,6.89,5.67h68.15c3.83,0,6.91,0,6.91-5.67v-1c0-2.41,1.38-4.36,3.12-4.36h29.46C331.79,73.24,338.47,75.65,338.47,92.28Z" style="fill:#F3B616"></path><polygon points="179.43 114.32 174.2 109.42 179.43 104.52 180.24 105.39 175.94 109.42 180.24 113.45 179.43 114.32" style="fill:#fff"></polygon><path d="M324.77,106.37a1,1,0,1,1-1-1A1,1,0,0,1,324.77,106.37Z" style="fill:#fff"></path><path d="M324.77,110a1,1,0,1,1-1-1A1,1,0,0,1,324.77,110Z" style="fill:#fff"></path><path d="M324.77,113.68a1,1,0,1,1-1-1A1,1,0,0,1,324.77,113.68Z" style="fill:#fff"></path><g id="freepik--u5Zjqx--inject-51"><path d="M200.83,80.32l-.29.29-.16.16a3.87,3.87,0,0,0-5.49,0l-.15-.16c-.1-.09-.19-.19-.28-.28h0l0,0,.36-.32a4.19,4.19,0,0,1,.83-.53,4.26,4.26,0,0,1,1.11-.37c.18,0,.36,0,.55-.08h.48l.38,0a4,4,0,0,1,1,.24,3.81,3.81,0,0,1,.68.32,4.12,4.12,0,0,1,.66.46l.3.27Z" style="fill:#fff"></path><path d="M195.79,81.66l-.45-.44a3.12,3.12,0,0,1,1.84-.92,3.2,3.2,0,0,1,2.75.91l-.45.45a2.62,2.62,0,0,0-3.69,0Z" style="fill:#fff"></path><path d="M199,82.11l-.45.45a1.32,1.32,0,0,0-.94-.39,1.34,1.34,0,0,0-.95.39l-.44-.45A2,2,0,0,1,199,82.11Z" style="fill:#fff"></path><path d="M198,83a.41.41,0,0,1-.81,0,.41.41,0,1,1,.81,0Z" style="fill:#fff"></path></g><path d="M173.06,81.18a1.18,1.18,0,1,1,1.17,1.18A1.18,1.18,0,0,1,173.06,81.18Z" style="fill:#fff"></path><path d="M176.75,81.18a1.18,1.18,0,1,1,1.18,1.18A1.18,1.18,0,0,1,176.75,81.18Z" style="fill:#fff"></path><path d="M180.45,81.18a1.17,1.17,0,1,1,1.17,1.18A1.17,1.17,0,0,1,180.45,81.18Z" style="fill:#fff"></path><path d="M184.14,81.18a1.18,1.18,0,1,1,1.17,1.18A1.18,1.18,0,0,1,184.14,81.18Z" style="fill:#fff"></path><path d="M187.83,81.18A1.18,1.18,0,1,1,189,82.36,1.18,1.18,0,0,1,187.83,81.18Z" style="fill:#fff"></path><path d="M325.2,83.75h-9.56V79.31h9.56Zm-9.06-.5h8.56V79.81h-8.56Z" style="fill:#fff"></path><rect x="316.44" y="80.07" width="6.15" height="2.92" style="fill:#fff"></rect><rect x="325.2" y="80.35" width="0.85" height="2.37" style="fill:#fff"></rect><polygon points="188.41 404.37 187.06 404.37 187.06 410.54 184.55 410.54 184.55 407.4 180.1 407.4 180.1 410.54 177.59 410.54 177.59 404.37 176.24 404.37 182.32 398.08 188.41 404.37" style="fill:#ebebeb"></polygon><rect x="309.1" y="398.08" width="14.67" height="2.1" style="fill:#ebebeb"></rect><rect x="309.1" y="403.26" width="14.67" height="2.1" style="fill:#ebebeb"></rect><rect x="309.1" y="408.45" width="14.67" height="2.1" style="fill:#ebebeb"></rect><polygon points="254.17 403.48 250 407.93 245.83 403.48 246.56 402.79 250 406.45 253.44 402.79 254.17 403.48" style="fill:#ebebeb"></polygon><path d="M250,412.53a7.58,7.58,0,1,1,7.58-7.58A7.59,7.59,0,0,1,250,412.53Zm0-14.15a6.58,6.58,0,1,0,6.58,6.57A6.58,6.58,0,0,0,250,398.38Z" style="fill:#ebebeb"></path><polygon points="320.63 304.65 318.13 304.65 318.13 303.65 319.63 303.65 319.63 302.15 320.63 302.15 320.63 304.65" style="fill:#F3B616"></polygon><path d="M314.24,304.65h-3.9v-1h3.9Zm-7.79,0h-3.89v-1h3.89Zm-7.79,0h-3.89v-1h3.89Zm-7.78,0H287v-1h3.9Zm-7.79,0H279.2v-1h3.89Zm-7.79,0h-3.89v-1h3.89Zm-7.78,0h-3.9v-1h3.9Zm-7.79,0h-3.89v-1h3.89Zm-7.79,0h-3.89v-1h3.89Zm-7.78,0h-3.9v-1h3.9Zm-7.79,0h-3.89v-1h3.89Zm-7.79,0h-3.89v-1h3.89Zm-7.78,0h-3.9v-1h3.9Zm-7.79,0h-3.89v-1H213Zm-7.79,0h-3.89v-1h3.89Zm-7.78,0h-3.9v-1h3.9Zm-7.79,0h-3.89v-1h3.89Z" style="fill:#F3B616"></path><polygon points="181.87 304.65 179.37 304.65 179.37 302.15 180.37 302.15 180.37 303.65 181.87 303.65 181.87 304.65" style="fill:#F3B616"></polygon><path d="M180.37,298.17h-1v-4h1Zm0-8h-1v-4h1Zm0-7.95h-1v-4h1Zm0-8h-1v-4h1Zm0-8h-1v-4h1Zm0-7.95h-1v-4h1Zm0-8h-1v-4h1Zm0-8h-1v-4h1Zm0-8h-1v-4h1Zm0-7.95h-1v-4h1Zm0-8h-1v-4h1Zm0-8h-1v-4h1Zm0-7.95h-1v-4h1Z" style="fill:#F3B616"></path><polygon points="180.37 194.73 179.37 194.73 179.37 192.23 181.87 192.23 181.87 193.23 180.37 193.23 180.37 194.73" style="fill:#F3B616"></polygon><path d="M314.24,193.23h-3.9v-1h3.9Zm-7.79,0h-3.89v-1h3.89Zm-7.79,0h-3.89v-1h3.89Zm-7.78,0H287v-1h3.9Zm-7.79,0H279.2v-1h3.89Zm-7.79,0h-3.89v-1h3.89Zm-7.78,0h-3.9v-1h3.9Zm-7.79,0h-3.89v-1h3.89Zm-7.79,0h-3.89v-1h3.89Zm-7.78,0h-3.9v-1h3.9Zm-7.79,0h-3.89v-1h3.89Zm-7.79,0h-3.89v-1h3.89Zm-7.78,0h-3.9v-1h3.9Zm-7.79,0h-3.89v-1H213Zm-7.79,0h-3.89v-1h3.89Zm-7.78,0h-3.9v-1h3.9Zm-7.79,0h-3.89v-1h3.89Z" style="fill:#F3B616"></path><polygon points="320.63 194.73 319.63 194.73 319.63 193.23 318.13 193.23 318.13 192.23 320.63 192.23 320.63 194.73" style="fill:#F3B616"></polygon><path d="M320.63,298.17h-1v-4h1Zm0-8h-1v-4h1Zm0-7.95h-1v-4h1Zm0-8h-1v-4h1Zm0-8h-1v-4h1Zm0-7.95h-1v-4h1Zm0-8h-1v-4h1Zm0-8h-1v-4h1Zm0-8h-1v-4h1Zm0-7.95h-1v-4h1Zm0-8h-1v-4h1Zm0-8h-1v-4h1Zm0-7.95h-1v-4h1Z" style="fill:#F3B616"></path><path d="M197.77,262.68a13.46,13.46,0,0,0,12.46,13.42v0h76.18a15.81,15.81,0,0,0,1.48-31.56,26.64,26.64,0,0,0-51.63-8.33,15.64,15.64,0,0,0-7.07-1.67,15.8,15.8,0,0,0-15.78,14.83,13.09,13.09,0,0,0-2.18-.18A13.46,13.46,0,0,0,197.77,262.68Z" style="fill:#F3B616"></path><rect x="243.12" y="258.59" width="13.75" height="17.55" style="fill:#fff"></rect><polygon points="238.4 258.59 261.59 258.59 250 247.02 238.4 258.59" style="fill:#fff"></polygon><path d="M217.6,113.08a2.77,2.77,0,0,1-2.77-2.78v-3.42a.52.52,0,0,1,.53-.53.53.53,0,0,1,.53.53v3.42a1.72,1.72,0,0,0,3.43,0v-3.42a.53.53,0,0,1,.53-.53.52.52,0,0,1,.53.53v3.42A2.78,2.78,0,0,1,217.6,113.08Z" style="fill:#fff"></path><path d="M224.9,110.46h-1.19v2.09a.53.53,0,1,1-1.06,0v-5.67a.53.53,0,0,1,.52-.53h1.73a2.06,2.06,0,1,1,0,4.11Zm-1.19-1.06h1.19a1,1,0,1,0,0-2h-1.19Z" style="fill:#fff"></path><path d="M228.25,112.55v-5.67a.53.53,0,0,1,.53-.53.54.54,0,0,1,.54.53V112h2.61a.54.54,0,0,1,0,1.07h-3.15A.53.53,0,0,1,228.25,112.55Z" style="fill:#fff"></path><path d="M238.59,107.19a3.53,3.53,0,0,1,0,4.86,3.17,3.17,0,0,1-2.3,1,3.25,3.25,0,0,1-2.35-1,3.58,3.58,0,0,1,0-4.86,3.17,3.17,0,0,1,2.35-1A3.1,3.1,0,0,1,238.59,107.19Zm-.13,2.43a2.48,2.48,0,0,0-.65-1.68,2.05,2.05,0,0,0-3.07,0,2.4,2.4,0,0,0-.66,1.68,2.38,2.38,0,0,0,.66,1.67,2.05,2.05,0,0,0,3.07,0A2.46,2.46,0,0,0,238.46,109.62Z" style="fill:#fff"></path><path d="M244.51,111.49h-2.34l-.47,1.25a.55.55,0,0,1-.5.34.48.48,0,0,1-.18,0,.54.54,0,0,1-.32-.69l2.12-5.67a.54.54,0,0,1,.51-.33.52.52,0,0,1,.51.33l2.13,5.67a.55.55,0,0,1-.32.69.52.52,0,0,1-.18,0,.52.52,0,0,1-.49-.34Zm-.4-1.06-.78-2.06-.78,2.06Z" style="fill:#fff"></path><path d="M247.29,112.55v-5.67a.52.52,0,0,1,.53-.53H249a3.37,3.37,0,0,1,0,6.73h-1.13A.53.53,0,0,1,247.29,112.55Zm1.06-.54h.6a2.3,2.3,0,0,0,0-4.59h-.6Z" style="fill:#fff"></path><path d="M259.28,113l-.07,0s0,0,0,0l-.05-.05h0a.3.3,0,0,0,0-.08l-2.36-5.61a.53.53,0,0,1,.29-.69.52.52,0,0,1,.68.28l1.88,4.45,1.87-4.45a.53.53,0,0,1,1,.41l-2.37,5.61a.3.3,0,0,1,0,.08h0s0,0,0,.05l0,0-.06,0h0l-.08.05h0l-.08,0h-.23l-.08,0h0l-.08-.06Z" style="fill:#fff"></path><path d="M263.89,106.88a.52.52,0,0,1,.53-.53.53.53,0,0,1,.53.53v5.67a.53.53,0,0,1-.53.53.52.52,0,0,1-.53-.53Z" style="fill:#fff"></path><path d="M266.75,112.55v-5.67a.52.52,0,0,1,.53-.53h1.14a3.37,3.37,0,0,1,0,6.73h-1.14A.53.53,0,0,1,266.75,112.55Zm1.07-.54h.6a2.3,2.3,0,0,0,0-4.59h-.6Z" style="fill:#fff"></path><path d="M273.19,112.55v-5.67a.52.52,0,0,1,.53-.53h3.14a.53.53,0,0,1,.53.53.54.54,0,0,1-.53.54h-2.61v1.76h2.25a.53.53,0,0,1,0,1.06h-2.25V112h2.61a.54.54,0,0,1,0,1.07h-3.11s0,0,0,0h0A.53.53,0,0,1,273.19,112.55Z" style="fill:#fff"></path><path d="M284.2,107.19a3.53,3.53,0,0,1,0,4.86,3.19,3.19,0,0,1-2.3,1,3.29,3.29,0,0,1-2.36-1,3.58,3.58,0,0,1,0-4.86,3.21,3.21,0,0,1,2.36-1A3.11,3.11,0,0,1,284.2,107.19Zm-.13,2.43a2.48,2.48,0,0,0-.65-1.68,2.06,2.06,0,0,0-1.52-.69,2.08,2.08,0,0,0-1.56.69,2.44,2.44,0,0,0-.65,1.68,2.41,2.41,0,0,0,.65,1.67,2.06,2.06,0,0,0,3.08,0A2.46,2.46,0,0,0,284.07,109.62Z" style="fill:#fff"></path><path d="M235.56,323.31a2.3,2.3,0,0,1-2.3-2.31v-2.84a.43.43,0,0,1,.44-.44.44.44,0,0,1,.44.44V321a1.42,1.42,0,1,0,2.84,0v-2.84a.44.44,0,0,1,.45-.44.43.43,0,0,1,.44.44V321A2.31,2.31,0,0,1,235.56,323.31Z" style="fill:#c7c7c7"></path><path d="M239.66,324.38v-3.05h0v-1.58a.42.42,0,0,1,.42-.42.43.43,0,0,1,.44.33,2,2,0,1,1,1.09,3.65,1.81,1.81,0,0,1-1.07-.33v1.41a.45.45,0,0,1-.46.43A.44.44,0,0,1,239.66,324.38Zm.88-3.06a1.05,1.05,0,0,0,.31.8,1,1,0,0,0,.76.33,1,1,0,0,0,.75-.33,1.18,1.18,0,0,0,.31-.8,1.22,1.22,0,0,0-.31-.8,1,1,0,0,0-.75-.33,1,1,0,0,0-.76.33A1.09,1.09,0,0,0,240.54,321.32Z" style="fill:#c7c7c7"></path><path d="M245.27,317.72a.44.44,0,0,1,.44.44v4.71a.44.44,0,1,1-.88,0v-4.71A.44.44,0,0,1,245.27,317.72Z" style="fill:#c7c7c7"></path><path d="M247.12,322.73a2,2,0,0,1-.55-1.41,2.1,2.1,0,0,1,.55-1.4,1.9,1.9,0,0,1,1.38-.6,1.79,1.79,0,0,1,1.33.6,2,2,0,0,1,.56,1.4,2,2,0,0,1-.56,1.41,1.79,1.79,0,0,1-1.33.6A1.9,1.9,0,0,1,247.12,322.73Zm.32-1.41a1.34,1.34,0,0,0,.29.85,1.08,1.08,0,0,0,.77.29,1,1,0,0,0,.73-.29,1.25,1.25,0,0,0,.31-.85,1.2,1.2,0,0,0-.31-.83,1.14,1.14,0,0,0-.73-.3,1.18,1.18,0,0,0-.77.3A1.29,1.29,0,0,0,247.44,321.32Z" style="fill:#c7c7c7"></path><path d="M255.12,321.32v1.57a.42.42,0,0,1-.83.08,1.89,1.89,0,0,1-1.07.34,1.87,1.87,0,0,1-1.35-.58,2,2,0,0,1-.55-1.41,2,2,0,0,1,.55-1.4,1.82,1.82,0,0,1,2.42-.25.42.42,0,0,1,.41-.35.42.42,0,0,1,.42.43Zm-.84,0a1.18,1.18,0,0,0-.31-.82,1,1,0,0,0-.75-.33,1,1,0,0,0-.74.33,1.27,1.27,0,0,0,0,1.64,1,1,0,0,0,.74.31,1.06,1.06,0,0,0,.75-.31A1.18,1.18,0,0,0,254.28,321.32Z" style="fill:#c7c7c7"></path><path d="M260.3,322.88a.43.43,0,0,1-.85.09,2,2,0,0,1-1.09.34,2,2,0,0,1,0-4,1.91,1.91,0,0,1,1.07.33v-1.5a.44.44,0,0,1,.44-.43.43.43,0,0,1,.43.43v3.16h0Zm-1.94-2.69a1,1,0,0,0-.74.33,1.15,1.15,0,0,0,0,1.59,1,1,0,0,0,.74.33,1,1,0,0,0,.76-.33,1.17,1.17,0,0,0,0-1.59A1,1,0,0,0,258.36,320.19Z" style="fill:#c7c7c7"></path><path d="M262.46,322.17a.61.61,0,0,1,.6.6.59.59,0,0,1-.6.59.58.58,0,0,1-.59-.59A.6.6,0,0,1,262.46,322.17Z" style="fill:#c7c7c7"></path><path d="M264.3,322.17a.61.61,0,0,1,.6.6.59.59,0,0,1-.6.59.58.58,0,0,1-.59-.59A.6.6,0,0,1,264.3,322.17Z" style="fill:#c7c7c7"></path><path d="M266.13,322.17a.61.61,0,0,1,.6.6.6.6,0,0,1-1.19,0A.61.61,0,0,1,266.13,322.17Z" style="fill:#c7c7c7"></path><rect x="187.89" y="329.13" width="124.21" height="7.84" style="fill:#ebebeb"></rect><rect x="189.4" y="330.52" width="40.18" height="5.08" style="fill:#F3B616"></rect><polygon points="197.49 330.52 193.32 330.52 189.4 335.59 193.57 335.59 197.49 330.52" style="opacity:0.1"></polygon><polygon points="205.52 330.52 201.36 330.52 197.43 335.59 201.59 335.59 205.52 330.52" style="opacity:0.1"></polygon><polygon points="213.56 330.52 209.39 330.52 205.47 335.59 209.63 335.59 213.56 330.52" style="opacity:0.1"></polygon><polygon points="221.59 330.52 217.42 330.52 213.5 335.59 217.66 335.59 221.59 330.52" style="opacity:0.1"></polygon><polygon points="229.62 330.52 225.46 330.52 221.53 335.59 225.69 335.59 229.62 330.52" style="opacity:0.1"></polygon><polygon points="269.77 335.59 269.77 335.54 269.73 335.59 269.77 335.59" style="opacity:0.1"></polygon></g><g id="freepik--wifi-icon--inject-51"><g id="freepik--u5zjqx--inject-51"><path d="M365.21,152.23l-2.39,2.37L361.47,156a32.47,32.47,0,0,0-46,0c-.42-.44-.85-.9-1.29-1.34-.78-.8-1.56-1.58-2.35-2.37l-.07,0v-.06l.17-.14c1-.9,2-1.82,3-2.68a35.57,35.57,0,0,1,7-4.44,35.15,35.15,0,0,1,9.25-3.11c1.53-.28,3.08-.43,4.62-.62.53-.06,3.94-.07,4.05-.07,1.05.08,2.1.13,3.15.24a36,36,0,0,1,8.49,2,37.92,37.92,0,0,1,5.74,2.68,37.18,37.18,0,0,1,5.48,3.84c.85.74,1.68,1.51,2.52,2.27Z" style="fill:#F3B616"></path><path d="M323,163.46l-3.78-3.75A26.66,26.66,0,0,1,334.6,152c8.92-1.21,16.58,1.5,23.08,7.65l-3.79,3.77a21.81,21.81,0,0,0-30.86,0Z" style="fill:#F3B616"></path><path d="M350.12,167.22,346.37,171a11.14,11.14,0,0,0-15.81,0l-3.75-3.75A16.38,16.38,0,0,1,350.12,167.22Z" style="fill:#F3B616"></path><path d="M341.85,174.38a3.39,3.39,0,1,1-3.39-3.39A3.39,3.39,0,0,1,341.85,174.38Z" style="fill:#F3B616"></path></g></g><g id="freepik--Character--inject-51"><path d="M135.73,395.05s-3,41.08-3,41.1c0,8.05.07,15.1.46,18.75a.11.11,0,0,0,0,.05,5.68,5.68,0,0,0,.58,2.49l.05.05c2.39,1.64,66.66,3.84,68.93,3.16s.51-7.19-1.92-9.27-26.66-13.92-26.66-13.92l2.56-41.06Z" style="fill:#774442"></path><path d="M202.8,460.65c-2.27.68-66.54-1.52-68.93-3.16l-.05-.05a5.67,5.67,0,0,1-.58-2.48.13.13,0,0,1,0-.06c-.39-3.65-.5-10.7-.46-18.74,0,0,.51-7.13,1.11-15.44l41.26,1.93-.92,14.81s24.22,11.85,26.66,13.92S205.07,460,202.8,460.65Z" style="fill:#ebebeb"></path><path d="M203.08,460.76c-2.3.67-67.58-1.14-70-2.8-.92-.63-1.13-22.52.18-33.61L175.3,426s-.06,11.28.45,11.54c4.13,2.11,23.22,11.92,25.42,13.81C203.62,453.45,205.39,460.08,203.08,460.76Z" style="fill:#F3B616"></path><path d="M202.25,458.11c-10.93-.68-55.05-2.4-65.91-2.25-.08,0-.09.07,0,.07,10.82.92,55,2.28,65.9,2.36C202.47,458.29,202.48,458.12,202.25,458.11Z" style="fill:#263238"></path><path d="M197.06,448.83a8.8,8.8,0,0,0-6.64,2.42,8.52,8.52,0,0,0-2.66,5.75c0,.06.12.07.13,0a10.15,10.15,0,0,1,9.17-8A.07.07,0,0,0,197.06,448.83Z" style="fill:#263238"></path><path d="M178.35,438.36c-4.37-.23-9.51,1.12-12.36,4.6-.11.13.08.29.21.23a60.62,60.62,0,0,1,12.21-4.29A.28.28,0,0,0,178.35,438.36Z" style="fill:#263238"></path><path d="M181.68,439.8c-4.37-.23-9.51,1.13-12.36,4.6-.11.14.08.29.21.23a60.53,60.53,0,0,1,12.2-4.29A.27.27,0,0,0,181.68,439.8Z" style="fill:#263238"></path><path d="M185,441.25c-4.38-.23-9.51,1.12-12.36,4.6-.11.13.08.29.21.23a60.32,60.32,0,0,1,12.2-4.29A.27.27,0,0,0,185,441.25Z" style="fill:#263238"></path><path d="M188.34,442.69c-4.38-.23-9.51,1.13-12.36,4.6-.12.14.08.29.21.23a60.32,60.32,0,0,1,12.2-4.29A.27.27,0,0,0,188.34,442.69Z" style="fill:#263238"></path><path d="M140,428.66c-4.91-.17-5.18,7.46-.26,7.63S145,428.83,140,428.66Z" style="fill:#263238"></path><path d="M183.52,426.86c-2.14-1.92-5-.24-6.44,1.62a19.93,19.93,0,0,0-1.77,2.75,23.81,23.81,0,0,0-2.47,7.13,3.7,3.7,0,0,0-.07.57.14.14,0,0,0,0,.15,3.88,3.88,0,0,0-.08.45.12.12,0,0,0,.15.12.56.56,0,0,0,.42.44.43.43,0,0,0,.34,0c.88-.56,1.81-1.12,2.73-1.67l.49-.3a23.81,23.81,0,0,0,6.12-4.82C184.38,431.53,185.55,428.67,183.52,426.86ZM177.81,436c-.72.48-1.44.94-2.16,1.4s-1.37.89-2,1.37a1.53,1.53,0,0,0-.22.16l-.24.16.09-.24s0,0,0-.05c.68-1.7,1.31-3.44,2.12-5.1.14-.33.31-.66.48-1a24.58,24.58,0,0,1,1.7-2.89c1-1.41,5.45-4.92,5.7-.14C183.41,432.27,179.64,434.72,177.81,436Z" style="fill:#263238"></path><path d="M173.63,439.31c.06-.06.08-.13,0-.19a2.77,2.77,0,0,0-.25-.24l-.09-.09s0,0,0,0l-.43-.39a23.1,23.1,0,0,0-9.58-5c-2.28-.54-5.56,0-6,2.8s2.28,4.17,4.5,4.59a21.65,21.65,0,0,0,6.77,0c1.59-.2,3.18-.46,4.72-.64h0A.54.54,0,0,0,173.63,439.31Zm-6.21.28c-2.2.21-6.67.68-8.23-1.44-2.81-3.88,2.83-4,4.5-3.51a24.52,24.52,0,0,1,3.16,1.17,60.43,60.43,0,0,1,5.9,3.12h0l.21.12a.91.91,0,0,0-.23,0q-.33,0-.66,0C170.53,439.24,169,439.44,167.42,439.59Z" style="fill:#263238"></path><path d="M132.7,418.34l46,1.89s2.12-64.16,1.1-91.15c-1.11-29.32-13.7-116.55-13.7-116.55h-38s9.71,87.57,9.92,116.9C138.16,356.62,132.7,418.34,132.7,418.34Z" style="fill:#37474f"></path><path d="M158.58,212.53l-22.82,79c-2.7-37.37-7.71-79-7.71-79Z" style="fill:#263238"></path><path d="M135.26,216.83l2.42,26,2.23,26.05c1.43,17.38,2.79,34.76,3.82,52.17.26,4.36.41,8.73.35,13.1s-.27,8.73-.49,13.08q-.68,13.08-1.68,26.11c-.66,8.69-3.09,34.29-3.09,34.29s1.76-25.65,2.33-34.34,1.14-17.4,1.54-26.1c.21-4.35.37-8.7.44-13.05s-.12-8.68-.38-13c-.95-17.4-2.33-34.78-3.59-52.17Z" style="fill:#263238"></path><path d="M177.21,411.61c-7-.48-5-.44-12-.84-3.43-.19-26-1.45-29.22-1.07-.07,0-.08.13,0,.14,3.18.68,25.75,1.55,29.19,1.68,7,.26,5,.11,12,.29A.1.1,0,1,0,177.21,411.61Z" style="fill:#263238"></path><path d="M62.73,371.76l-21,35.48c-3.62,7.18-6.67,13.54-7.94,17,0,0,0,0,0,.06a5.5,5.5,0,0,0-.59,2.48.08.08,0,0,0,0,.07c1.4,2.53,58,33.14,60.29,33.54s3.67-6.21,2.42-9.15-17.67-24.35-17.67-24.35l20.59-35.61Z" style="fill:#774442"></path><path d="M93.54,460.37c-2.34-.4-58.89-31-60.3-33.54a.14.14,0,0,1,0-.07,5.6,5.6,0,0,1,.58-2.48.14.14,0,0,1,0-.06c1.28-3.44,4.32-9.8,7.94-17l7.87-13.33L85.71,414l-7.42,12.85s16.4,21.4,17.66,24.34S95.87,460.78,93.54,460.37Z" style="fill:#ebebeb"></path><path d="M93.75,460.59c-2.37-.42-60-31.13-61.43-33.7-.55-1,9-20.66,15.13-30L84.36,417.1s-5.08,10.06-4.74,10.52c2.76,3.73,15.48,21,16.61,23.69C97.48,454.29,96.11,461,93.75,460.59Z" style="fill:#F3B616"></path><path d="M94.17,457.85c-9.47-5.48-48.21-26.68-58-31.38-.08,0-.11,0,0,.06,9.28,5.64,48.19,26.53,58,31.48C94.29,458.11,94.37,458,94.17,457.85Z" style="fill:#263238"></path><path d="M93.67,447.23a8.82,8.82,0,0,0-7-.79,8.55,8.55,0,0,0-4.94,4c0,.06.07.12.11.06a10.15,10.15,0,0,1,11.79-3.1A.07.07,0,0,0,93.67,447.23Z" style="fill:#263238"></path><path d="M81.58,429.52c-3.81-2.15-9-3.23-13.11-1.39-.16.07-.06.3.09.3A60.39,60.39,0,0,1,81.39,430,.27.27,0,0,0,81.58,429.52Z" style="fill:#263238"></path><path d="M83.92,432.3c-3.81-2.16-9-3.23-13.12-1.39-.16.07,0,.29.09.3a60.4,60.4,0,0,1,12.84,1.59A.27.27,0,0,0,83.92,432.3Z" style="fill:#263238"></path><path d="M86.26,435.07c-3.82-2.15-9-3.23-13.12-1.39-.16.08-.06.3.09.3a61,61,0,0,1,12.83,1.6A.28.28,0,0,0,86.26,435.07Z" style="fill:#263238"></path><path d="M88.59,437.85c-3.81-2.15-9-3.23-13.12-1.39-.15.07,0,.3.1.3a60.39,60.39,0,0,1,12.83,1.6A.27.27,0,0,0,88.59,437.85Z" style="fill:#263238"></path><path d="M51.61,403.77c-4.32-2.34-8,4.37-3.64,6.71S55.94,406.11,51.61,403.77Z" style="fill:#263238"></path><path d="M91.33,421.53c-1.06-2.68-4.37-2.44-6.48-1.42A20.64,20.64,0,0,0,82,421.79a23.52,23.52,0,0,0-5.39,5.28,3.55,3.55,0,0,0-.32.47.17.17,0,0,0-.08.13A2.89,2.89,0,0,0,76,428a.11.11,0,0,0,.07.17.57.57,0,0,0,.19.58.39.39,0,0,0,.32.11c1-.11,2.12-.2,3.19-.28l.57,0A24.27,24.27,0,0,0,88,427C90,426.09,92.35,424.05,91.33,421.53Zm-9.16,5.59-2.55.3c-.82.09-1.63.18-2.43.32a1.26,1.26,0,0,0-.27,0l-.29,0a1.62,1.62,0,0,0,.19-.18l0,0c1.37-1.22,2.7-2.5,4.17-3.62.27-.24.57-.46.87-.68a25.5,25.5,0,0,1,2.81-1.83c1.53-.8,7.07-2,5.16,2.42C88.82,426.33,84.36,426.84,82.17,427.12Z" style="fill:#263238"></path><path d="M76.94,428.27c.08,0,.12-.08.1-.16l-.12-.33,0-.12a.08.08,0,0,0,0-.05l-.21-.54a23.14,23.14,0,0,0-6.34-8.77c-1.8-1.5-5-2.51-6.63-.17s.19,4.75,2,6.11a21.71,21.71,0,0,0,6.07,3c1.51.53,3,1,4.51,1.52l0,0A.54.54,0,0,0,76.94,428.27Zm-5.69-2.52c-2.07-.8-6.28-2.36-6.73-5-.78-4.72,4.31-2.29,5.6-1.13a25.43,25.43,0,0,1,2.3,2.45,61.65,61.65,0,0,1,3.9,5.43h0a1.53,1.53,0,0,0,.14.21l-.22-.08a6.57,6.57,0,0,0-.61-.26C74.19,426.83,72.72,426.32,71.25,425.75Z" style="fill:#263238"></path><path d="M162.16,212.49v0c-.17.78-2.82,13.11-5.58,23.7-2,7.73-4.06,14.53-5.24,15.24-1.34.79-7.87,3.68-10.05,4.59,0,0-14.68,73.25-22.42,96-7.15,21-27.35,61-27.35,61L49.79,390s22.94-39.5,26.46-49.71c5.46-15.81,25.93-93,25.93-93s-.16-24.17,8-34.73Z" style="fill:#37474f"></path><path d="M93.3,403.49C87.17,400.06,89,401,82.81,397.6c-3-1.64-22.88-12.42-26-13.45-.07,0-.13.08-.07.12,2.59,2,22.62,12.41,25.67,14,6.24,3.24,4.48,2.24,10.75,5.41A.1.1,0,0,0,93.3,403.49Z" style="fill:#263238"></path><path d="M113.19,240.5c1.18-.3,2.43-.4,3.63-.59,1-.15,1.94-.32,2.89-.53a12.62,12.62,0,0,0,5.1-2.15c1.66-1.29,2.51-3.25,3.31-5.14.48-1.12,1-2.23,1.47-3.34.24-.53.48-1.07.73-1.6a20.12,20.12,0,0,0,.91-1.94c0-.09.18,0,.14,0a12.41,12.41,0,0,0-.41,1.39c-.16.54-.31,1.08-.48,1.62-.3,1-.59,1.92-.9,2.88a22.87,22.87,0,0,1-2.05,5c-1.77,2.82-4.94,4-8.11,4.36-.9.11-1.82.18-2.73.23a20,20,0,0,1-3.46,0C113.06,240.79,113,240.55,113.19,240.5Z" style="fill:#263238"></path><path d="M154.8,249.74A84.67,84.67,0,0,0,141.35,256c-.17.09-.06.36.12.28,4.54-1.95,9.16-3.81,13.57-6A.3.3,0,0,0,154.8,249.74Z" style="fill:#263238"></path><path d="M156.16,218.7c0-.16-.28-.19-.28,0,0,5.38-.31,10.11-.76,15.14-.21,2.33-2.09,15.23-6.14,14.29-.67-.16-1-.82-1.13-1.85a16.77,16.77,0,0,1,.54-3.95c.45-2.7.81-5.41,1-8.14a73.43,73.43,0,0,0-.16-15.26.13.13,0,0,0-.26,0A139.85,139.85,0,0,1,147.77,240c-.5,3.36-2.19,8.41,1.32,8.92s5.88-7.93,6.32-10.25A77.1,77.1,0,0,0,156.16,218.7Z" style="fill:#263238"></path><path d="M149.09,248.46a20.47,20.47,0,0,0-.91,2.67,6.14,6.14,0,0,0-.38,2.2c0,.14.21.15.28.06a7.46,7.46,0,0,0,.94-2.14c.31-.83.64-1.65.92-2.48A.45.45,0,0,0,149.09,248.46Z" style="fill:#263238"></path><path d="M60.18,384.22c6.11-11.5,15.71-29.45,18.68-35.14a102.28,102.28,0,0,0,6.79-17.57q5.67-18.42,10.74-37t9.52-37.36c.75-3.12,1.56-6.25,2.16-9.41a28.83,28.83,0,0,0,0-9.63,31,31,0,0,1-.07-9,60,60,0,0,1,2.1-8.76c.47-1.51,1-3,1.5-4.51.06-.16.32-.09.27.08-1.85,6.06-3.74,12.18-3.35,18.59.19,3.08,1,6.11,1,9.21a44.67,44.67,0,0,1-1.56,9.1q-4.38,18.87-9.4,37.58T87.88,327.64c-1.82,6-3.52,12.12-6.11,17.85S69.4,368.82,62.83,380q-1.24,2.15-2.51,4.26C60.27,384.4,60.13,384.31,60.18,384.22Z" style="fill:#263238"></path><path d="M141.55,148.29c13.1,7.19,35.42,20.47,44.48,21.52,7,.82,39.89-21,49.81-29.54,3-2.61-14.05-21.36-17.52-18.87-9.57,6.9-35.47,23.14-36.63,23.35-4.28.75-21.43-4-36.68-6.9C128,134.58,135.2,144.81,141.55,148.29Z" style="fill:#774442"></path><path d="M165.36,163.21,175.72,144S150.09,136,138.53,137s-4.41,7.14,1.45,11.17S165.36,163.21,165.36,163.21Z" style="fill:#c7c7c7"></path><path d="M165.36,163.21,175.72,144S150.09,136,138.53,137s-4.41,7.14,1.45,11.17S165.36,163.21,165.36,163.21Z" style="fill:#F3B616"></path><path d="M175.7,144l-.09.16c-.24-.11-.48-.21-.73-.3a11.47,11.47,0,0,0-1.11-.42l-1.13-.36c-.38-.11-.77-.18-1.16-.27l-.58-.14-.59-.08a21,21,0,0,0-9.39.7,37.58,37.58,0,0,0-8.6,4c-2.13,1.28-4.17,2.68-6.21,4.09l-.31.21-.21.14-.39-.24c.08,0,.15-.1.23-.15l.31-.21c2.09-1.43,4.19-2.87,6.38-4.17a37.24,37.24,0,0,1,8.71-4,21.56,21.56,0,0,1,9.24-.66c2.65.73,4.57,1.3,5.31,1.53Zm-6.85,11.78c-2.82.91-5.55,2-8.29,3.13l-1.64.64.48.27,1.32-.52c2.74-1.1,5.46-2.24,8.25-3.16l.24-.08.25-.47Zm-22.74-4.4-.37-.25a11.5,11.5,0,0,0-3.19-1.55l-.71-.17,1,.63a12.16,12.16,0,0,1,2.6,1.3l.37.25c.26.18.52.37.77.57s.48.38.71.59l1.36.81a21.09,21.09,0,0,0-1.86-1.67C146.56,151.7,146.34,151.53,146.11,151.37Z" style="fill:#fff"></path><path d="M161.56,160.13c1.2-2.81,2.77-5.5,4.22-8.19s3.17-5.41,4.71-8.13c0-.08.18,0,.14.07-1.4,2.74-2.68,5.53-4.19,8.21a86.43,86.43,0,0,1-4.81,8.08S161.54,160.17,161.56,160.13Z" style="fill:#263238"></path><path d="M170.68,153.33l-5.32,9.88s-19.52-11-25.38-15c-3.57-2.46-7.62-5.71-7.62-8.09Z" style="opacity:0.1"></path><path d="M103.91,220.06c.16.17,62.5-.93,63.09-1.62.82-1-7.89-59.08-16.69-74.58-4.2-7.42-15.71-11.36-22.42.12C111.87,171.44,103.36,219.45,103.91,220.06Z" style="fill:#F3B616"></path><path d="M166.94,216.33c-.29,0-.59,0-.88,0l-.6,0-.6,0c-.4,0-.8,0-1.2-.06l-1.19-.15a11.71,11.71,0,0,1-1.18-.23,20.84,20.84,0,0,1-2.32-.61c-.75-.28-1.5-.53-2.23-.88s-1.43-.7-2.15-1.06-1.38-.79-2-1.24-1.32-.9-2-1.36-1.28-1-1.9-1.46-1.43-1.18-2.13-1.8a2.61,2.61,0,0,1-.25-.23c-1.61-1.41-3.16-2.9-4.71-4.39-2.3-2.2-4.58-4.44-7.08-6.4a26.46,26.46,0,0,0-3.95-2.61c-.28-.15-.57-.29-.86-.41a3,3,0,0,0-.41-.18,11.78,11.78,0,0,0-3.19-.86c-.39,0-.78-.06-1.17-.07l-1.19,0a11.72,11.72,0,0,0-1.19,0l-1.18.12-.59.07-.58.1L119,193c-.76.22-1.54.38-2.28.67-.33.11-.67.24-1,.37a3.38,3.38,0,0,0-.44.18c-1,.41-2,.89-2.92,1.38-1.33.67-2.67,1.34-4.07,1.89l.06-.25c1.33-.54,2.61-1.2,3.9-1.86.89-.46,1.78-.91,2.7-1.3l.42-.19c.41-.18.83-.34,1.25-.48.75-.3,1.53-.47,2.3-.7l1.18-.23.59-.11.6-.07,1.19-.14c.4,0,.8,0,1.2-.06l1.2,0c.41,0,.81,0,1.22.06a12.28,12.28,0,0,1,3.43.93l.39.19c.26.11.51.24.76.37a26.91,26.91,0,0,1,4,2.68c2.51,2,4.77,4.26,7.05,6.48,1.59,1.55,3.18,3.09,4.83,4.56l.25.23c.64.57,1.29,1.13,1.95,1.67a38,38,0,0,0,3.84,2.83c.66.44,1.36.82,2,1.23s1.41.74,2.15,1,1.47.58,2.22.85a22.86,22.86,0,0,0,2.3.6c.39.06.77.17,1.17.21l1.18.14c.39,0,.79,0,1.19.06l.59,0,.6,0c.29,0,.57,0,.86-.05A2,2,0,0,1,166.94,216.33Zm-1.89-13.84-.16.09a41,41,0,0,1-8.09,3.47,31.51,31.51,0,0,1-8.69,1.28c-.51,0-1,0-1.53,0h-.28a31.72,31.72,0,0,1-6.91-1.11,36.73,36.73,0,0,1-4.18-1.42,44.11,44.11,0,0,1-4-1.87c-2.41-1.24-4.71-2.67-7-4.1l-.37-.23-.24-.15a70.49,70.49,0,0,0-7.72-4.36l-.1,0a2.17,2.17,0,0,0-.35-.15,21.55,21.55,0,0,0-5.74-1.69,2.58,2.58,0,0,0-.09.35,19.57,19.57,0,0,1,2,.38A23.18,23.18,0,0,1,115,194l.33.14.4.17a70,70,0,0,1,7.74,4.24l.18.11.38.22c2.34,1.42,4.68,2.84,7.12,4.08,1.31.68,2.66,1.31,4,1.87a36.38,36.38,0,0,0,4.19,1.45,31.86,31.86,0,0,0,7.2,1.19h.28c.43,0,.85,0,1.28,0a32.19,32.19,0,0,0,8.78-1.21,39.45,39.45,0,0,0,8.18-3.43l0,0Zm-3.75-20.73c-.68-.31-1.37-.55-2.07-.8a23.33,23.33,0,0,0-2.32-.62c-.4-.07-.78-.18-1.18-.22l-1.19-.15c-.4-.05-.8,0-1.2-.07l-.6,0c-.2,0-.4,0-.6,0a21.29,21.29,0,0,0-9.24,2.37,36.84,36.84,0,0,0-7.84,5.49c-1.91,1.68-3.71,3.48-5.49,5.26l-.28.28-1.11,1.11c-1.42,1.41-2.85,2.83-4.36,4.15a1.19,1.19,0,0,0-.18.15c-.83.71-1.68,1.39-2.57,2a18.47,18.47,0,0,1-4.14,2.25,12.05,12.05,0,0,1-4.61.77,18.86,18.86,0,0,1-4.67-.65l-.61-.19c0,.11-.05.22-.07.33l.58.19a19.71,19.71,0,0,0,4.76.71h.61l.6,0,.61,0,.6-.1.6-.1c.2,0,.39-.1.59-.15l.58-.16c.2-.06.38-.14.57-.21a18.7,18.7,0,0,0,4.24-2.3,33.09,33.09,0,0,0,2.71-2.14l.17-.14L125,198c1.18-1.08,2.32-2.2,3.45-3.33l1.22-1.23.26-.27c1.75-1.76,3.5-3.52,5.35-5.16a38,38,0,0,1,7.73-5.51,21.13,21.13,0,0,1,9.1-2.42l.6,0,.59,0c.4,0,.79,0,1.19.06l1.18.14c.39,0,.78.14,1.17.21a22.81,22.81,0,0,1,2.3.59c.74.27,1.47.51,2.18.84Zm-9.41-34.67c-2.11,1.27-4.13,2.65-6.15,4l-.31.21-1.3.89a58.27,58.27,0,0,1-8.14,4.91c-.51.24-1,.45-1.56.65l-.32.12a15.68,15.68,0,0,1-2.61.69,12.24,12.24,0,0,1-4.67-.1,18.5,18.5,0,0,1-4.47-1.49c-.26-.13-.52-.27-.77-.42,0,.1-.09.2-.13.3.24.15.49.29.74.42a18.86,18.86,0,0,0,4.55,1.57l.59.13.61.08.6.08.61,0h.6l.61-.05.61,0c.2,0,.39-.07.59-.1a16.71,16.71,0,0,0,3-.8l.33-.13c.44-.17.88-.35,1.31-.55a37.29,37.29,0,0,0,4.21-2.3c1.36-.84,2.69-1.73,4-2.64l1.43-1,.31-.21c1.95-1.34,3.9-2.69,5.93-3.92Zm4.46,13.38c-.57.2-1.15.38-1.73.55l-.25.07c-.72.21-1.45.4-2.18.55a19,19,0,0,1-8.69,0,23.13,23.13,0,0,1-8.12-3.21,6.18,6.18,0,0,1-.53-.36l-.42-.28a61.93,61.93,0,0,0-6.3-4.43,21.56,21.56,0,0,0-4.11-1.76l-.13,0,0,.07a.08.08,0,0,0,0,0l.17.05c.69.26,1.38.51,2.06.81a21.16,21.16,0,0,1,2,1,57.38,57.38,0,0,1,6.08,4.38l.41.29c.23.17.46.32.7.48a23.62,23.62,0,0,0,8.2,3.34,19.22,19.22,0,0,0,8.86,0c.79-.17,1.58-.36,2.35-.59l.25-.07c.53-.16,1.06-.33,1.58-.51C156.43,160.74,156.39,160.6,156.35,160.47Zm1.24,4.74L156,162.9l-1.07-1.51-.26-.37c-1.4-2-2.82-3.94-4.41-5.78a25.93,25.93,0,0,0-3.43-3.36c-.22-.18-.44-.35-.67-.51l-.37-.25a11.5,11.5,0,0,0-3.19-1.55l-1.18-.29-1.19-.17c-.39-.05-.79-.13-1.19-.16l-1.2-.09-.6,0h-1.8a23.93,23.93,0,0,0-2.39.27,33.67,33.67,0,0,0-4.66,1.13c-1.44.44-2.89.85-4.37,1.16l-.08.16,0,.07.16,0c1.48-.29,2.94-.7,4.39-1.12a33.85,33.85,0,0,1,4.63-1.1,23.58,23.58,0,0,1,2.36-.24h1.78l.6.05,1.18.09c.39,0,.78.11,1.18.17l1.17.18,1.14.28a12.21,12.21,0,0,1,3,1.43l.37.25c.26.18.52.37.77.57a25.84,25.84,0,0,1,3.41,3.29c1.57,1.79,3,3.71,4.39,5.65l.26.37,1.13,1.57,2,2.73C157.69,165.57,157.64,165.39,157.59,165.21Z" style="fill:#fff"></path><path d="M146.12,148.77c-2.76.33-8.9-4.44-11.47-8.65-.17-.29.13-3.43.33-7.27.1-2.33.17-4.92.06-7.29l15.05,2.92a37.79,37.79,0,0,0-1,9.17,5.66,5.66,0,0,0,.14,1,.65.65,0,0,1,0,.16C149.64,140.61,150.45,148.26,146.12,148.77Z" style="fill:#774442"></path><path d="M135,132.19c3.22,4.34,8,8.51,14.41,7.52,0-.39-.1-.71-.15-.93a1.1,1.1,0,0,1,0-.16,4.19,4.19,0,0,1-.15-1,38.06,38.06,0,0,1,1-9.18l-15-2.91C135.15,127.7,135.1,130,135,132.19Z" style="fill:#263238"></path><path d="M131.06,108.63c-1.35,5.36,2.18,20.46,6.1,23.67,5.68,4.66,14.61,4.7,18.47-2,3.75-6.54-1.2-26.14-5.54-29C143.69,97,133.06,100.73,131.06,108.63Z" style="fill:#774442"></path><path d="M146,116.35s-.07.07-.05.11c.3,1,.49,2.2-.33,2.78,0,0,0,.07,0,.06C146.71,118.83,146.45,117.25,146,116.35Z" style="fill:#263238"></path><path d="M144.81,115.55c-1.65.32-.89,3.61.64,3.31S146.2,115.28,144.81,115.55Z" style="fill:#263238"></path><path d="M152,114.74s.09,0,.09.07c.21,1,.62,2.17,1.62,2.29,0,0,0,.06,0,.06C152.52,117.26,152,115.75,152,114.74Z" style="fill:#263238"></path><path d="M152.63,113.47c1.6-.51,2.5,2.74,1,3.21S151.28,113.89,152.63,113.47Z" style="fill:#263238"></path><path d="M143.16,114.35a12.92,12.92,0,0,0,1.17-.75c.45-.29.83-.47,1-1a.74.74,0,0,0-.31-.82,1.77,1.77,0,0,0-1.78.23,2.59,2.59,0,0,0-1.2,1.44A.76.76,0,0,0,143.16,114.35Z" style="fill:#263238"></path><path d="M153.47,111.92c-.47,0-.91,0-1.38,0a2.22,2.22,0,0,1-1.41-.31.72.72,0,0,1-.16-.85,1.78,1.78,0,0,1,1.64-.73,2.58,2.58,0,0,1,1.77.61A.76.76,0,0,1,153.47,111.92Z" style="fill:#263238"></path><path d="M147.26,126a1.53,1.53,0,0,0,1,.4,2.76,2.76,0,0,0,1-.51,0,0,0,0,1,.06,0,1.43,1.43,0,0,1-1.17.86,1.12,1.12,0,0,1-1-.72S147.22,126,147.26,126Z" style="fill:#263238"></path><path d="M147.62,122.72a3.52,3.52,0,0,0,2.67,1,4.59,4.59,0,0,0,1.26-.23.92.92,0,0,0,.23-.09l.22-.08a.28.28,0,0,0,.15-.28h0a.49.49,0,0,0,0-.11h0l0-.09c-.16-.79-.52-2-.52-2,.32.07,1.93.39,1.82,0a54.06,54.06,0,0,0-3.79-10.16c-.06-.11-.22,0-.18.06.82,3.25,2.22,6.33,3.1,9.58a5.93,5.93,0,0,0-1.75-.11c-.11.06.72,2.25.77,2.61v0a4.94,4.94,0,0,1-3.85-.27C147.6,122.57,147.54,122.65,147.62,122.72Z" style="fill:#263238"></path><path d="M151,123.2a4.26,4.26,0,0,1-1.35,1.66,2,2,0,0,1-1.11.33c-.86,0-1.06-.77-1.06-1.44a4.54,4.54,0,0,1,.14-1.06A5.53,5.53,0,0,0,151,123.2Z" style="fill:#263238"></path><path d="M149.65,124.86a2,2,0,0,1-1.11.33c-.86,0-1.06-.77-1.06-1.44A2,2,0,0,1,149.65,124.86Z" style="fill:#ff99ba"></path><path d="M132,121.45c-.59-1.31-6.38-15.51-6.24-17.18.13-1.52,1.83-1.17,1.84-1.25s-.15-1.43.6-2.06a2.29,2.29,0,0,1,1.8-.24s0-1.45.86-2a1.8,1.8,0,0,1,1.79.11,2.38,2.38,0,0,1,1.15-1.9,1.56,1.56,0,0,1,1.81.39s.17-1.4,1.05-1.8,1.84.47,1.84.47.32-1.3,1.44-1.49a1.79,1.79,0,0,1,1.74,1s.48-1.28,1.53-1.47,1.61,1.06,1.61,1.06.25-1.23,1.25-1.31,1.45,1.28,1.45,1.28a1,1,0,0,1,1.29-.9c1.88.3,4.09,9.54,5.07,13.19,0,0-1.16-2.69-1.93-2.64s-1.15,1.35-2.52,1.88c-1.95.75-5.67-1.1-8.36-.08s-4.18,4.14-4.5,8.53C136.16,120,133.37,124.56,132,121.45Z" style="fill:#263238"></path><path d="M134.93,120.89s-3.78-4.68-5.93-3.3.93,8.34,3.62,9.13a2.66,2.66,0,0,0,3.47-1.68Z" style="fill:#774442"></path><path d="M129.93,119.56a0,0,0,0,0,0,.07c1.89.62,3,2.26,3.78,4a1.48,1.48,0,0,0-2.24-.25.06.06,0,0,0,.06.09,1.66,1.66,0,0,1,1.85.45,7.89,7.89,0,0,1,1,1.4c.1.16.39,0,.31-.13v0C134.51,122.78,132.46,119.62,129.93,119.56Z" style="fill:#263238"></path><path d="M150.18,140.86a0,0,0,0,0-.05,0c.65,2.88,2,9.61-2.67,9.93a9.84,9.84,0,0,1-5.31-1.65,26.23,26.23,0,0,1-4.52-3.31,38.86,38.86,0,0,1-4.42-4.47c-.05-.07-.16,0-.1.1,1.37,1.6,2.57,3.31,4.1,4.79a22.74,22.74,0,0,0,4.88,3.68,9.9,9.9,0,0,0,5.63,1.54,3.74,3.74,0,0,0,3.3-3.38A16.5,16.5,0,0,0,150.18,140.86Z" style="fill:#263238"></path><rect x="156.87" y="124.57" width="140.8" height="112.32" transform="translate(-15.8 21.89) rotate(-5.33)" style="fill:#263238"></rect><polygon points="210.88 203.76 207.19 164.12 249.77 180.14 210.88 203.76" style="fill:#fff"></polygon><rect x="159.01" y="136.02" width="8.33" height="5.86" transform="translate(-12.2 15.75) rotate(-5.33)" style="fill:#fff"></rect><rect x="160.12" y="147.86" width="8.33" height="5.86" transform="translate(-13.29 15.91) rotate(-5.33)" style="fill:#fff"></rect><rect x="161.22" y="159.69" width="8.33" height="5.86" transform="translate(-14.39 16.06) rotate(-5.33)" style="fill:#fff"></rect><rect x="162.33" y="171.53" width="8.33" height="5.86" transform="translate(-15.48 16.21) rotate(-5.33)" style="fill:#fff"></rect><rect x="163.43" y="183.37" width="8.33" height="5.86" transform="translate(-16.58 16.37) rotate(-5.33)" style="fill:#fff"></rect><rect x="164.53" y="195.2" width="8.33" height="5.86" transform="translate(-17.67 16.52) rotate(-5.33)" style="fill:#fff"></rect><rect x="165.64" y="207.04" width="8.33" height="5.86" transform="translate(-18.77 16.68) rotate(-5.33)" style="fill:#fff"></rect><rect x="166.74" y="218.88" width="8.33" height="5.86" transform="translate(-19.86 16.83) rotate(-5.33)" style="fill:#fff"></rect><rect x="167.85" y="230.71" width="8.33" height="5.86" transform="translate(-20.96 16.98) rotate(-5.33)" style="fill:#fff"></rect><rect x="278.36" y="124.89" width="8.33" height="5.86" transform="translate(-10.65 26.79) rotate(-5.33)" style="fill:#fff"></rect><rect x="279.47" y="136.72" width="8.33" height="5.86" transform="translate(-11.74 26.94) rotate(-5.33)" style="fill:#fff"></rect><rect x="280.57" y="148.56" width="8.33" height="5.86" transform="translate(-12.84 27.1) rotate(-5.33)" style="fill:#fff"></rect><rect x="281.67" y="160.4" width="8.33" height="5.86" transform="translate(-13.93 27.25) rotate(-5.33)" style="fill:#fff"></rect><rect x="282.78" y="172.23" width="8.33" height="5.86" transform="translate(-15.03 27.41) rotate(-5.33)" style="fill:#fff"></rect><rect x="283.88" y="184.07" width="8.33" height="5.86" transform="translate(-16.12 27.56) rotate(-5.33)" style="fill:#fff"></rect><rect x="284.99" y="195.91" width="8.33" height="5.86" transform="translate(-17.22 27.71) rotate(-5.33)" style="fill:#fff"></rect><rect x="286.09" y="207.75" width="8.33" height="5.86" transform="translate(-18.31 27.87) rotate(-5.33)" style="fill:#fff"></rect><rect x="287.19" y="219.58" width="8.33" height="5.86" transform="translate(-19.4 28.02) rotate(-5.33)" style="fill:#fff"></rect><path d="M139.58,155.79c2.71,7.84,13.25,39.62,14.82,41.06,6.33,5.84,22.27,16.08,24.21,18.2,2.66,2.89-9.3,20.71-13.48,20.21-1.73-.2-23-14.23-29.66-21.11-5.32-5.55-8.09-41-8.25-57.52C127.08,142.48,134.34,140.59,139.58,155.79Z" style="fill:#774442"></path><path d="M127.55,183.39l21.82-1.46s-6.9-25.93-13.88-35.2-8.38.06-8.69,7.17S127.55,183.39,127.55,183.39Z" style="fill:#F3B616"></path><path d="M149,180.47a20.71,20.71,0,0,0-5.51,1.86l-.78,0a2.39,2.39,0,0,1,.22-.12,22.05,22.05,0,0,1,6-2C148.92,180.31,149,180.39,149,180.47Zm-8.91-25.56a40.11,40.11,0,0,1-4.07,2.22c-.51.24-1,.45-1.56.65l-.32.12a15.68,15.68,0,0,1-2.61.69,12.24,12.24,0,0,1-4.67-.1l-.08,0v.4l.59.13.61.08.6.08.61,0h.6l.61-.05.61,0c.2,0,.39-.07.59-.1a16.71,16.71,0,0,0,3-.8l.33-.13c.44-.17.88-.35,1.31-.55a36.38,36.38,0,0,0,4.07-2.22Zm2.71,6.56a22.5,22.5,0,0,1-7.39-3.05,6.18,6.18,0,0,1-.53-.36l-.42-.28a61.93,61.93,0,0,0-6.3-4.43c-.41-.23-.83-.45-1.26-.65,0,.06,0,.13,0,.2a11.07,11.07,0,0,1,1.18.62,57.38,57.38,0,0,1,6.08,4.38l.41.29c.23.17.46.32.7.48a23,23,0,0,0,7.71,3.22C142.88,161.75,142.83,161.61,142.77,161.47Zm-5.87-12.65h-1.51a23.93,23.93,0,0,0-2.39.27,33.67,33.67,0,0,0-4.66,1.13l-1.31.39a2.11,2.11,0,0,0,0,.25l1.4-.4a33.85,33.85,0,0,1,4.63-1.1,23.58,23.58,0,0,1,2.36-.24h1.68Z" style="fill:#fff"></path><path d="M128.13,178.53c3-.47,6.14-.58,9.19-.78s6.26-.19,9.39-.33c.09,0,.1.15,0,.16-3.06.27-6.11.66-9.18.82a89.38,89.38,0,0,1-9.4.21S128.09,178.54,128.13,178.53Z" style="fill:#263238"></path><path d="M125.87,165c.22,1.32.45,2.63.69,3.94,0-2.73,0-5.47.06-8.2,0-.07.12-.07.12,0,.29,3.8.46,7.62.59,11.42s.37,7.37.24,11l.82.06a.11.11,0,0,1,0,.22l-1,.13a.21.21,0,0,1-.24-.18c-.45-3.77-.47-7.65-.55-11.44,0-.62,0-1.24,0-1.86a43.74,43.74,0,0,1-.91-5.09A.1.1,0,0,1,125.87,165Z" style="fill:#263238"></path><path d="M148.56,182l.8-.12-.06.08c-.62-1.61-1.17-3.24-1.73-4.86s-1.06-3.28-1.56-4.93-1-3.3-1.41-5-.88-3.33-1.23-5c.64,1.6,1.21,3.22,1.76,4.85s1.08,3.27,1.59,4.92,1,3.29,1.44,5,.89,3.33,1.27,5l0,.08h-.89Z" style="fill:#263238"></path><path d="M145.26,164a12.64,12.64,0,0,1,.27,4.95,12.15,12.15,0,0,1-.27-4.95Z" style="fill:#263238"></path><path d="M189.1,225c-1-1.32-.28-1.84,2.53-1.05s13.25,6.28,14.86,2.48-13.24-11.35-18-12.3-12.83-.82-12.83-.82C178.24,215.32,184.06,220.88,189.1,225Z" style="fill:#774442"></path><path d="M162.76,233.91c7.52,6.68,16.54,12.8,27,13.85a5.21,5.21,0,0,0,3.33-.71c4.68.55,6.35-1.49,6.35-1.49,4.51-.82,5.93-3.15,5.93-3.15s3.81,0,4-2.68-5.88-4.67-10.21-7.4c-9.9-6.24-20.83-17-23.5-19.06Z" style="fill:#774442"></path><path d="M185.58,234a74.85,74.85,0,0,0,9,5,75.83,75.83,0,0,0,10.74,3.33.09.09,0,0,1,0,.18,39.76,39.76,0,0,1-19.77-8.36C185.37,234,185.43,233.9,185.58,234Z" style="fill:#263238"></path><path d="M180.94,239.42c3,1.57,8.2,4.3,18.52,6,0,0,0,.06,0,.06a35.72,35.72,0,0,1-18.58-5.95C180.69,239.45,180.75,239.32,180.94,239.42Z" style="fill:#263238"></path><path d="M178.51,242.38c5.14,2.49,8.7,3.4,14.57,4.64,0,0,0,.07,0,.07-6.81-.72-9.2-1.75-14.67-4.54C178.21,242.45,178.3,242.29,178.51,242.38Z" style="fill:#263238"></path><path d="M215.66,120.75c3.76-1.8,8.42-6.32,11.49-6.7a3.56,3.56,0,0,1,3.77,2s1.51-3.07,4.36-3c1.47.06,2.66,2.45,2.66,2.45a4.23,4.23,0,0,1,3.85-2.15c2,.2,2.91,2.57,2.91,2.57s2.35-1.72,4.33-.86c4,1.76,4.09,19.12-2.29,21.83-3,1.26-2.77-3-2.77-3s-1.77,6-5.35,6.13-3-5.39-3-5.39-1.78,5.83-5.5,5.57c-3.88-.28-2.32-5.67-2.32-5.67s-2.61,3.87-5.41,3c-4.63-1.42,1.16-8.75.23-12.56l-6.3-2.08Z" style="fill:#774442"></path><path d="M221.12,117.25c-3.71,1.39-8.31-3.19-12.05-2.36-5,1.12-.07,6.79,7.28,8l5.88,0Z" style="fill:#774442"></path><path d="M244.89,116.26c0-.06.08-.07.09,0a30.1,30.1,0,0,1-1,17.89c-.07.18-.4.14-.35-.07A61.53,61.53,0,0,0,244.89,116.26Z" style="fill:#263238"></path><path d="M238,115.41c0-.07.1-.08.12,0a28.17,28.17,0,0,1-2.3,19.45c-.11.21-.42.28-.31,0C237.38,130.71,238.48,121,238,115.41Z" style="fill:#263238"></path><path d="M227.45,134.9c2.93-5.89,3.69-12.13,3.54-18.66,0-.08.12-.08.14,0,.94,3.17.6,7.34.06,10.56a17.34,17.34,0,0,1-3.54,8.22C227.58,135.1,227.38,135,227.45,134.9Z" style="fill:#263238"></path></g></svg>