<svg xmlns="http://www.w3.org/2000/svg" viewBox="0 0 500 500"><g id="freepik--Floor--inject-58"><ellipse id="freepik--floor--inject-58" cx="249.37" cy="342.74" rx="228.09" ry="133.13" style="fill:#f0f0f0"></ellipse></g><g id="freepik--Shadows--inject-58"><ellipse id="freepik--Shadow--inject-58" cx="155.89" cy="385.95" rx="78.8" ry="45.5" style="fill:#e0e0e0"></ellipse><ellipse id="freepik--shadow--inject-58" cx="346.8" cy="383.6" rx="78.8" ry="45.5" style="fill:#e0e0e0"></ellipse></g><g id="freepik--Plants--inject-58"><g id="freepik--plants--inject-58"><path d="M72,329.17l9.59-5.48s4.6-25.35,1.16-47.15c-4.84-30.64-25.7-41.2-33.28-38.16s-9.35,12.12,4.33,29.83C61.88,278.65,72.27,300.74,72,329.17Z" style="fill:#BA68C8"></path><g style="opacity:0.15"><path d="M72,329.17l9.59-5.48s4.6-25.35,1.16-47.15c-4.84-30.64-25.7-41.2-33.28-38.16s-9.35,12.12,4.33,29.83C61.88,278.65,72.27,300.74,72,329.17Z"></path></g><path d="M75.49,317h-.1a.69.69,0,0,1-.58-.77c4-28.69-7.57-60.12-20.54-72.79a.68.68,0,1,1,1-1c13.2,12.89,25,44.83,20.93,73.94A.69.69,0,0,1,75.49,317Z" style="fill:#fff"></path><path d="M45.4,344.55c-1.52.87-4.64-1-5.84-1.84a14.4,14.4,0,0,1-4.81-5.52,13.51,13.51,0,0,1-1.2-8.14,30.93,30.93,0,0,1,1-4.33c.41-1.4.81-2.8,1.21-4.2a10.64,10.64,0,0,0,.62-4.24c-.37-2.87-2.92-4.89-5.24-6.62-2.56-1.92-5.23-4.46-5.22-7.92,0-2.67,1.39-5.15,3-7.24s3.62-3.95,5.11-6.16A8.43,8.43,0,0,0,35.84,283a8.87,8.87,0,0,0-1.17-3.36c-1.22-2.26-2.83-4.32-3.67-6.74s-.73-5.43,1.16-7.16c1.55-1.42,3.86-1.62,6-1.48a13.58,13.58,0,0,1,5.54,1.95c5.49,3.05,8.63,9.56,14.46,11.91,2.24.9,4.71,1.1,7,1.72s4.73,1.82,5.82,4c2.14,4.28-1.83,9.54-.33,14.08,1.33,4,5.23,5.55,7.42,9.17a8.59,8.59,0,0,1,1,5.25,25.12,25.12,0,0,1-2.22,8.88,62.23,62.23,0,0,1-4.87,8C71.92,329.26,45.63,344.41,45.4,344.55Z" style="fill:#BA68C8"></path><path d="M61,336.25h0a.7.7,0,0,1-.67-.71c1.13-27.15-11.66-57.13-21-65.84a.68.68,0,0,1,0-1,.69.69,0,0,1,1,0c9.49,8.89,22.55,39.36,21.4,66.89A.69.69,0,0,1,61,336.25Z" style="fill:#fff"></path><path d="M56.9,304.17a.64.64,0,0,1-.2,0C48,301.44,37.1,301,37,301a.68.68,0,0,1-.65-.72.66.66,0,0,1,.71-.65c.11,0,11.15.48,20.05,3.24a.68.68,0,0,1-.2,1.33Z" style="fill:#fff"></path></g><g id="freepik--plants--inject-58"><path d="M438.84,336.53,425,329.21s-1.05-21.17.6-37.95c2.31-23.57,19.84-50.94,38-44.28s-8.32,30.67-14.22,50.66S438.84,336.53,438.84,336.53Z" style="fill:#BA68C8"></path><path d="M438.84,336.53,425,329.21s-1.05-21.17.6-37.95c2.31-23.57,19.84-50.94,38-44.28s-8.32,30.67-14.22,50.66S438.84,336.53,438.84,336.53Z" style="opacity:0.30000000000000004"></path><path d="M432.07,334.08h0a.62.62,0,0,0,.59-.64c-1.78-52.38,24.3-78.73,24.56-79a.62.62,0,1,0-.86-.88c-.27.27-26.72,27-24.93,79.9A.63.63,0,0,0,432.07,334.08Z" style="fill:#fff"></path><path d="M445.94,340.71l-7.19-4.15a80.5,80.5,0,0,1,4.46-34.95c6.67-18.1,23.91-28,31.84-25.27,9.68,3.29,9.74,12.56,6.22,18.66C477.12,302.18,451.17,320.36,445.94,340.71Z" style="fill:#BA68C8"></path><path d="M445.94,340.71l-7.19-4.15a80.5,80.5,0,0,1,4.46-34.95c6.67-18.1,23.91-28,31.84-25.27,9.68,3.29,9.74,12.56,6.22,18.66C477.12,302.18,451.17,320.36,445.94,340.71Z" style="opacity:0.1"></path><path d="M442.15,339.13h0a.61.61,0,0,0,.61-.61c-.14-33.12,30.95-55.5,31.27-55.73a.61.61,0,0,0-.71-1c-.32.22-31.93,23-31.79,56.72A.62.62,0,0,0,442.15,339.13Z" style="fill:#fff"></path></g></g><g id="freepik--Character--inject-58"><g id="freepik--character--inject-58"><path d="M283.25,137.46a2.56,2.56,0,0,0,.18-2.57,2.63,2.63,0,0,0-2.4-1.12,8.1,8.1,0,0,0-2.66.72A84.27,84.27,0,0,1,262.44,139a5.37,5.37,0,0,1-3.58-.27,1.44,1.44,0,0,1-.68-1.06c-.14-1.24.54-2.64,1-3.9a10,10,0,0,0,.26-5.84c-.3-1.14-1.53-3.31-2.87-1.5a45.34,45.34,0,0,1-6.47,7.46c-4.32,4.13-3.87,7.22-8.09,11.22-.87.83-5.74,2.58-11.67,6l6,17.06A105.15,105.15,0,0,1,249,160.45c2.2-1.08,6.88-1.46,9.09-2,2.4-.54,4.79-1.12,7.2-1.63a50.72,50.72,0,0,0,10.44-3.45,10.06,10.06,0,0,0,4.21-3,9.27,9.27,0,0,0,1.35-3.52c.24-1.09.84-2,1.09-3.11a4.74,4.74,0,0,0-1-4.43A7.3,7.3,0,0,0,283.25,137.46Z" style="fill:#ffa8a7"></path><path d="M174.37,108.38c5.29,0,10.64.51,14.87,2.8s5.43,3.39,12.56,18.18S215,156.89,215,156.89l21.84-9.65c.59,5.11,5.48,14.27,8.26,16.18,0,0-11.82,7.67-20.48,13.06-6.48,4-11.85,7.25-15.3,6.59s-6.09-2.09-12.78-12.28a315.45,315.45,0,0,1-16.81-28.66S172.3,122.45,174.37,108.38Z" style="fill:#455a64"></path><path d="M215,156.89c-3.67,2-7.57,4.6-9.63,9.66,0,0-.14-7.07,8.33-12.37Z" style="fill:#37474f"></path><path d="M165.83,76.49l-29.54-2.18c-5.71,4.32-16.33,13.43-16.32,16h0V92h0a.65.65,0,0,0,.06.21c1,2,4.81,3.22,10.68,3.32,7,.11,17.76-.52,20.6-3,4.28-3.67,14.52-14.43,14.52-14.43L164.34,78Z" style="fill:#BA68C8"></path><path d="M165.83,76.49l-29.54-2.18c-5.71,4.32-16.33,13.43-16.32,16h0V92h0a.65.65,0,0,0,.06.21c1,2,4.81,3.22,10.68,3.32,7,.11,17.76-.52,20.6-3,4.28-3.67,14.52-14.43,14.52-14.43L164.34,78Z" style="opacity:0.2"></path><path d="M136.29,76c-6,4.52-17.3,14.26-16.26,16.25s4.81,3.22,10.68,3.32c7,.11,17.76-.52,20.6-3,4.28-3.67,14.52-14.43,14.52-14.43Z" style="fill:#BA68C8"></path><path d="M136.29,76c-6,4.52-17.3,14.26-16.26,16.25s4.81,3.22,10.68,3.32c7,.11,17.76-.52,20.6-3,4.28-3.67,14.52-14.43,14.52-14.43Z" style="opacity:0.4"></path><path d="M136.29,76c-.09.86,2.92,2.64,2.92,2.64l-.84-5.18Z" style="fill:#BA68C8"></path><path d="M136.29,76c-.09.86,2.92,2.64,2.92,2.64l-.84-5.18Z" style="opacity:0.30000000000000004"></path><path d="M131.45,402.92c-.4,1.6-1.26,6.14-9.69,6.14s-13.29-3.46-15-7.74-.7-7.47-.55-11.21S103.64,384,103,382c-.91-3,1.58-7.08,1.58-7.08Z" style="fill:#263238"></path><path d="M210.57,379.64c.31.22.5,2.85-.39,4.06-.62.83-6.27,4.93-13.26,4.08a32.36,32.36,0,0,1-14.38-5c-4.08-2.41-6.9-2.76-11-2.75s-7-.77-7.34-1.81c-.61-1.83-.65-3,.23-3Z" style="fill:#263238"></path><path d="M107.41,368.75c0,7.69,14.73,9.1,14.37,2.9l5.13-18-16.65-1.76Z" style="fill:#ffa8a7"></path><path d="M131.37,399.07c-.55-1.46-2.41-3.71-3.19-5.07a41.33,41.33,0,0,1-5.59-23.15c0-.45.09-1.32-.31-1.65s-.91,0-1.41.13l0,0v0a8.84,8.84,0,0,1-2.65.32c-3-.08-6.13-1.23-6.88-1.23-.58,0-1,1.74-1.21,3.66-1-.81-1.12-2.16-2-3.06-.45-.48-.67-.52-.57-1.2.07-.44.15-.83.22-1.28-.72-.32-1.75,2.48-2.67,4.6-1.07,2.45-2.36,5.21-1.71,7.94a22.21,22.21,0,0,0,1.78,4.32,16.7,16.7,0,0,1,2,7.74c0,1.18-.3,2.35-.29,3.53a10.32,10.32,0,0,0,6.07,9.4c4.84,2.28,12.45,3.07,17.39.15C132.09,403.21,131.91,400.53,131.37,399.07Z" style="fill:#BA68C8"></path><path d="M131.37,399.07c-.55-1.46-2.41-3.71-3.19-5.07a41.33,41.33,0,0,1-5.59-23.15c0-.45.09-1.32-.31-1.65s-.91,0-1.41.13l0,0v0a8.84,8.84,0,0,1-2.65.32c-3-.08-6.13-1.23-6.88-1.23-.58,0-1,1.74-1.21,3.66-1-.81-1.12-2.16-2-3.06-.45-.48-.67-.52-.57-1.2.07-.44.15-.83.22-1.28-.72-.32-1.75,2.48-2.67,4.6-1.07,2.45-2.36,5.21-1.71,7.94a22.21,22.21,0,0,0,1.78,4.32,16.7,16.7,0,0,1,2,7.74c0,1.18-.3,2.35-.29,3.53a10.32,10.32,0,0,0,6.07,9.4c4.84,2.28,12.45,3.07,17.39.15C132.09,403.21,131.91,400.53,131.37,399.07Z" style="opacity:0.4"></path><path d="M167.32,362.48c4.16,3,8,3.36,12.9.91l2.47-26.23h-18Z" style="fill:#ffa8a7"></path><path d="M127.87,194.33c-3.32,30.53-7.74,91.14-7.74,91.14s-5,9.18-6.95,23.91c-2.41,18.18-5.24,52.77-5.24,52.77s8.51,5.52,16.78,2.85c0,0,18.92-54.6,22.7-72.5,3.29-15.62,9.13-47.71,9.13-47.71l7.29,43.67a68.33,68.33,0,0,0-2.35,21.28c.35,8.41,3.66,40.55,3.66,40.55,2.74,2.59,13.26,2.94,16.78.7,0,0,5-53.52,5.79-62.36,1-11.62,2.76-95,2.76-95Z" style="fill:#263238"></path><path d="M156.55,244.79,160.62,226s9.1-2.08,15.6-7.29c0,0-2.38,6-12.35,10.57l-4.16,17.59,3.58,38.58Z"></path><path d="M207,374.39c-6.89-2.58-13.6-5.59-17.85-8.58-1.19-.84-2.1-1.54-2.87-2.2-1.75-1.77-2.82-5.6-3.58-6-.25-.14-.6,0-1.1.34a1.22,1.22,0,0,0-.81-.48l-.09,1.06a11.66,11.66,0,0,1-4.72,1.72c-4.23.54-4.4-.31-4.53,1.06a9,9,0,0,0,0,1.54c-2.25-.29-4-.94-4.17-1.79l-.38-2.7c-2.23-.12-2.23,3.88-2.8,8.39-.46,3.65-1.23,6.31-.13,9,3.49,2.82,9.41,1.88,12.82,2.31,4.83.62,7.2,4.08,14,6.14,10.89,3.32,17.52-1.22,19.47-3.17C211.47,378.51,210.75,375.79,207,374.39Z" style="fill:#BA68C8"></path><path d="M207,374.39c-6.89-2.58-13.6-5.59-17.85-8.58-1.19-.84-2.1-1.54-2.87-2.2-1.75-1.77-2.82-5.6-3.58-6-.25-.14-.6,0-1.1.34a1.22,1.22,0,0,0-.81-.48l-.09,1.06a11.66,11.66,0,0,1-4.72,1.72c-4.23.54-4.4-.31-4.53,1.06a9,9,0,0,0,0,1.54c-2.25-.29-4-.94-4.17-1.79l-.38-2.7c-2.23-.12-2.23,3.88-2.8,8.39-.46,3.65-1.23,6.31-.13,9,3.49,2.82,9.41,1.88,12.82,2.31,4.83.62,7.2,4.08,14,6.14,10.89,3.32,17.52-1.22,19.47-3.17C211.47,378.51,210.75,375.79,207,374.39Z" style="opacity:0.4"></path><path d="M150,107.78A202.27,202.27,0,0,0,129.67,110c-6.52.89-5.93,6-5.93,17.13,0,16.44,5.35,44.92,5.35,44.92l-2.28,28c7.65,8.18,44.29,11.76,63.83-.23,0,0,.53-55.78,0-65.18-.92-16.55-11.67-26.06-17.78-26.52A149,149,0,0,0,150,107.78Z" style="fill:#37474f"></path><path d="M144.05,58.72s-4.61.65-6.3,4.12c-1.47,3-.94,10.33,1,18.28s3.81,12.75,5,14.95a6,6,0,0,0,3.52,2.82L147,89.45l-.34-6.57s4.22-5.77,4.69-10.5c.59-6.08-.69-8.57-.69-8.57Z" style="fill:#263238"></path><path d="M151.5,67.86a17.63,17.63,0,0,0,17.69,17.57c9.73,0,17-8,17-17.75s-7.38-17.54-17.12-17.51A17.63,17.63,0,0,0,151.5,67.86Z" style="fill:#263238"></path><path d="M146.93,81.83c-1.59,1.37-2.88-2.19-4.21-3.58S137,75,134.88,79.55s2,11,5.24,12.5c4.77,2.21,6.9-2.6,6.9-2.6l.51,19.86c5,9,12.15,10.68,16.87,10.17s5.77-5.43,2.31-9.39l0-6.47s5.34.79,7.94.38c4.33-.69,6.6-4,7.9-8.65,2.09-7.54,2.92-20.22,0-34.86-4.85-3.75-21.67-3.13-31.86,3.32C151.43,76.8,148.52,80.45,146.93,81.83Z" style="fill:#ffa8a7"></path><path d="M180.72,54.09a20.52,20.52,0,0,0-7.14-4.93,18.28,18.28,0,0,0-6.89-1.47c-3.08,0-6.14-.45-9.21-.36-5.34.17-11.78,2.35-14.19,7.54-1.1,2.37-1.29,4.87.89,6.51a14.86,14.86,0,0,0,6.5,2.43c4,.69,7.88,1.56,11.85,2.09a35.35,35.35,0,0,0,12.85-.19A17.12,17.12,0,0,0,181,63.33a14.88,14.88,0,0,0,2.4-2c.28-.29,1-.88,1.12-1.28s-.42-1.17-.62-1.56A19.75,19.75,0,0,0,180.72,54.09Z" style="fill:#263238"></path><path d="M166.68,103.62s-9.68-1.92-13.07-3.71a11.06,11.06,0,0,1-4.69-4.61,15.21,15.21,0,0,0,2.67,5.45c2.48,3.15,15.1,5.44,15.1,5.44Z" style="fill:#f28f8f"></path><path d="M164.93,78.61a1.94,1.94,0,1,1-2-2A2,2,0,0,1,164.93,78.61Z" style="fill:#263238"></path><path d="M163,71.86l-4.33,1.94a2.5,2.5,0,0,1,1.24-3.21A2.33,2.33,0,0,1,163,71.86Z" style="fill:#263238"></path><path d="M165.12,91.83l6.19,2.3a3.26,3.26,0,0,1-4.2,2.06A3.46,3.46,0,0,1,165.12,91.83Z" style="fill:#b16668"></path><path d="M167.11,96.19a3.28,3.28,0,0,0,1.72.13,3,3,0,0,0-3-2.88,2.83,2.83,0,0,0-.83.14A3.38,3.38,0,0,0,167.11,96.19Z" style="fill:#f28f8f"></path><path d="M181.12,73l-4.48-1.65a2.29,2.29,0,0,1,3-1.46A2.51,2.51,0,0,1,181.12,73Z" style="fill:#263238"></path><path d="M180.88,78a2,2,0,0,1-1.93,2,2,2,0,1,1,1.93-2Z" style="fill:#263238"></path><polygon points="170.5 75.97 171.45 88.83 177.53 86.73 170.5 75.97" style="fill:#f28f8f"></polygon><path d="M135,68.79a26.13,26.13,0,0,0,1.26,7.33,9.15,9.15,0,0,1,1.81-2.05,43.6,43.6,0,0,1,13.28-7.6h0c11.16-4.31,24.19-5,34.58-1.32a23.06,23.06,0,0,0-1.39-6.24c-3.8-9.89-11.46-15.07-23.71-13.8C146.5,46.6,134.65,54.58,135,68.79Z" style="fill:#BA68C8"></path><path d="M161.33,60c3.33-1.12,11.84-1.78,14.33-1a15.49,15.49,0,0,0,3-3.29c1.16-1.85.77-4.18-.33-4.65s-1.16,1-5.39,3c0,0,1-2.55.34-4.27s-2.14,1.37-5.29,3.35S161.73,56.23,161.33,60Z" style="fill:#263238"></path><path d="M130.19,110.65a19.62,19.62,0,0,0-17.73,13.83c-2.57,7.5-8.92,26.66-12.77,38.51-6.73-3.26-23-11.15-26.29-14a59.94,59.94,0,0,1-8.3-8.92,37.63,37.63,0,0,1-7.18-14.18c-.86-2.52-4.09.13-4,4.61a23,23,0,0,0,1.42,7.17c-1.61-.15-6.32-.63-7-.69-2.54-.2-10.33-.07-9.55,4.06.18.92.8,1.77.72,2.71A5.87,5.87,0,0,1,39,145a4.75,4.75,0,0,0,1.12,4.7,3.62,3.62,0,0,1,1.14,1.91A6.18,6.18,0,0,0,42,153.9a10.06,10.06,0,0,0,1.47,1.29A7.31,7.31,0,0,1,45,157.25a9.06,9.06,0,0,0,1.37,2.12c1.4,1.44,3.63,1.06,5.44,1a79.06,79.06,0,0,1,8.23.17c4.78,1.11,22.06,16,37,24.11,5.11,2.78,9.29,4.16,12.53,2.45h0c2.74-1.08,4.08-4.07,5.82-8.36,4-10,14.22-36.78,14.22-36.78C133.43,130.89,133.1,116.05,130.19,110.65Z" style="fill:#ffa8a7"></path><path d="M52.66,139.05c2.41,0,3.5,1.21,4.48,4.37.59,1.87,2.29,5.12,4.77,5.82a5.08,5.08,0,0,1-3-.26c-1.29-.66-1.59-.69-1.93.05a3.65,3.65,0,0,1-1.12,1.27A2.55,2.55,0,0,1,57,153.1c-.43,1.93-4.78,3.42-9,2.77,0,0,6.4-.13,7.12-2.42s-3.11-3.57-5.6-3.43c0,0,6-.54,6.27-2.66s-2.53-2.74-6.1-2.48c0,0,4.9-.7,5.17-2.54C55.25,140.11,53.48,139.48,52.66,139.05Z" style="fill:#f28f8f"></path><path d="M132.41,109.58c-5.24.74-9.37,1-13.27,3.84s-6,5-11.16,20.56-8.91,28.15-8.91,28.15L77,151.36c.09,5.15-4.49,14.53-7,16.78,0,0,15.06,10.64,21.42,14.64s13.48,7.57,16.82,6.46,5.12-3.9,10.41-14.88a312.57,312.57,0,0,0,12.9-30.62S136.31,123.26,132.41,109.58Z" style="fill:#455a64"></path><path d="M99.07,162.13c7.19,4,9.91,9.16,9.91,9.16S108,164,100.11,159Z" style="fill:#37474f"></path></g></g><g id="freepik--speech-bubble--inject-58"><g id="freepik--speech-bubble--inject-58"><g id="freepik--speech-bubble--inject-58"><g id="freepik--speach-bubble--inject-58"><path d="M259,33.74,214.46,59.45A3.34,3.34,0,0,0,213,62.06v43.25a3.27,3.27,0,0,0,1.52,2.59l3.54,2a3.38,3.38,0,0,0,3,0L265.6,84.19a3.34,3.34,0,0,0,1.51-2.61V38.34a3.28,3.28,0,0,0-1.52-2.6l-3.54-2A3.38,3.38,0,0,0,259,33.74Z" style="fill:#BA68C8"></path><path d="M219.52,109V65.79A3.34,3.34,0,0,1,221,63.18L265.6,37.47c.83-.49,1.51-.1,1.51.87V81.58a3.34,3.34,0,0,1-1.51,2.61L221,109.9C220.2,110.38,219.52,110,219.52,109Z" style="fill:#BA68C8"></path><path d="M221,109.9a3.43,3.43,0,0,1-3,0l-3.53-2a3.27,3.27,0,0,1-1.52-2.59V62.06a3.15,3.15,0,0,1,.48-1.54L220,64.3a3,3,0,0,0-.45,1.49V109C219.52,109.91,220.14,110.42,221,109.9Z" style="opacity:0.2"></path><path d="M267.09,38.06c-.12-.76-.74-1-1.49-.6L221,63.18A3,3,0,0,0,220,64.3l-6.55-3.78a3.05,3.05,0,0,1,1-1.07L259,33.74a3.38,3.38,0,0,1,3,0l3.54,2A3.33,3.33,0,0,1,267.09,38.06Z" style="fill:#fff;opacity:0.5"></path></g><path d="M213,76.88,202.71,87.71a1.33,1.33,0,0,0,.22,2.06c.25.17,6.54,3.82,6.54,3.82l10.05-12.86Z" style="fill:#BA68C8"></path><path d="M213,76.88,202.71,87.71a1.33,1.33,0,0,0,.22,2.06c.25.17,6.54,3.82,6.54,3.82l10.05-12.86Z" style="opacity:0.1"></path><path d="M219.52,80.73,209.28,91.56a1.33,1.33,0,0,0,1.14,2.25l9.1-.08C220.7,93.73,220.7,80.73,219.52,80.73Z" style="fill:#BA68C8"></path></g><path id="freepik--Clapperboard--inject-58" d="M255.41,59.81,234.83,71.69l20.4-17.8a3,3,0,0,0,.9-2.39l-.4-2.92c-.11-.79-.68-1-1.28-.49L230.94,68.61A3,3,0,0,0,230,71l.4,2.92a1.08,1.08,0,0,0,.27.62,3,3,0,0,0-.35,1.33V94.51c0,.89.54,1.29,1.2.91l23.85-13.77a2.88,2.88,0,0,0,1.2-2.29V60.72C256.61,59.84,256.07,59.43,255.41,59.81Zm-8-.92L249,54.62a3.89,3.89,0,0,1,.87-1.32L253,50.58c.3-.26.4-.09.22.37l-1.56,4.28a4,4,0,0,1-.87,1.32l-3.11,2.71C247.38,59.53,247.28,59.36,247.45,58.89Zm-7.51,6.56,1.57-4.27a4,4,0,0,1,.87-1.33l3.11-2.71c.3-.26.4-.1.22.37l-1.57,4.27a3.87,3.87,0,0,1-.86,1.33l-3.11,2.71C239.86,66.08,239.76,65.92,239.94,65.45ZM232.43,72,234,67.73a3.83,3.83,0,0,1,.86-1.32L238,63.7c.31-.27.41-.1.23.37l-1.57,4.27a3.89,3.89,0,0,1-.87,1.32l-3.11,2.72C232.35,72.64,232.25,72.48,232.43,72Zm6,.29-1.69,3.26a3,3,0,0,1-1,1.15l-3.17,1.84c-.31.18-.39,0-.17-.51l1.7-3.26a3.08,3.08,0,0,1,1-1.16l3.17-1.83C238.55,71.61,238.62,71.84,238.4,72.3Zm7.68-4.43-1.7,3.26a3,3,0,0,1-.95,1.15l-3.18,1.84c-.31.17-.38-.05-.16-.52l1.7-3.25a3,3,0,0,1,1-1.16l3.18-1.83C246.23,67.18,246.3,67.41,246.08,67.87Zm7.67-4.43-1.69,3.25a3,3,0,0,1-1,1.16l-3.17,1.83c-.31.18-.38-.05-.17-.51l1.7-3.26a3,3,0,0,1,1-1.15l3.17-1.84C253.9,62.75,254,63,253.75,63.44Z" style="fill:#455a64"></path></g></g><g id="freepik--video-camera--inject-58"><g id="freepik--video-camera--inject-58"><path d="M327.78,414c-.33-.07-.55-.73-.5-1.48L341.75,179.6l7.21.76L328.52,412.78C328.45,413.53,328.12,414.08,327.78,414Z" style="fill:#37474f"></path><path d="M395.41,373.94c.14.74,0,1.34-.32,1.34s-.73-.59-.91-1.32L349.24,184l8.3-1.67Z" style="fill:#37474f"></path><path d="M302.87,359.54l28.91-183.46,7.61,5.21L304.15,359.6c-.2.73-.63,1.31-1,1.3S302.71,360.28,302.87,359.54Z" style="fill:#37474f"></path><path d="M276.94,123.12c-1.28-.75-3.06-.65-5,.48a15.69,15.69,0,0,0-7.13,12.29c0,2.22.76,3.79,2,4.55.42.25,5.43,2.82,5.82,3.05,1.29.75,3.06.65,5-.48a15.71,15.71,0,0,0,7.13-12.29c0-2.24-.77-3.81-2-4.56C282.33,125.91,277.33,123.35,276.94,123.12Z" style="fill:#455a64"></path><path d="M265.62,139.25a1.13,1.13,0,0,0,.12.18l-.14-.19h0Z" style="fill:#455a64"></path><path d="M270.54,138.9c0,4.53,3.17,6.37,7.1,4.11a15.71,15.71,0,0,0,7.13-12.29c0-4.53-3.17-6.37-7.1-4.11A15.69,15.69,0,0,0,270.54,138.9Z" style="fill:#263238"></path><path d="M272.44,143.39l-.07,0-.05,0-.12-.06-.1-.06-.21-.11-.48-.27c-.56-.31-3.43-1.72-3.92-2l-.4-.22-.3-.18a2.36,2.36,0,0,1-.45-.33,1.07,1.07,0,0,1-.19-.18,3.08,3.08,0,0,1-.3-.33,1.53,1.53,0,0,1-.11-.16,1.13,1.13,0,0,1-.12-.18h0a6.33,6.33,0,0,1-.81-3.35,13,13,0,0,1,1-4.69c.08-.2.16-.4.25-.59s.12-.3.19-.44l.21-.43s0,0,0,0l5.72,3.08a13.88,13.88,0,0,0-1.61,6.09,6.37,6.37,0,0,0,.79,3.32A3.67,3.67,0,0,0,272.44,143.39Z" style="opacity:0.15"></path><path d="M308.64,146.94a10.66,10.66,0,0,1-4.84,8.34,4.38,4.38,0,0,1-2.16.66,2.54,2.54,0,0,1-1.24-.32h0l-24.9-14.08-.07,0a2.48,2.48,0,0,1-.37-.29,3.72,3.72,0,0,1-1-2.82,10.68,10.68,0,0,1,4.84-8.35,3.73,3.73,0,0,1,2.94-.53,2.78,2.78,0,0,1,.4.16h0l.13.08,24.85,14.06h0A3.39,3.39,0,0,1,308.64,146.94Z" style="fill:#37474f"></path><path d="M298.39,148.61a9.25,9.25,0,0,0-.7,3.37,4.52,4.52,0,0,0,.58,2.41l-3.22-1.86-.07,0h0l-17.65-9.9-.08-.05h0l-1.71-1h0a3.41,3.41,0,0,1-1.38-3.11,8.7,8.7,0,0,1,.66-3.17Z" style="opacity:0.15"></path><path d="M385.11,118h0a1.14,1.14,0,0,0-.67-.94l-58-33.51a3.62,3.62,0,0,0-3.27,0l-36.58,21.12a1.15,1.15,0,0,0-.68.94h0v14.16a1.17,1.17,0,0,0,.68,1l58,33.5a3.62,3.62,0,0,0,3.27,0l36.58-21.12a1.14,1.14,0,0,0,.67-.94h0v-6.53l.26-.14a2,2,0,0,1-.26-1Zm-5.17,3.54Zm-88.89-12.39Z" style="fill:#37474f"></path><path d="M286.55,106.56l58,33.51a3.62,3.62,0,0,0,3.27,0L384.44,119a1,1,0,0,0,0-1.89l-58-33.51a3.62,3.62,0,0,0-3.27,0l-36.58,21.12A1,1,0,0,0,286.55,106.56Z" style="fill:#455a64"></path><path d="M344.59,140.06l-58-33.5a1.14,1.14,0,0,1-.67-.94v14.15a1.16,1.16,0,0,0,.67,1l58,33.5a3.22,3.22,0,0,0,1.63.39V140.46A3.23,3.23,0,0,1,344.59,140.06Z" style="fill:#263238"></path><path d="M397.38,134.59V173.3a3.66,3.66,0,0,1-1.63,2.83l-35.64,20.56a3.63,3.63,0,0,1-3.26,0l-1-.58-2.18-1.26v-.51L351,192.84l-.43.25h0l-2.19-1.26-.43-.25h0l-.11-.06a2.92,2.92,0,0,1-.91-.85,3.22,3.22,0,0,1-.54-1l-.07-.22a2.56,2.56,0,0,1-.12-.76V148.09l.26-.15,38.89-22.45a1.88,1.88,0,0,0,.69.68l9.69,5.59A3.66,3.66,0,0,1,397.38,134.59Z" style="fill:#455a64"></path><path d="M360.11,196.69a3.28,3.28,0,0,1-1.63.45,3.38,3.38,0,0,1-1.63-.44l-1-.58-2.18-1.26v-.51L351,192.84l-.43.25h0l-2.19-1.26-.43-.25h0a3.44,3.44,0,0,1-1-.91,3.22,3.22,0,0,1-.54-1l-.07-.22a3.57,3.57,0,0,1-.12-.92l-.16-48.06.16,6.54a1.82,1.82,0,0,0,.26.94,2,2,0,0,0,.68.69l11.8,6.81a3.43,3.43,0,0,0-.48,1.61v38.7Z" style="fill:#263238"></path><path d="M294.25,158.78a3.6,3.6,0,0,1-1.64-2.83v-14l56.68,32.72v15.93Z" style="fill:#263238"></path><path d="M395.74,133.65l-35.62,20.57a3.6,3.6,0,0,0-1.64,2.83v38.7c0,1,.73,1.46,1.64.94l35.62-20.57a3.58,3.58,0,0,0,1.64-2.83v-38.7C397.38,133.55,396.65,133.13,395.74,133.65Z" style="fill:#37474f"></path><path d="M292.58,122.43a3.49,3.49,0,0,0-1.53,2.77v21a3.62,3.62,0,0,0,1.63,2.83l48.84,28.2a3.39,3.39,0,0,0,3.17,0,3.71,3.71,0,0,0,1.53-2.85V153.44a3.62,3.62,0,0,0-1.63-2.83l-48.84-28.13A3.51,3.51,0,0,0,292.58,122.43Z" style="fill:#BA68C8"></path><path d="M292.58,122.43a3.49,3.49,0,0,0-1.53,2.77v21a3.62,3.62,0,0,0,1.63,2.83l48.84,28.2a3.39,3.39,0,0,0,3.17,0,3.71,3.71,0,0,0,1.53-2.85V153.44a3.62,3.62,0,0,0-1.63-2.83l-48.84-28.13A3.51,3.51,0,0,0,292.58,122.43Z" style="opacity:0.2"></path><path d="M292.68,124.25l48.85,28.2a3.62,3.62,0,0,1,1.63,2.83v21c0,1-.73,1.46-1.64.94L292.68,149a3.62,3.62,0,0,1-1.63-2.83v-21C291.05,124.16,291.78,123.73,292.68,124.25Z" style="fill:#BA68C8"></path><path d="M292.68,124.25l48.85,28.2a3.62,3.62,0,0,1,1.63,2.83v21c0,1-.73,1.46-1.64.94L292.68,149a3.62,3.62,0,0,1-1.63-2.83v-21C291.05,124.16,291.78,123.73,292.68,124.25Z" style="opacity:0.4"></path><path d="M346.22,153.44v20.92a3.74,3.74,0,0,1-1.53,2.85,3.36,3.36,0,0,1-2.91.14c.78.32,1.38-.12,1.38-1.06v-21a3.25,3.25,0,0,0-.49-1.61h0l3.1-1.78A3.34,3.34,0,0,1,346.22,153.44Z" style="opacity:0.15"></path><path d="M310.42,138l13.36,7.71a2.14,2.14,0,0,1,1,1.7v1.26c0,.63-.44.88-1,.57l-13.34-7.71a2.16,2.16,0,0,1-1-1.69V138.6C309.44,138,309.88,137.72,310.42,138Z" style="fill:#e6e6e6"></path><path d="M309.43,161.41a1.79,1.79,0,0,0-.81-1.41l-3-1.71a.59.59,0,0,0-.58-.06l-1.53.89a.58.58,0,0,0-.24.53v1.65a1.82,1.82,0,0,0,.82,1.42l3,1.7a.55.55,0,0,0,.57.06l1.54-.88a.6.6,0,0,0,.24-.53Z" style="fill:#BA68C8"></path><path d="M304.13,159.18l3,1.7a1.81,1.81,0,0,1,.81,1.42V164c0,.52-.36.73-.81.47l-3-1.7a1.82,1.82,0,0,1-.82-1.42v-1.65C303.31,159.13,303.68,158.92,304.13,159.18Z" style="fill:#BA68C8"></path><path d="M309.43,161.41v1.66a.59.59,0,0,1-.24.53l-1.48.85a.63.63,0,0,0,.19-.5V162.3a1.71,1.71,0,0,0-.23-.8l1.53-.89A1.77,1.77,0,0,1,309.43,161.41Z" style="opacity:0.15"></path><path d="M309.2,160.61l-1.53.89a1.63,1.63,0,0,0-.58-.61l-3-1.71a.61.61,0,0,0-.54-.08c.26-.15,1.35-.79,1.5-.86a.55.55,0,0,1,.57,0l3,1.71A1.7,1.7,0,0,1,309.2,160.61Z" style="opacity:0.25"></path><path d="M318.63,166.73a1.82,1.82,0,0,0-.82-1.42l-2.95-1.7a.57.57,0,0,0-.58-.06l-1.54.89a.58.58,0,0,0-.23.52v1.66a1.78,1.78,0,0,0,.82,1.41l2.95,1.71a.56.56,0,0,0,.58,0l1.53-.88a.58.58,0,0,0,.24-.53Z" style="fill:#BA68C8"></path><path d="M313.33,164.49l2.95,1.71a1.8,1.8,0,0,1,.82,1.41v1.66c0,.52-.37.73-.82.47L313.33,168a1.78,1.78,0,0,1-.82-1.41V165C312.51,164.44,312.87,164.23,313.33,164.49Z" style="fill:#BA68C8"></path><path d="M318.63,166.73v1.65a.57.57,0,0,1-.24.53l-1.48.85a.61.61,0,0,0,.19-.5v-1.65a1.67,1.67,0,0,0-.24-.8l1.54-.88A1.74,1.74,0,0,1,318.63,166.73Z" style="opacity:0.15"></path><path d="M318.4,165.93l-1.54.88a1.62,1.62,0,0,0-.58-.61l-3-1.7a.59.59,0,0,0-.54-.09l1.5-.86a.59.59,0,0,1,.58,0l2.95,1.71A1.85,1.85,0,0,1,318.4,165.93Z" style="opacity:0.25"></path><path d="M327.83,172a1.8,1.8,0,0,0-.82-1.41l-3-1.71a.58.58,0,0,0-.57-.06l-1.54.89a.58.58,0,0,0-.24.53v1.65a1.82,1.82,0,0,0,.82,1.42l3,1.7a.58.58,0,0,0,.57.06l1.54-.89a.55.55,0,0,0,.24-.52Z" style="fill:#BA68C8"></path><path d="M322.52,169.81l3,1.7a1.81,1.81,0,0,1,.81,1.42v1.65c0,.52-.36.73-.81.47l-3-1.7a1.82,1.82,0,0,1-.82-1.42v-1.65C321.7,169.76,322.07,169.55,322.52,169.81Z" style="fill:#BA68C8"></path><path d="M327.83,172v1.66a.56.56,0,0,1-.25.52l-1.48.86a.59.59,0,0,0,.19-.5v-1.65a1.71,1.71,0,0,0-.23-.8l1.53-.89A1.79,1.79,0,0,1,327.83,172Z" style="opacity:0.15"></path><path d="M327.59,171.24l-1.53.89a1.56,1.56,0,0,0-.58-.61l-3-1.71a.61.61,0,0,0-.54-.08c.26-.15,1.36-.79,1.5-.86a.55.55,0,0,1,.57,0l3,1.71A1.7,1.7,0,0,1,327.59,171.24Z" style="opacity:0.25"></path><path d="M355.85,169.69v26.43l-2.18-1.26v-.51L351,192.84l-.43.25h0l-2.19-1.26V165.4c0-1,.74-1.47,1.63-1l4.17,2.41A3.62,3.62,0,0,1,355.85,169.69Z" style="fill:#455a64"></path><path d="M353.67,185v9.33L351,192.84l-.43.25h0v-9.84c0-.34.18-.51.46-.45a.67.67,0,0,1,.18.07l1.77,1A1.45,1.45,0,0,1,353.67,185Z" style="fill:#263238"></path><path d="M353.67,185v9.33L351,192.84V183a.64.64,0,0,1,0-.2.67.67,0,0,1,.18.07l1.77,1A1.45,1.45,0,0,1,353.67,185Z" style="fill:#37474f"></path><path d="M351.94,184.72l-.34.2,0,0a.43.43,0,0,0-.06.24,1.13,1.13,0,0,0,.52.9.47.47,0,0,0,.24.07l0,0,.33-.19h0a.36.36,0,0,0,.16-.34,1.16,1.16,0,0,0-.52-.9A.37.37,0,0,0,351.94,184.72Z" style="fill:#BA68C8"></path><path d="M351.94,184.72l-.34.2,0,0a.43.43,0,0,0-.06.24,1.13,1.13,0,0,0,.52.9.47.47,0,0,0,.24.07l0,0,.33-.19h0a.36.36,0,0,0,.16-.34,1.16,1.16,0,0,0-.52-.9A.37.37,0,0,0,351.94,184.72Z" style="opacity:0.15"></path><path d="M352.49,185.85c0,.34-.23.47-.52.31a1.15,1.15,0,0,1-.52-.91c0-.33.23-.46.52-.3A1.15,1.15,0,0,1,352.49,185.85Z" style="fill:#BA68C8"></path><path d="M351.7,169.4l-.74.43,0,.06a1.08,1.08,0,0,0-.13.54,2.52,2.52,0,0,0,1.15,2,1,1,0,0,0,.53.15l0,.07.75-.43h0a.82.82,0,0,0,.33-.74,2.52,2.52,0,0,0-1.14-2A.81.81,0,0,0,351.7,169.4Z" style="fill:#BA68C8"></path><path d="M351.7,169.4l-.74.43,0,.06a1.08,1.08,0,0,0-.13.54,2.52,2.52,0,0,0,1.15,2,1,1,0,0,0,.53.15l0,.07.75-.43h0a.82.82,0,0,0,.33-.74,2.52,2.52,0,0,0-1.14-2A.81.81,0,0,0,351.7,169.4Z" style="opacity:0.15"></path><path d="M352.91,171.89c0,.73-.51,1-1.14.66a2.54,2.54,0,0,1-1.15-2c0-.73.52-1,1.15-.66A2.52,2.52,0,0,1,352.91,171.89Z" style="fill:#BA68C8"></path><path d="M351.94,188.3l-.34.19,0,0a.49.49,0,0,0-.06.25,1.15,1.15,0,0,0,.52.9.47.47,0,0,0,.24.07l0,0,.33-.19h0a.38.38,0,0,0,.16-.34,1.16,1.16,0,0,0-.52-.9A.37.37,0,0,0,351.94,188.3Z" style="fill:#BA68C8"></path><path d="M351.94,188.3l-.34.19,0,0a.49.49,0,0,0-.06.25,1.15,1.15,0,0,0,.52.9.47.47,0,0,0,.24.07l0,0,.33-.19h0a.38.38,0,0,0,.16-.34,1.16,1.16,0,0,0-.52-.9A.37.37,0,0,0,351.94,188.3Z" style="opacity:0.15"></path><path d="M352.49,189.43c0,.34-.23.47-.52.3a1.13,1.13,0,0,1-.52-.9c0-.33.23-.46.52-.3A1.15,1.15,0,0,1,352.49,189.43Z" style="fill:#BA68C8"></path><path d="M351.87,174.68l-.46.27,0,0a.68.68,0,0,0-.08.34,1.55,1.55,0,0,0,.71,1.22.62.62,0,0,0,.32.1l0,0,.46-.27h0a.51.51,0,0,0,.2-.46,1.56,1.56,0,0,0-.7-1.22A.51.51,0,0,0,351.87,174.68Z" style="fill:#263238"></path><path d="M352.61,176.22c0,.45-.31.63-.7.41a1.59,1.59,0,0,1-.71-1.23c0-.45.32-.63.71-.41A1.57,1.57,0,0,1,352.61,176.22Z" style="fill:#37474f"></path><path d="M351.87,178.55l-.46.26,0,0a.68.68,0,0,0-.08.34,1.55,1.55,0,0,0,.71,1.22.62.62,0,0,0,.32.1l0,0,.46-.27h0a.51.51,0,0,0,.2-.46,1.54,1.54,0,0,0-.7-1.22A.49.49,0,0,0,351.87,178.55Z" style="fill:#263238"></path><path d="M352.61,180.09c0,.45-.31.63-.7.41a1.59,1.59,0,0,1-.71-1.23c0-.45.32-.63.71-.41A1.57,1.57,0,0,1,352.61,180.09Z" style="fill:#37474f"></path><path d="M365.37,147.15a1,1,0,0,0-.46-.77l-4.34-2.49a1,1,0,0,0-.92,0l-6,3.44a.94.94,0,0,0-.44.77,1,1,0,0,0,.48.78l4.32,2.48a1,1,0,0,0,.92,0l6-3.45A1,1,0,0,0,365.37,147.15Z" style="fill:#BA68C8"></path><path d="M365.37,147.15a1,1,0,0,0-.46-.77l-4.34-2.49a1,1,0,0,0-.92,0l-6,3.44a.94.94,0,0,0-.44.77,1,1,0,0,0,.48.78l4.32,2.48a1,1,0,0,0,.92,0l6-3.45A1,1,0,0,0,365.37,147.15Z" style="fill:#fff;opacity:0.2"></path><path d="M364.91,146.91l-6,3.44a1,1,0,0,1-.92,0l-4.34-2.49c-.25-.15-.25-.39,0-.53l6-3.44a1,1,0,0,1,.92,0l4.34,2.49C365.17,146.53,365.17,146.77,364.91,146.91Z" style="fill:#BA68C8"></path><path d="M364.91,146.91l-6,3.44a1,1,0,0,1-.92,0l-4.34-2.49c-.25-.15-.25-.39,0-.53l6-3.44a1,1,0,0,1,.92,0l4.34,2.49C365.17,146.53,365.17,146.77,364.91,146.91Z" style="fill:#fff;opacity:0.5"></path><path d="M358,151.36l-4.32-2.48a1,1,0,0,1-.48-.78.92.92,0,0,1,.38-.73c-.19.15-.17.35.06.49l4.34,2.49a.81.81,0,0,0,.46.11h0v1A.9.9,0,0,1,358,151.36Z" style="opacity:0.15"></path><path d="M363.39,145.17v1.11a.74.74,0,0,1-.33.57l-4.46,2.57a.7.7,0,0,1-.66,0L355.53,148a.61.61,0,0,1,0-1.07l2.41-1.39a2.7,2.7,0,0,0,.58-.48l1.55-1.78a.47.47,0,0,1,.58-.1l2.41,1.39A.74.74,0,0,1,363.39,145.17Z" style="fill:#BA68C8"></path><path d="M363.39,145.17v1.11a.74.74,0,0,1-.33.57l-4.46,2.57a.7.7,0,0,1-.66,0L355.53,148a.61.61,0,0,1,0-1.07l2.41-1.39a2.7,2.7,0,0,0,.58-.48l1.55-1.78a.47.47,0,0,1,.58-.1l2.41,1.39A.74.74,0,0,1,363.39,145.17Z" style="opacity:0.30000000000000004"></path><path d="M358.6,148.73l2.41-1.39a2.64,2.64,0,0,0,.57-.48l1.56-1.79a.3.3,0,0,0-.08-.47l-2.41-1.39a.47.47,0,0,0-.58.1l-1.55,1.78a2.7,2.7,0,0,1-.58.48L355.53,147c-.18.1-.18.27,0,.38l2.42,1.39A.74.74,0,0,0,358.6,148.73Z" style="fill:#BA68C8"></path><path d="M363.06,144.6l-2.41-1.39a.47.47,0,0,0-.58.1l-1.55,1.78a2.44,2.44,0,0,1-.28.27l3.06,1.77a2.44,2.44,0,0,0,.28-.27l1.56-1.79A.3.3,0,0,0,363.06,144.6Z" style="opacity:0.15"></path><path d="M358.24,148.8v.7a.74.74,0,0,1-.3-.08l-2.4-1.39a.71.71,0,0,1-.34-.53.67.67,0,0,1,.28-.49c-.12.09-.1.24.06.33l2.4,1.39A.73.73,0,0,0,358.24,148.8Z" style="opacity:0.15"></path><path d="M361.3,147.13l-3.06-1.77a2.37,2.37,0,0,1-.3.21L355.53,147c-.18.1-.18.27,0,.38l2.42,1.39a.74.74,0,0,0,.65,0l2.41-1.39Z" style="opacity:0.05"></path><path d="M342.13,130.78V130h.19a2.63,2.63,0,0,1,1-1,6.4,6.4,0,0,1,5.78,0,2.56,2.56,0,0,1,1,1h.19v.78h0a2,2,0,0,1-1.2,1.67,6.4,6.4,0,0,1-5.78,0A2,2,0,0,1,342.13,130.78Z" style="fill:#263238"></path><path d="M349.11,131.67c1.6-.92,1.6-2.42,0-3.34a6.4,6.4,0,0,0-5.78,0c-1.59.92-1.59,2.42,0,3.34A6.4,6.4,0,0,0,349.11,131.67Z" style="fill:#37474f"></path><path d="M343.05,129.69v-1.35h.15a2,2,0,0,1,.78-.75,5,5,0,0,1,4.48,0,2.05,2.05,0,0,1,.79.75h.14v1.35h0a1.58,1.58,0,0,1-.93,1.3,5,5,0,0,1-4.48,0A1.58,1.58,0,0,1,343.05,129.69Z" style="fill:#BA68C8"></path><path d="M343.05,129.69v-1.35h.15a2,2,0,0,1,.78-.75,5,5,0,0,1,4.48,0,2.05,2.05,0,0,1,.79.75h.14v1.35h0a1.58,1.58,0,0,1-.93,1.3,5,5,0,0,1-4.48,0A1.58,1.58,0,0,1,343.05,129.69Z" style="opacity:0.15"></path><path d="M348.46,129.64c1.24-.72,1.24-1.87,0-2.59a5,5,0,0,0-4.48,0c-1.24.72-1.24,1.87,0,2.59A5,5,0,0,0,348.46,129.64Z" style="fill:#BA68C8"></path><path d="M358.13,126.15l-3.35,1.94a1.38,1.38,0,0,1-1.22,0l-3.35-1.94a.37.37,0,0,1,0-.7l3.35-1.93a1.32,1.32,0,0,1,1.22,0l3.35,1.93A.37.37,0,0,1,358.13,126.15Z" style="fill:#263238"></path><path d="M358.13,126.15l-3.35,1.94a1.38,1.38,0,0,1-1.22,0l-3.35-1.94,3.35-1.93a1.38,1.38,0,0,1,1.22,0Z" style="fill:#37474f"></path><path d="M352.71,126.11v-.62h.07a.93.93,0,0,1,.36-.35,2.33,2.33,0,0,1,2.06,0,.81.81,0,0,1,.36.35h.07v.62h0a.73.73,0,0,1-.43.6,2.27,2.27,0,0,1-2.06,0A.73.73,0,0,1,352.71,126.11Z" style="fill:#BA68C8"></path><path d="M352.71,126.11v-.62h.07a.93.93,0,0,1,.36-.35,2.33,2.33,0,0,1,2.06,0,.81.81,0,0,1,.36.35h.07v.62h0a.73.73,0,0,1-.43.6,2.27,2.27,0,0,1-2.06,0A.73.73,0,0,1,352.71,126.11Z" style="opacity:0.15"></path><path d="M355.2,126.09a.63.63,0,0,0,0-1.2,2.33,2.33,0,0,0-2.06,0,.63.63,0,0,0,0,1.2A2.33,2.33,0,0,0,355.2,126.09Z" style="fill:#BA68C8"></path><path d="M364.72,122.35l-3.35,1.93a1.38,1.38,0,0,1-1.22,0l-3.35-1.93c-.33-.2-.33-.51,0-.7l3.35-1.94a1.38,1.38,0,0,1,1.22,0l3.35,1.94C365.06,121.84,365.06,122.15,364.72,122.35Z" style="fill:#263238"></path><path d="M364.72,122.35l-3.35,1.93a1.38,1.38,0,0,1-1.22,0l-3.35-1.93,3.35-1.93a1.32,1.32,0,0,1,1.22,0Z" style="fill:#37474f"></path><path d="M359.3,122.31v-.62h.07a.93.93,0,0,1,.36-.35,2.27,2.27,0,0,1,2.06,0,.81.81,0,0,1,.36.35h.07v.62h0a.71.71,0,0,1-.43.59,2.27,2.27,0,0,1-2.06,0A.73.73,0,0,1,359.3,122.31Z" style="fill:#BA68C8"></path><path d="M359.3,122.31v-.62h.07a.93.93,0,0,1,.36-.35,2.27,2.27,0,0,1,2.06,0,.81.81,0,0,1,.36.35h.07v.62h0a.71.71,0,0,1-.43.59,2.27,2.27,0,0,1-2.06,0A.73.73,0,0,1,359.3,122.31Z" style="opacity:0.15"></path><path d="M361.79,122.28a.63.63,0,0,0,0-1.19,2.27,2.27,0,0,0-2.06,0,.63.63,0,0,0,0,1.19A2.27,2.27,0,0,0,361.79,122.28Z" style="fill:#BA68C8"></path><path d="M392.88,152.29h0l-.39-.23c-2.29-1.2-5.39-1-8.82,1-7.07,4.06-12.81,14-12.82,22.12a13,13,0,0,0,.55,4,7.77,7.77,0,0,0,2.29,3.65,7.06,7.06,0,0,0,.78.57h0l0,0,.05,0,.22.12,8.58,5a6.67,6.67,0,0,1-1-.76c-1.67-1.53-2.65-4.09-2.65-7.48,0-8.15,5.76-18.06,12.83-22.12,2.94-1.68,5.64-2.1,7.8-1.41a5.29,5.29,0,0,1,1,.43Z" style="fill:#BA68C8"></path><path d="M392.88,152.29h0l-.39-.23c-2.29-1.2-5.39-1-8.82,1-7.07,4.06-12.81,14-12.82,22.12a13,13,0,0,0,.55,4,7.77,7.77,0,0,0,2.29,3.65,7.06,7.06,0,0,0,.78.57h0l0,0,.05,0,.22.12,8.58,5a6.67,6.67,0,0,1-1-.76c-1.67-1.53-2.65-4.09-2.65-7.48,0-8.15,5.76-18.06,12.83-22.12,2.94-1.68,5.64-2.1,7.8-1.41a5.29,5.29,0,0,1,1,.43Z" style="opacity:0.25"></path><path d="M373.68,182.84a6.23,6.23,0,0,0,.78.57l-4.52-2.63h0l-.05,0c-2.27-1.36-3.67-4.21-3.67-8.25,0-8.15,5.76-18.05,12.83-22.11a11.62,11.62,0,0,1,5.71-1.74,6.65,6.65,0,0,1,3.33.86l4.42,2.56c-2.29-1.2-5.39-1-8.82,1-7.07,4.06-12.81,14-12.82,22.12a13,13,0,0,0,.55,4A7.62,7.62,0,0,0,373.68,182.84Z" style="fill:#455a64"></path><path d="M419.26,173.7c0,8.15-5.75,18.05-12.82,22.11a11.62,11.62,0,0,1-5.71,1.74,6.62,6.62,0,0,1-3.31-.85h0l-13.84-8-.18-.1a6.67,6.67,0,0,1-1-.76c-1.67-1.53-2.65-4.09-2.65-7.48,0-8.15,5.76-18.06,12.83-22.12,2.94-1.68,5.64-2.1,7.8-1.41a5.29,5.29,0,0,1,1,.43l.06,0,.36.21,13.69,7.94h0C417.84,166.74,419.27,169.61,419.26,173.7Z" style="fill:#37474f"></path><path d="M379,185a.34.34,0,0,1-.19,0l-4.84-2.78a.39.39,0,0,1,.38-.67l4.84,2.78a.4.4,0,0,1,.15.53A.42.42,0,0,1,379,185Z" style="fill:#37474f"></path><path d="M378,181.52a.45.45,0,0,1-.19-.05L373,178.69a.39.39,0,0,1-.14-.53.38.38,0,0,1,.53-.14l4.84,2.78a.39.39,0,0,1-.2.72Z" style="fill:#37474f"></path><path d="M377.65,178.26a.46.46,0,0,1-.2,0l-4.84-2.79a.38.38,0,0,1-.14-.52.39.39,0,0,1,.53-.15l4.84,2.79a.39.39,0,0,1-.19.72Z" style="fill:#37474f"></path><path d="M377.83,175.29a.34.34,0,0,1-.19,0l-4.84-2.78a.38.38,0,0,1-.14-.53.38.38,0,0,1,.52-.14l4.84,2.78a.4.4,0,0,1,.15.53A.42.42,0,0,1,377.83,175.29Z" style="fill:#37474f"></path><path d="M378.65,172.45a.34.34,0,0,1-.19,0l-4.84-2.78A.39.39,0,0,1,374,169l4.84,2.78a.4.4,0,0,1,.15.53A.4.4,0,0,1,378.65,172.45Z" style="fill:#37474f"></path><path d="M379.79,169.65a.33.33,0,0,1-.19-.06l-4.85-2.78a.39.39,0,1,1,.39-.67l4.84,2.79a.37.37,0,0,1,.14.52A.38.38,0,0,1,379.79,169.65Z" style="fill:#37474f"></path><path d="M381.21,166.93a.49.49,0,0,1-.2-.05l-4.84-2.79a.39.39,0,0,1-.14-.53.4.4,0,0,1,.53-.14l4.84,2.79a.37.37,0,0,1,.14.52A.38.38,0,0,1,381.21,166.93Z" style="fill:#37474f"></path><path d="M382.88,164.36a.36.36,0,0,1-.2-.06l-4.84-2.78a.39.39,0,0,1-.14-.53.4.4,0,0,1,.53-.14l4.84,2.79a.39.39,0,0,1-.19.72Z" style="fill:#37474f"></path><path d="M384.76,162a.41.41,0,0,1-.19-.05l-4.85-2.79a.39.39,0,0,1-.14-.52.4.4,0,0,1,.53-.15l4.84,2.79a.38.38,0,0,1,.14.53A.39.39,0,0,1,384.76,162Z" style="fill:#37474f"></path><path d="M386.83,159.88a.35.35,0,0,1-.2,0l-4.84-2.78a.39.39,0,0,1,.39-.67l4.84,2.78a.39.39,0,0,1,.14.53A.39.39,0,0,1,386.83,159.88Z" style="fill:#37474f"></path><path d="M389,158.1a.45.45,0,0,1-.19,0L384,155.26a.38.38,0,0,1-.14-.53.39.39,0,0,1,.52-.14l4.84,2.79a.38.38,0,0,1,.15.52A.39.39,0,0,1,389,158.1Z" style="fill:#37474f"></path><path d="M391.68,156.54a.45.45,0,0,1-.19,0l-4.84-2.79a.38.38,0,0,1-.14-.53A.39.39,0,0,1,387,153l4.84,2.79a.38.38,0,0,1,.15.52A.4.4,0,0,1,391.68,156.54Z" style="fill:#37474f"></path><path d="M394.77,155.5a.46.46,0,0,1-.2-.05l-4.84-2.78a.39.39,0,1,1,.39-.67l4.84,2.78a.39.39,0,0,1-.19.72Z" style="fill:#37474f"></path><path d="M392.4,178.31a24.82,24.82,0,0,0-1.85,8.92,12,12,0,0,0,1.54,6.38l-8.52-4.93-.19-.11h0l-8.56-5-.21-.12-.06,0,0,0h0l-4.53-2.63h0l-.06,0c-2.27-1.36-3.67-4.21-3.66-8.25a23.48,23.48,0,0,1,1.74-8.41Z" style="opacity:0.15"></path><path d="M414.5,160.47c-2.77-1.62-6.59-1.41-10.83,1-8.48,4.87-15.36,16.75-15.38,26.52,0,4.79,1.63,8.17,4.31,9.81.9.56,6.92,3.82,7.77,4.32,2.77,1.62,6.6,1.41,10.85-1,8.47-4.87,15.36-16.74,15.38-26.52,0-4.82-1.67-8.22-4.38-9.85C421.34,164.22,415.35,161,414.5,160.47Z" style="fill:#455a64"></path><path d="M390.07,195.27a3.94,3.94,0,0,0,.26.4c-.1-.13-.19-.27-.29-.42h0A0,0,0,0,0,390.07,195.27Z" style="fill:#455a64"></path><path d="M395.9,192.24c0,9.78,6.84,13.76,15.31,8.88s15.37-16.74,15.39-26.52-6.84-13.75-15.32-8.88S395.92,182.47,395.9,192.24Z" style="fill:#37474f"></path><path d="M404.37,199.43c-4.25,0-4.7-5-4.69-7.18,0-8.41,6.19-19.06,13.48-23.25a10.25,10.25,0,0,1,5-1.58c4.25,0,4.7,5,4.69,7.18,0,8.41-6.19,19.06-13.49,23.25a10.29,10.29,0,0,1-5,1.58Z" style="fill:#263238"></path><path d="M417.8,169.56a15.64,15.64,0,0,0-.14-2.1,10.86,10.86,0,0,0-4.5,1.54c-7.29,4.19-13.47,14.84-13.48,23.25a15.64,15.64,0,0,0,.14,2.1,10.78,10.78,0,0,0,4.49-1.54C411.61,188.62,417.78,178,417.8,169.56Z" style="fill:#BA68C8"></path><path d="M417.8,169.56a15.64,15.64,0,0,0-.14-2.1,10.86,10.86,0,0,0-4.5,1.54c-7.29,4.19-13.47,14.84-13.48,23.25a15.64,15.64,0,0,0,.14,2.1,10.78,10.78,0,0,0,4.49-1.54C411.61,188.62,417.78,178,417.8,169.56Z" style="opacity:0.30000000000000004"></path><path d="M409.21,173.72c2.88-3.48,6.6-4.63,7.18-3.34s-1.26,13.85-13.4,21.22c0,0,6.57-5.66,9.76-12.8C414.63,174.62,412.92,171.2,409.21,173.72Z" style="fill:#e0e0e0"></path><path d="M400,201.94c-.05,0-.1-.06-.16-.08l-.12-.07-.25-.14-.21-.12-.46-.24-1-.58-3.66-2-.85-.48-.66-.38a6.7,6.7,0,0,1-1-.71l-.42-.39a6.22,6.22,0,0,1-.63-.73,4.08,4.08,0,0,1-.25-.33,3.94,3.94,0,0,1-.26-.4,0,0,0,0,1,0,0h0a13.59,13.59,0,0,1-1.75-7.23,28.24,28.24,0,0,1,2.1-10.11q.25-.66.54-1.29c.14-.31.27-.63.43-.94s.3-.62.45-.93a0,0,0,0,1,0,0l7.55,4.38a30.16,30.16,0,0,0-3.47,13.14,13.73,13.73,0,0,0,1.7,7.17A7.91,7.91,0,0,0,400,201.94Z" style="opacity:0.15"></path><path d="M331.33,99.08V98h.26A3.59,3.59,0,0,1,333,96.65a8.86,8.86,0,0,1,8.05,0A3.53,3.53,0,0,1,342.46,98h.26v1.09h0a2.83,2.83,0,0,1-1.67,2.32,8.86,8.86,0,0,1-8.05,0A2.83,2.83,0,0,1,331.33,99.08Z" style="fill:#263238"></path><path d="M341.05,100.32c2.22-1.29,2.22-3.37,0-4.65a8.92,8.92,0,0,0-8.05,0c-2.22,1.28-2.22,3.36,0,4.65A8.92,8.92,0,0,0,341.05,100.32Z" style="fill:#37474f"></path><path d="M368.34,95.62l-26-15a4.42,4.42,0,0,0-6.63,3.83V97.51a.67.67,0,0,0,.39.51A2.06,2.06,0,0,0,338,98a.63.63,0,0,0,.38-.51V84.43a1.75,1.75,0,0,1,.89-1.53,1.72,1.72,0,0,1,1.78,0l26,15a1.31,1.31,0,0,0,1.8-.48A1.33,1.33,0,0,0,368.34,95.62Z" style="fill:#263238"></path><path d="M403.89,114.47h0c-1.63-2.8-31.46-22-39.21-26.49a3,3,0,0,0-3.14.24,9.6,9.6,0,0,0-4.34,7.52,3,3,0,0,0,1.35,2.85c7.81,4.5,38.63,20.91,42.84,20.72a3.06,3.06,0,0,0,3.06-3.07A3,3,0,0,0,403.89,114.47Z" style="fill:#BA68C8"></path><path d="M404.32,117.1c-.87,1.22-2.4,1.85-7.22-.24-4.48-2-30.52-17.16-39.74-22.51a6.62,6.62,0,0,0-.15,1.38,3,3,0,0,0,1.35,2.85c7.81,4.5,38.63,20.91,42.84,20.72A3,3,0,0,0,404.32,117.1Z" style="opacity:0.1"></path><path d="M329.68,126.5a1,1,0,0,1,.46-.76l4.34-2.5a1,1,0,0,1,.92,0l3.1,1.79a.94.94,0,0,1,.44.78,1,1,0,0,1-.48.77l-4.32,2.49a1.06,1.06,0,0,1-.92,0l-3.08-1.8A1,1,0,0,1,329.68,126.5Z" style="fill:#BA68C8"></path><path d="M329.68,126.5a1,1,0,0,1,.46-.76l4.34-2.5a1,1,0,0,1,.92,0l3.1,1.79a.94.94,0,0,1,.44.78,1,1,0,0,1-.48.77l-4.32,2.49a1.06,1.06,0,0,1-.92,0l-3.08-1.8A1,1,0,0,1,329.68,126.5Z" style="fill:#fff;opacity:0.2"></path><path d="M330.14,126.27l3.1,1.79a1,1,0,0,0,.92,0l4.34-2.5c.26-.14.26-.38,0-.53l-3.1-1.79a1,1,0,0,0-.92,0l-4.34,2.5C329.89,125.88,329.89,126.12,330.14,126.27Z" style="fill:#BA68C8"></path><path d="M330.14,126.27l3.1,1.79a1,1,0,0,0,.92,0l4.34-2.5c.26-.14.26-.38,0-.53l-3.1-1.79a1,1,0,0,0-.92,0l-4.34,2.5C329.89,125.88,329.89,126.12,330.14,126.27Z" style="fill:#fff;opacity:0.5"></path><path d="M334.14,129.07l4.32-2.49a1,1,0,0,0,.48-.77.94.94,0,0,0-.37-.73c.18.14.16.35-.07.48l-4.34,2.5a1,1,0,0,1-.46.11h0v1A1,1,0,0,0,334.14,129.07Z" style="opacity:0.15"></path><path d="M302,110.61a1,1,0,0,1,.46-.76l4.35-2.5a1.06,1.06,0,0,1,.92,0l3.09,1.79a1,1,0,0,1,.45.78,1.11,1.11,0,0,1-.48.78l-4.33,2.48a1,1,0,0,1-.92,0l-3.08-1.8A1,1,0,0,1,302,110.61Z" style="fill:#BA68C8"></path><path d="M302,110.61a1,1,0,0,1,.46-.76l4.35-2.5a1.06,1.06,0,0,1,.92,0l3.09,1.79a1,1,0,0,1,.45.78,1.11,1.11,0,0,1-.48.78l-4.33,2.48a1,1,0,0,1-.92,0l-3.08-1.8A1,1,0,0,1,302,110.61Z" style="fill:#fff;opacity:0.2"></path><path d="M302.48,110.38l3.1,1.79a1,1,0,0,0,.92,0l4.34-2.49a.28.28,0,0,0,0-.54l-3.09-1.79a1.06,1.06,0,0,0-.92,0l-4.35,2.5C302.23,110,302.23,110.24,302.48,110.38Z" style="fill:#BA68C8"></path><path d="M302.48,110.38l3.1,1.79a1,1,0,0,0,.92,0l4.34-2.49a.28.28,0,0,0,0-.54l-3.09-1.79a1.06,1.06,0,0,0-.92,0l-4.35,2.5C302.23,110,302.23,110.24,302.48,110.38Z" style="fill:#fff;opacity:0.5"></path><path d="M306.48,113.18l4.33-2.49a1,1,0,0,0,.47-.77.91.91,0,0,0-.37-.73c.19.15.16.35-.07.49l-4.34,2.49a.85.85,0,0,1-.46.11h0v1A.9.9,0,0,0,306.48,113.18Z" style="opacity:0.15"></path><path d="M309.12,102.31v7l-2.75,1.59v-9.33c0-.48.34-.68.76-.44Z"></path><path d="M336.58,114v11.38L334,126.85l-1.77-1v-9.33a1.66,1.66,0,0,0-.75-1.3l-21.53-12.43-2.78-1.61c-.42-.24-.76,0-.76.44v9.33l-1.77-1V98.53a.77.77,0,0,1,0-.15,1.66,1.66,0,0,1,.74-1.16l1.12-.65a1.65,1.65,0,0,1,1.5,0l27.85,16.08A1.64,1.64,0,0,1,336.58,114Z" style="fill:#37474f"></path><path d="M334,115.47v11.38l-1.77-1v-9.33a1.66,1.66,0,0,0-.75-1.3l-21.53-12.43-2.78-1.61c-.42-.24-.76,0-.76.44v9.33l-1.77-1V98.53a.77.77,0,0,1,0-.15c.06-.37.37-.5.74-.29l27.85,16.08A1.67,1.67,0,0,1,334,115.47Z" style="fill:#263238"></path></g></g></svg>